<mxfile host="app.diagrams.net" modified="2024-06-14T11:49:04.410Z" agent="Mozilla/5.0 (Macintosh; Intel Mac OS X 10_15_7) AppleWebKit/537.36 (KHTML, like Gecko) Chrome/123.0.0.0 Safari/537.36" etag="NYApcW25Fln6S3Puqu6X" version="24.5.4" type="device">
  <diagram id="OvwK10OYOURHwYETBiwC" name="Page-1">
    <mxGraphModel dx="794" dy="453" grid="1" gridSize="10" guides="1" tooltips="1" connect="1" arrows="1" fold="1" page="1" pageScale="1" pageWidth="850" pageHeight="1100" math="0" shadow="0">
      <root>
        <mxCell id="0" />
        <mxCell id="1" parent="0" />
        <mxCell id="Ep8Fig-30uCxifs2r-Bo-4" value="&lt;font style=&quot;font-size: 14px;&quot;&gt;API instances&lt;/font&gt;" style="text;html=1;align=center;verticalAlign=middle;resizable=0;points=[];autosize=1;strokeColor=none;fillColor=none;fontFamily=Garamond;" parent="1" vertex="1">
          <mxGeometry x="65" y="145" width="100" height="30" as="geometry" />
        </mxCell>
        <mxCell id="Ep8Fig-30uCxifs2r-Bo-7" style="edgeStyle=orthogonalEdgeStyle;rounded=0;orthogonalLoop=1;jettySize=auto;html=1;entryX=0;entryY=0.5;entryDx=0;entryDy=0;fontFamily=Garamond;" parent="1" edge="1">
          <mxGeometry relative="1" as="geometry">
            <mxPoint x="210" y="115" as="targetPoint" />
            <mxPoint x="155.5" y="115" as="sourcePoint" />
          </mxGeometry>
        </mxCell>
        <mxCell id="Ep8Fig-30uCxifs2r-Bo-16" value="" style="group;fontFamily=Garamond;" parent="1" vertex="1" connectable="0">
          <mxGeometry x="80" y="90" width="105" height="60" as="geometry" />
        </mxCell>
        <mxCell id="Ep8Fig-30uCxifs2r-Bo-10" value="" style="rounded=0;whiteSpace=wrap;html=1;fontFamily=Garamond;fontSize=14;fillColor=#FFFF00;" parent="Ep8Fig-30uCxifs2r-Bo-16" vertex="1">
          <mxGeometry width="30" height="10" as="geometry" />
        </mxCell>
        <mxCell id="Ep8Fig-30uCxifs2r-Bo-11" value="" style="rounded=0;whiteSpace=wrap;html=1;fontFamily=Garamond;fontSize=14;fillColor=#FFFF00;" parent="Ep8Fig-30uCxifs2r-Bo-16" vertex="1">
          <mxGeometry y="20" width="30" height="10" as="geometry" />
        </mxCell>
        <mxCell id="Ep8Fig-30uCxifs2r-Bo-12" value="" style="rounded=0;whiteSpace=wrap;html=1;fontFamily=Garamond;fontSize=14;fillColor=#FFFF00;" parent="Ep8Fig-30uCxifs2r-Bo-16" vertex="1">
          <mxGeometry x="40" y="20" width="30" height="10" as="geometry" />
        </mxCell>
        <mxCell id="Ep8Fig-30uCxifs2r-Bo-13" value="" style="rounded=0;whiteSpace=wrap;html=1;fontFamily=Garamond;fontSize=14;fillColor=#FFFF00;" parent="Ep8Fig-30uCxifs2r-Bo-16" vertex="1">
          <mxGeometry x="40" width="30" height="10" as="geometry" />
        </mxCell>
        <mxCell id="Ep8Fig-30uCxifs2r-Bo-15" value="" style="rounded=0;whiteSpace=wrap;html=1;fontFamily=Garamond;fontSize=14;fillColor=#FFFF00;" parent="Ep8Fig-30uCxifs2r-Bo-16" vertex="1">
          <mxGeometry y="40" width="30" height="10" as="geometry" />
        </mxCell>
        <mxCell id="Ep8Fig-30uCxifs2r-Bo-18" value="..." style="text;html=1;align=center;verticalAlign=middle;resizable=0;points=[];autosize=1;strokeColor=none;fillColor=none;fontSize=14;fontFamily=Garamond;" parent="Ep8Fig-30uCxifs2r-Bo-16" vertex="1">
          <mxGeometry x="40" y="30" width="30" height="30" as="geometry" />
        </mxCell>
        <mxCell id="Ep8Fig-30uCxifs2r-Bo-47" style="edgeStyle=orthogonalEdgeStyle;rounded=0;orthogonalLoop=1;jettySize=auto;html=1;exitX=1;exitY=0.5;exitDx=0;exitDy=0;entryX=0;entryY=0.5;entryDx=0;entryDy=0;fontFamily=Garamond;fontSize=14;" parent="1" source="Ep8Fig-30uCxifs2r-Bo-19" target="Ep8Fig-30uCxifs2r-Bo-32" edge="1">
          <mxGeometry relative="1" as="geometry" />
        </mxCell>
        <mxCell id="Ep8Fig-30uCxifs2r-Bo-19" value="&lt;font style=&quot;font-size: 16px;&quot;&gt;Compatibility Graph generation&lt;/font&gt;" style="rounded=1;whiteSpace=wrap;html=1;fontFamily=Garamond;" parent="1" vertex="1">
          <mxGeometry x="210" y="82.95" width="120" height="60" as="geometry" />
        </mxCell>
        <mxCell id="UAWAhfWOhrc3bymRP1m0-1" style="edgeStyle=orthogonalEdgeStyle;rounded=0;orthogonalLoop=1;jettySize=auto;html=1;entryX=0;entryY=0.5;entryDx=0;entryDy=0;fontFamily=Garamond;" parent="1" source="Ep8Fig-30uCxifs2r-Bo-32" target="Ep8Fig-30uCxifs2r-Bo-34" edge="1">
          <mxGeometry relative="1" as="geometry" />
        </mxCell>
        <mxCell id="Ep8Fig-30uCxifs2r-Bo-32" value="" style="shape=image;verticalLabelPosition=bottom;labelBackgroundColor=default;verticalAlign=top;aspect=fixed;imageAspect=0;image=data:image/png,iVBORw0KGgoAAAANSUhEUgAABQAAAAOSCAYAAAArmn2FAAAABmJLR0QA/wD/AP+gvaeTAAAgAElEQVR4nOzdeZhkdX3v8c/vVPUy+w5MT0/VqYWZ0WYRURQVQTRuMRrXaGI0EhniQkiMAjExYiIG45agxjBo7nVLjILeGzTuMMimwoAsA8PQtfYsIDB7z/RSdb73j0EvdPfMVHedqlNV/X49D88z/s453/OZGny6+M73nJ8EAAAAAAAAAAAAAAAAAAAAAAAAAAAAAAAAAAAAAAAAAAAAAAAAAAAAAAAAAAAAAAAAAAAAAAAAAAAAAAAAAAAAAAAAAAAAAAAAAAAAAAAAAAAAAAAAAAAAAAAAAAAAAAAAAAAAAAAAAAAAAAAAAAAAAAAAAAAAAAAAAAAAAAAAAAAAAAAAAAAAAAAAAAAAAAAAAAAAAAAAAAAAAAAAAAAAAAAAAAAAAAAAAAAAAAAAAAAAAAAAAAAAAAAAAAAAAAAAAAAAAAAAAAAAAAAAAAAAAAAAAAAAAAAAAAAAAAAAAAAAAAAAAAAAAAAAAAAAAAAAAAAAAAAAAAAAAAAAAAAAAAAAAAAAAAAAAAAAAAAAAAAAAAAAAAAAAAAAAAAAAAAAAAAAAAAAAAAAAAAAAAAAAAAAAAAAAAAAAAAAAAAAAIiYizoAAAAAwuP7/mKv6p0or3qi59waM62V1CPZAsnNP/xrSdKoZAckt1/SiHPaGphtVRB7SF3ams/n90b3uwAAAECYaAACAAC0sXQ6vUZBcK6TzpXpLEknhFT6YTn9TNL1VvGuz2/LPxRSXQAAADQZDUAAAID24mWSyXOc3B+Z7KWS62/KXU1DcvZD59zXB4vFn0kKmnJfAAAA1I0GIAAAQBvIJhJPl7w/NumP5LQ64jhlyX3NWfXrg+Xy/RFnAQAAwDHQAAQAAGhhmWTyXMn9raQXRZ1lau6nztlHB4vFjVEnAQAAwNRoAAIAALSgdDL5u07ubySdOd1rq3MWa2zRKo0vOkHjC/oUdM9T0DNfFosriB/eA8SrjMpVK/JGD8gbO6CufQ+ra+8Ode/bodihPTNI7G6RgstzpdL3Z3AxAAAAGogGIAAAQAvxfX9dzNznJHtxrdeML1qpQyecrEMrT9ahvpNV7V1QV4bYyD7N2Xnv4X923KuufQ/XfK2ZfqS4d2E+n99aVwgAAACEhgYgAABACzjl+OPnHZwz50Nm+ktJ3cc6f+S4tdp/4ot1sP8Zqsxb1tBs8eHHNXfoTi146Hr1PlpTX29Ucp86ND56+Y4dOw42NBwAAACOiQYgAABAxNKJxIudvP91rM09qr2LtH/Ni7TvxHM1vmhVs+I9RfeeIS146AYteOgGxUb2Hev0smR/kiuVbmhGNgAAAEyNBiAAAEBETj/99K49jz/+SZku1FG+l40vWqndp7xBBzIvkHnxJiY8MhdUND93s5bc/a1jPSJscvrs4mXL3r9p06bxZuUDAADA/0cDEAAAIAKZTOY4V61+zUy/c6Rzqr2LtOuZf6D9J54ri3U1M17NXHVcC7f+REvu+i/FRvYf+UTTD2OV7rdu3bH1sealAwAAgEQDEAAAoOlSqdQpXmD/I2nq53g9T3vXvky7nvlmBT3zmxtuhmIj+7Tsl1/WgtyNktkRzrJtCuKvyA3l7mtqOAAAgFmOBiAAAEATZRKJ58t535W0eKrjo0tTevSsd2t0WbrJycIx5+HNWn7bF9W9uzzlcSftkuxVg6XSbU2OBgAAMGvRAAQAAGiSTDL5CsldI2nuVMf3rfsdPfacP23Zx31r5SpjWv7zL2nh1p9MedykYef0hlyx+IMmRwMAAJiVYlEHAAAAmA2yidQb5HSNpN6Jx4KuXv36rPdoz6mvl7wO+HrmxXQw8WxV5h+vOTvvkQsqTznspG5Jb1qyeNEDu/fufSCakAAAALMHE4AAAAANlkkmz5Xc/0jqmXisOmeRdr70b9v2kd9j6Xl0UCt//DHFRvZOdXjUOb18sFjc2ORYAAAAs0oH/BUzAABA68omk6dJ7geS5k08Nr7wBO14xd9rbMnqCJI1R3XeUg0nztDcbZsUGxueeDgu6bWLly75/p49ex6JIB4AAMCswAQgAABAg/i+78dMt0k6YeKx0WVp7Xzp36o6Z1EEyZovdmiPVv7oo+p5vDDV4Z0W856bz+en3jkEAAAAdWECEAAAoAH6+vrmdsdiP5WUmXhsdHlGO175Dwp65keQLBrW1asDmRdq7vZfKX5o98TDC5zZi+ctmP/lffv2Vaa6HgAAADPnRR0AAACgE/V29XxCppMnrlfmH6eHX3Kpgq5Je4F0vKCrVw+/5FJV5i2b6vApPfH4Fc3OBAAAMBswAQgAABCyjO+/2Ukfn7he7V2oHa/4iCoLjosiVksIuufqUP8ztCB/s1x1bOLh5yxbtGTzrr177o8iGwAAQKeiAQgAABAi3/d9zzR5x1/n6eGXXKLRFdlogrWQau8ijS1LaUH+Zkn21INOL1+6fNnXd+/evS+ScAAAAB2IR4ABAABCFAv0z5IWTFzfferrdKjvlAgStaaDq56h3Sf//lSHFrpK8Jlm5wEAAOhkNAABAABCkvH935fTayauH+w7VbtO+4MoIrW0Xae/ZcqmqMlen06kXxVBJAAAgI5EAxAAACAEvu/3yvTJietB1xw9etZ7JMfXrkmcp1+f9Z4pN0RxLvhUNpvtmeIqAAAATBPfRAEAAEIQN3ufpMzE9V3PfPORdr2FpMq85dr9jCmnI9cEY5W/aHYeAACATkQDEAAAoE4DKwbmm9z7Jq6PLk1p39NeGUWktrJ34FUaW5qYtO6c/uqU44+fF0EkAACAjkIDEAAAoE4jcw/+maSnjvk5p8eev17m8XXrWMzz9OiZF0x1aMXBOXPWNzsPAABAp+EbKQAAQB36+vrmSvaBievDq5+tkRVroojUlkaOX6fhxLMmrZvpkv7+/jkRRAIAAOgYNAABAADq0Nvd/TZJx01c33PqayNI0972nDzlZ3Z8j9f11mZnAQAA6CQ0AAEAAOrgTOdPXDvUdwrTfzMwcvw6HTphYPIBZ+c1Pw0AAEDnoAEIAAAwQ9lEYkDSMyeu7556kg01OMLk5HNTqdTaZmcBAADoFDQAAQAAZsic+5OJa+MLjtehvpMjSNMZDvadqsq85ZPWY2bviCAOAABAR6ABCAAAMDOe5N4ycfFA+gWSc1Hk6QzO04HMCyYtm+kt4rsrAADAjPAlCgAAYAZSqdSzJK2auL4/e3YEaTrL/sw5Uy0nMonEaU2OAgAA0BFoAAIAAMyAq9qLJq6NLs9ofNGkniCmaWzJao0uTU0+4GLnNj8NAABA+6MBCAAAMAPO2Usmrh3sZ0AtLAdXT9pbRTJ7cfOTAAAAtD8agAAAANOUzWZ7JPe8ieuHVp4URZyONOVn6XTWwMBAd/PTAAAAtDcagAAAANNk4+OnS5r7lLVYl0ZWrIkoUecZXbFG5sUnLs8dHR6eYjQQAAAAR0MDEAAAYLqcO3ni0uiKrCzeE0WajhR09Wp0RXbSugWTP3sAAAAcHQ1AAACA6XvaxIUpN61AXab6TM1pXQRRAAAA2hoNQAAAgOkyrZ24NL6oL4okHW2qz9Rp8mcPAACAo6MBCAAAME02RRNqbNGqKKJ0tPHFU32mAQ1AAACAaaIBCAAAMA3n6Jy4kxIT15kADN/4ghOmWvbFd1gAAIBp4csTAADANOQT+QWSYhPXq3OWRpCms1XmTvWZung6nV7Q9DAAAABtjAYgAADANMTj8UnNJ4t3yzy+VoXNYl0yLz5pPT42Nj+COAAAAG2Lb6oAAADT4FUqk5pPQbw3iiizQtA9Z9La2BRNWAAAABwZDUAAAIBpcJ43qfkUdE1uUiEcFp/82XrVyX8GAAAAODIagAAAANPhXM/EJYt1R5FkVgjikz9bkzFyCQAAMA00AAEAAKYhqFaHJ655lZEooswK3vihSWsxL5j0ZwAAAIAjowEIAAAwDRaP75+4NlWTCuHwxic3V60a3xdBFAAAgLZFAxAAAGAausbHD0xcczQAG8ZVJn+2QVcwqQkLAACAI6MBCAAAMA3Vnp7JDcCgKlcdjyJOR3OVUbkgmLS+4ODBSX8GAAAAODIagAAAANMwODh4QNLoxPX48KMRpOlsXQem/ExH7nnkkYPNzgIAANDOaAACAABMTyBpcOJi957tEUTpbF17p/xMt0qyJkcBAABoazQAAQAApsnJbZm41rV3RxRROtqUn6nTg81PAgAA0N5oAAIAAEyX2UMTl7r2MQEYtu59Oycvmtva/CQAAADtjQYgAADANJmnSROAPY/lo4jS0Xoey01ac8YEIAAAwHTRAAQAAJimwLm7Jq717CrJG2Vz2rDERvare3d50rqZN+mzBwAAwNHRAAQAAJimQqFwr6RHnrJogebsvDeaQB1ozo57JQsmLj+cG8ptjiIPAABAO6MBCAAAMH0mpxsnLs7ZSW8qLHMevm+q5Y1iB2AAAIBpowEIAAAwA85sUgNw7rY7JaM/VTczzd02+Ulfm6LpCgAAgGOjAQgAADADVc/76cS1rv2PqPfX7FFRrzm/fkDxA7+etO4qsZ9EEAcAAKDt0QAEAACYgUKh8KBkd0xcX/DQDVHE6SgLtk7+DE36RW5bbjCCOAAAAG2PBiAAAMBMmfvqxKX5hVvkKqNRpOkI3viI5hVvnbwum/RZAwAAoDY0AAEAAGYoiLn/kqzy5DVv/JDmF38RVaS2N6/0C3njIxOXxy0e/1YUeQAAADoBDUAAAIAZKhQKj0juRxPXF9/7HTYDmQkLtPie70xadrIf5nK5yS8FBAAAQE1oAAIAANTD6eqJS927y5o3dHsUadravNIv1L1naPIB8zY0Pw0AAEDnoAEIAABQh1yx+N+SNk9cX/Kra5gCnA4zLbn721MduWewXPhus+MAAAB0EhqAAAAA9QnM6fMTF3sey2nB4I1R5GlLCx66Xj2P5ycfcPqYJDqpAAAAdaABCAAAMHMuk0itd+Yun+rgsju+Im9suNmZ2o43ekDL7vjaVIe25orFa5qdBwAAoNPQAAQAAJiBdDq9JpP0b5CzqyRbMtU5sUN7tfTObzQ7WttZtuk/FBvZN2ndZB+RVG1+IgAAgM5CAxAAAGAaztE58XTCv8RVg19JOvtY5y/a8gP1PJZrQrL21PvoQ1q49cdTHbohXyr9Z7PzAAAAdCIagAAAADVKr04/e1uyeIdzukLSnJouCgIdv/HT8sYPNTZcG/LGhnXcxs9IQTDx0Jgne4949x8AAEAoYlEHAAAAaHUDKwbmLzxu3iecC/5Ncn3TvT42ekA9u0s6kH6B5FwjIrYfM51w/SfU+9jgpEPO6aODpRLv/gMAAAgJDUAAAICjyPr+y8a7xr/npJdLbsZPT3Tt26nqvCUaXZ4JM17bWvTAD7To/u9NdeiBQ+Njb9+/f/94szMBAAB0KhqAAAAAU8hmsyuWLFz4v2X6RydNucnHdM3bfpfGliQ0vrg/jHJta37xNh13879qiid891vVe1F5e/mRCGIBAAB0LBqAAAAAT+UyidR6BcH/lXR6qJXNNHfbnTrUd6qq85aGWrpd9D66VSf89J/kgsrkg+YuzA8VptwRBAAAADPHJiAAAABPSKfTazJJ/wY5u0p1Tv05aYukGyaue+MjWvnjy9W1d0c95dtS955tOuHHH5OrjE51+D9z5cLVR7r2HJ0Tb1wyAACAzsYEIAAAmPVOP/30rnk9PX+nwL4qKVtnuTHn9NGK0x/HuuLfUhC8XNLKJ5/gVUY1v3CrDq08SdW5s2MSsOfRQfX98COKjeyf4qjb1Htw3usfPfjo2JGuj2fjXUsWLLpx6eIl5y1dsvjUpQuXHLds0cLKrr17H2tgbAAAgI7ANnQAAGBWS69OP9vzgqtNOrXeWib9QlXv/Py2/L2/WfN9/4SY6RZJ6YnnB129evjcS3Ro1Sn13rqlzd3+Kx1//SfkjY9McdQGFY8/P5fL/fpYdbKJxNPNeXdImvOk5T2S3eGcu0WB2+RVum7bumMrTUEAAIAnoQEIAABmpYEVA/NH5g1fLrN3S67ex0v3y9z7c+XCFyUFEw9m+jNZxaq3SDpu4jHz4vr1We/VgcxZdUZoTQsGb9SKmz8vF1SnOvyIC6rPHxwaytVaL53wL3FOVxz5DKs4uc0mu13y7g4C3e263D35fH7v9NMDAAB0BhqAAABg1sn6/ssC0xeclAqh3HfiQfW9Dw4NHfWlftlk8jST+4GmaAJK0t6nv0KPP/vtslhXCJGi56rjWv6L/6WFW354pFMe8Zxe/lCx+Kvpls4k/e9JesU0r9stufvlbJMCt0mqbq563uZisTjVWCIAAEBHoQEIAABmjWw2u8Iqlc/L9MYQym135t41WC5cV+sF6XR6jasGP5KUnOr46LKUHnnR+zS+sC+EeNHp2rtdJ1z/KXXvLh3plKJVvZfmt+Ufmkn9VCqV9AK7W9KiGYc8bL+ke2W6R55+5aQHvUrloa3btm2vsy4AAEBLoQEIAABmA5dJpM6XsytU5+6+kkxOV1elS4rF4p7pXpxdle23eOVHkp421fGgq1e7nvmH2vu0V0ieV2fU5nJBoEUPfE9L7vzGEd73J0naHKtWXlZvky2dTL7OyV1bT42jGJc0JFlezuUtUN6Tu99TdfPWcrkkacrnmQEAAFoVDUAAANDRnpi62yDp7HprOWlLNXDrC0OFm+qps6ZvzfJq99i3ZTrii/9Gl6X16PMu0OiKejclbo7eRx/S8luuUs+uwtFOu3G0Wnndtm3bdoVxz4zv/5dMbwqj1jTskdNDzvSQnB6SuW2Bgh0uiJdHbXRHWL83AACAMNEABAAAHen000/v2vv4439jpov11F1jZ2LMOf1jRboirHfGnaNz4kPJ0mWS/bWkqUf9nKd9J56rPae8VuMLTwjjtqHr2rtTS+75thYMbpRs0v4nv1F1TpcPFot/rxCn5/r7+5f2xGJ3S64/rJohOCRpSNIOyYacczsscNvl2VDg3I7uSmXbaCy2q13fPej7fm/v+Pi8Ldu3Px51FgAAUDsagAAAoOOkV6ef7XnB1SadGkK5n1vVW5/flr83hFqTpFKpM1xg3zjqhiTO6WD/M7XrGW9qmYnAnscGtfSub2rutjsls6OdmrfAe3N+KH97I3KkE+mXOBf8SG32vdakYWfa5Zx2mfS4yXY5c4/LucelYJc5t8uTdgWB97inyi5PGjkYBHuWjo+P3vPII8NhZDjl+OPnjcQWzVF8ZGEliM/z4sFSk5aY2VInLZG8pVKwQvL65Cwhs5WSuy9WrbyV9yQCANBe2uqLEgAAwNEMrBiYPzJv+HKZvVty8TrL7Ze59+fKhS9KOuJoWxhSqdTxsUCfN9nrj3qi83TohAHtz56tYf9MBV29jYw1iTd+SPOKt2nB4I2a8/D9R5v4O8zpm4rFLszlcr9uZK5swv+MOf1FI+/ReuyA5EYl7Z3mhfN0eCJ24TSvq5rpH/Ll4kfFOxABAGg7NAABAEBHyPr+ywLTF446SVe7b8eD6oUPDg3tCKFWzdLJ5O9K7rO1/B4s3qPh5Bk6kHqeDp0woKB7XkMyeaMHNOfhzZpfuE3zyr+Qq4zVcllOTu/NFYs/aEioCbLZbI+NV+7SETZWQd1yFnhvadQUJwAAaDwagAAAoK1ls9kVVql8XqY3hlBuuzP3rsFy4boQas1IX1/f3Lnx7g+Zs/dKbn5NF3meRpemdKjvZI0ct1Zji/tVmX+CbJq7CLsgUPzAw+rePaTeXz+oOTvvO7ypR1DzAOR+yV05Wh2/fNu2bYemdfM6nZhKvTAIbKP4fhu2b7iu+AWDg4P7og4CAABmji9IAACgXblMInW+nF0haUmdtUxOV1elS4rF4p4wwtVr3apVy8bj8Yskd6GkxdO93ry4xhet1PiClQq6exV0zZV1zVH1iUnB2NiwvLGD8sYPyY2PqGv/TnXt3SkXVGYSd7dzunKkUrkyyl1ws0n/X016V1T37zAHZe5duXLhK1EHAQAA9aMBCAAA2k46nV7jqsEGSWfXW8tJW6qBW18YKtwUQrTQpdPpRV61+h6T/lJyy6PO81T2mHPu04rHP98KE2LZbHahjVXuk9PqqLO0N7vPmf3BYLl8f9RJAABAOGgAAgCAtjEwMNA9Ojz8QTNdrMMbGdRjzDn9Y0W6olgsjoSRr5Gy2WxPMD7+Kufc22R6haSuiKKMyfR9c/YVr6vre4ODg6MR5ZhSOpl8pZP7XtQ52pbTlaOVyqXNfoQbAAA0Fg1AAADQFlKp1BleYFdLOiWEcj+3qrc+vy1/bwi16pJOJs+bM3/+1zZv3lzT7hqStKZvzfJK99gbXaCXyelszeAR4WnaLelGc/ph9/j4t7Zs3/54g+9Xl2zS/7pJfxh1jjazx5k7f7BcuCbqIAAAIHw0AAEAQEsbWDEwf2Te8OUye7fk4nWW2y9z78+VC1+UVPPOFo2S9f0rzPTuXKm4sI4ysfTq9DPlgnOdc2dJtk6y5Mw/K6tIKkregzL7mZl3fX4of5ekah0Zm+rw+xO77pd0XNRZ2sRdFvPenM/nt0YdBAAANAYNQAAA0LKyvv8yM/2bJD+Ect+OB9ULHxwa2hFCrXp56WTqs072bpMK+VIxHWbxgYGB7oMHD6Zc1Z3ouerxcm5hEGihnFvonM2XJDN3QGb7PE/7ZLYvsNgjFrOHli5dmt+0adN4mHmikE4m/8jJfS3qHC3O5PRZF49f3GqPcgMAgHDRAAQAAC0nm82usErl8zK9MYRy2525dw2WC9eFUKtup59+eteexx7/sqS3SJKcbs8Vi2dEm6ozZRL+/5HTa6LO0aIed4E7b3Co8N9RBwEAAI3nRR0AAADgSVwmkVpv45UHQ2j+BXK6sup0Uqs0/9auXbtgz2O7vq/fNP8kyfRYdIk6W9yq75a0J+ocLcfpJsVjp9H8AwBg9qABCAAAWkIqlVqbSfo3yNlVkpbUU8tJW4LAnZMrFi8qFost0QBa07dmefXQ6E8ke/GT103W0htqtLPDj3vbR6PO0ULM5D7dO2/eS3K53FDUYQAAQPPU+yJtAACAugwMDHSPDg9/0AK7WNKcOsuNOad/rEhXFIcKI2HkC0N2Vba/Gh/7oaSnTzzmmWMCsIFypdI/p5P+W530jKizRGyHZG/Nl4o3RB0EAAA0Hw1AAAAQmVQqdcbIgeGrJZ0SQrmfW9Vbn9uWvzeEWqFJp9NrrFr5oY6wkYk5xwRgY1WdBe+V827S7H3/9fddV/ztg4ODj0YdBAAARIMGIAAAaLqBFQPzR+YNf0qBvVP1v5Jkv8y9P1cufFFSEEK80GSTydOsGnxXUt+RzjFnTAA2WK5cviXj+1+V6W1RZ2myMTNdnC8Xr5RkUYcBAADR4R2AAACgqTK+//KRucP3yrRe9X8X+XY8qK7LlQsb1GLNv4zvv9nkbtNRmn+S5AU8AtwMgXMXa3ZtCJK3wHtBvlz8F9H8AwBg1qMBCAAAmiKTyRyX8f1vyvR9HeFx2GnY7sy9Olcqvv7wRg+tJev7l8n0H5J6jnmyxwRgMxQKhUdk+nDUOZrkG64rflp+KH971EEAAEBroAEIAAAazWUSqfWqVLfI9MY6awVyurLqdNJguXBdKOnC5aWT/qftcKOppvfNBRWPdwA2Sa5c/LxJv4o6RwMdlLm350rFtwwODu6LOgwAAGgdvAMQAAA0TCqVWuuqtkHOXlhvLSdtqQZufWGocFMY2cKWzWYXqlK5xky/M53rXI+bTY+lRq2DNwSx+5zZHwyWy/dHnQQAALQeJgABAEDoBgYGurO+f5kX2F3Oqd7m35hz+kjF6bRWbf6l0+mEVSo3T7f5J0mjo6PDjciEqeXK5Vtk+krUOULldOVotXoGzT8AAHAkTAACAIBQpVKpM0YODF8t6ZQQyv1cQez8waHcfSHUaohMInG6qsF1klbO5Pre3l4agM3WFbtYleprJC2OOkqd9jpz7xwsFa6JOggAAGhtHfboAwAAiMrAioH5I/OGPyXTO1X/Uwb7ZO4DuXLharXwDqbZROr3zAX/Ibn5MyxRzZWK/IVsBDIJ/8/l9C9R56jDXRbz3pzP57dGHQQAALQ+HgEGAAB1y/j+y0fmDt8r03rV//3i2/Gg+rRcubBBLdz8yyRS55uza+to/knSwdACYVoWr1j2BUkPRp1jZuyLh8bHXkDzDwAA1IoJQAAAMGOZTOY4VaufC2F3X0na7sy9q0V39/2t/v7+Ob2xrqtN9kchlHs4VyrO6NFh1C+dTP6uk/tu1Dlq5aRdCtw7BocK/x11FgAA0F6YAAQAADPhMonUelWqW0Jo/gVyurLqdFKrN//S6XSiJxa/OaTmnyTx/r8I5Uul70n2k6hz1MZutnjsGTT/AADATPDOGQAAMC2pVGqtq9oGOat3d19JesDMW58v5W8OoVZDZX3/HKsG35S0IsSyNAAjFnje+73A7lTr/sV41Tl9tL+Y+uhGbaxEHQYAALSnVv2iAwAAWszAwEB31vcv8wK7yznV2/wbdU4fqTo9M19u/eZfJpE630w/VLjNP4l3AEauUCjcbbL/iDrHUVSCQIc2amMQdRAAANC+eAcgAAA4plQqdYYX2NWSTgmh3M8VxM7PDeXuC6FWQw0MDHSPDA9/9onNTRrA/TRXKrykMbVRq+yqbL/FKw9Kmht1lqO41WLeO9j4AwAAzAQTgAAA4IjWrl27IOP7V3mB3ab6m3/7ZO6CXKn4vHZo/vm+f8LIgYPXN675J8kZjwC3gMHtg9uc02ejznEMz3PV4FfphH+J+A4PAACmiS8PAABgShnf//3KyOgDTzTA6vrO4OSurcjW5cqFDZIsnISNk0qlzoiZ7pDs+Q29kfEOwFYxUqn8k6TdUec4hjnO6Yp0wv9+Op1ORB0GAAC0DxqAAADgKTKZzHEZ3/+mTN+RtKq+arbNmXv1YKnwhlKptDOUgA2W8f03u8dfQ1YAACAASURBVMCuV92/92Nz0qFG3wO12bZt2y6ZLos6Ry2c00tdNdjCNCAAAKgVXxgAAMBvuEwitV6V6oMyvbHOWoGcrqw6d/JguXBdKOkabGDFwPxMMvkVmf7TSfOacU+TVZtxH9Rm8YplX5DTQ1HnqNEc53RFJunflE6n10QdBgAAtLZY1AEAAED0UqnU2qULF1/rnN4rqbfOcg+Yea/Plwob9uzZMxJGvkZLpVKnVuNjP5bcuU29sbk7du/d892m3hNHtHPnzmDZwiU75fSmqLNMw2pn9s4lixZXdu/d83O1wSP2AACg+ZgABABgFhsYGOjO+v5lXmB3OacX1llu1EyXLl6+7NR8OX9zKAGbIJ3wL/IC+7mktc2+t3MKmn1PHN1guXCtnG6POsc0/WYa8GepVKrp/x4DAIDWRwMQAIBZ6kTff87IgeHbzfRhSXPqLHebgtiz8uXixzdt2jQeRr5G831/cSbpX+uc/ln1Tz3OSCBHA7D1mAXeB6O4sTP9ss4Sz/MCu+uJdwPypA8AAPgtGoAAAMwya9euXZDx/asC062STqmz3D6ZuyBXKj4/N5S7L4x8zXCi7z8nZrpL0uuizOEU0ABsQfly/idm+lmTb1seLBfPlLkLTHXtDs00IAAAmIQGIAAAs0jG93+/MjL6gEzrVef3ACd3bUW2LlcubFD7vHfMpRP+RYHpRkl+1GHkmABsXcHfN/NuTu4mSUGuXNjgBdVTQ2hAMg0IAAB+iwYgAACzQCaTOS7j+9+U6TuSVtVXzbY5c68eLBXeUCqVdoYSsAkSicSSTML/zhOP/PZEnUeSzHgHYKvKl8s/lXRjs+5n9v/vNTg0lMuXiy9iGhAAAISFBiAAAJ3NZRKp9apUH5TpjXXWCuR0pcViJw2WC9eFkq5JUqnUGV3O+7mcXhN1lqdy7TI5OUtZ06YALe4mNhuZBgQAAKFxUQcAAACN4fv+Oi/QVSHs7itJD5h569tpd19J6uvrmzunu/szMp2vlvzeY5/IlUoXR50CR5ZJ+hslnd3g2+zIlYpHm8z1MonUO83Zp500r8573Rp47rxCofBgnXUAAEAbYQIQAIAOMzAw0J31/ctipjtDaP6NmunSxcuXndpuzb/06vSz5nR13/7E+w5bsPknOd4B2PKc02UNv4nppmOcwTQgAACoCw1AAAA6yIm+/5yRA8O3m+nDkubUWe42BbFn5cvFj2/atGk8jHzN8EQD9ArnVW+T9PSo8xxNEPAOwFY3WCxulLSxkfcwr7Z3DfJuQAAAMFM0AAEA6ABr165dkPH9qwLTrZJOqbPcPpm7IFcqPj83lLsvjHzNkkqlTn2iAXqJ5OJR5zkWJgDbg5n3oUbW94JgOlN9TAMCAIBpowEIAECbyySTr62MjG554lHXun62O7lrK7J1uXJhg6R22qDCpX3/z1xgt6j+BijwFE88/n5Dg8r/erBcvn+6FzENCAAApoMGIAAAbSqTyRyX8f1vSu7bkvrqq2bbnLlXD5YKbyiVSjtDCdgkmf5MNpP0b3amL4SwQUKTBT1RJ0CNLGjUFODNmnmznWlAAABQExqAAAC0H5dJpNarUn1QpjfWWSuQ05UWi500WC5cF0q6JsomUn+sWPWXkp4XdZYZogHYJnLl8i2Shb4RjrljbgByTEwDAgCAY6EBCABAG/F9f1064W+Us6skLa6z3ANm3tm5YvGifD6/N4x8zeL7/rqM7//MnH1F0pKo88yYczQA28vHwi5ozoX1aDHTgAAA4Ihc1AEAAMCxDQwMdI8OD3/QTBer/t19R8304SUrln26nXb3lUL/HKJn+nKuXPyTqGOgdpmkf6ek00Iq93iuVDxOCn03aC+TSL3TnH06hMfibw08d16hUHgwlGQAACASTAACANDiTvT954wMD99hpg+r/qbXRqt6J+fLxY+3W/MvvTr97Cd2+A3jc2gVvVEHwPQ4c58Or5huUfjNP4lpQAAAMAENQAAAWtTatWsXZHz/qsB0q0wn11lun8xdkCsVz81vyz8USsAm6evrm5tJpi53XnCzOm2HX8c7ANtNfzn5DUmlMGo5sxvDqHMkDXg34E28GxAAgPZEAxAAgBaUSSZfWxkZ3SLTetX589rJXVuRrcuVCxs0891GI5FJpN42p6t7ULIPSuqOOk8D0ABsMxu1sSJTKFOA1uAG4BN+Ow0oqd77nck0IAAA7Yl3AAIA0EIymcxxqlY/F8LuvpJsmzPv3e25u2/i6ea8z0s6J+osDXZ9rlR8cdQhMD1r165dUBkZ3SZpYR1l9q8u+Us3amMlrFw1CPPdgLcFnnsH7wYEAKA9MAEIAEBrcJlEar0q1QdDaP4FcrrSYrGT2q3519/fPyeTTH3InHe7Or/5J4ldgNvRgw8+uF9yV9dZ5qYmN/8kpgEBAJi1aAACABAx3/fXZXz/Rjm7StLiOsvdb+adnSsWL8rn83vDyNcksUwitb4nFs9J9veS5kYdqEnYBKRNBZ4+K6k60+tD2JxjxgaHhnK5UvFc3g0IAMDsQQMQAICIDAwMdGd9/7KY6S6Zzqqz3KiZLl28fNkz8uX8zaEEbJITU6kXZpL+L59ogK6MOk9zBUwAtqlCoVCSNOMJW8+rewKvXkwDAgAwi/AOQAAAInCi7z8nkK4OYXdfSdpoVW99u+3um8lkVmu8+g9y+mPN3r+U3JorFZmcalNZ3z/HTDfM4NIo3v93NLwbEACADkcDEACAJlq7du2CyujoJ2V6p+pveu2TuQ/kyoWr1Ua7+yYSiSVdzv215C7UbH8E1jSUKxcTUcfAjLlM0r9X0sA0L/tprlR4SUMS1SG7enXGvNiXJJ1dZ6lDZvpIvlz8pOp4TBoAAIRntv5tOwAATZdJJl9bGRndItN61fkz2GTXVGTrcuXCBrVJ8y+bzS7M+v4VcecNSe4Dmu3NP0lytiTqCKiLmdPnpn9ZMJOpwYbj3YAAAHQuGoAAADTYmv7+Vdlk8jrJfVtSX33VbJsz9+p8qfTGUqm0M5SADTYwMNCdSaTW21jlPjNdEsIjhh3EzTtH58SjToGZmzM872uS9k/nGrNY1O//OxreDQgAQAfiEWAAABrHZRKp8+Xs46p/d99ATp8zz/u7dtndt6+vb25vvPtC5/RXklZEnadVua74cYODg49GnQMzl0kmN0ju/BpPP9g7f96SzZs3jzU0VDhcJpE6n3cDAgDQ/mgAAgDQAL7vr4tJG0LY3VeS7pcF63Pl8i0h1Gq4bDbbE1Qq5znTpZJ4v90xWNVb024buOCp0qvTz3JecHuNp9+QKxXPbWigkK1JJNJV5/27eDcgAABti0eAAQAI0cDAQHfW9y+Lme4Kofk3aqZLFy9f9ox2aP5lMpnVGd//FxuvPOJM/yqafzWJxYOlUWdAffJD+Tskt6mWc83qfqy26baWy/lcqfgi3g0IAED7ogEIAEBIsr7/3JHh4TvM9GHVv8HFDVb1Ts6Xix/ftGnTeBj5GiWbTJ6Z8f1vqlLNyfTnkhZFnamdBBIbgXQAp+DfazszuLmxSRrGcuXChrgFp4h3AwIA0HZ4BBgAgDqtXbt2QWV09JMyvVP1/+XaPpn7QK5cuFptsLvvwMBA98F9B5/jvGC1k1Y6c/3mqU/mVkm2StJKST1R52xpTm/JFYvfiDoG6pPNZhfaeGWnpLlHOW2k6rSkWCyONCtXg/BuQAAA2gwNQAAA6pBOJl/n5D6runf3lUx2TVX683bZ3bdWvu/3dgdBX0XxPk+2MpD1eZ5WmlmfpJWSS0taLakr4qiRcLL3DJZK/xp1DtQvk/T/Q9JbjnyG3ZwrlcJ4L2hL4N2AAAC0j3jUAQAAaEdr+vtXBbHYv5ncq+qvZtucee/OlYvX1V+r9Twx7ZR/4p8jSiQSS7qlvkDxlU7WZ7KVztPhJqG5tGR9ko5Xh73CxHgEuGM4py+bHa0B6LXd+/+OZmu5nJf0ohCmAX/zbsDXVJ3OKxaLW8LMCQAAmAAEAGC6vHTCv9A5XSZpcZ21Ajl9zjzv7/L5/N4QsnW8bDbbExsdXVZxbqVTrM+klc6z9JOmCft0eJpwQcRRp8F9KlcqvD/qFAiFl0n4RTmtnupgYO6lhXLhx80O1QxMAwIA0NpoAAIAUCPf99fFpA0h7O4rSffLgvXtsLtvO+rv758z1/NWVhRPTzFN2CfZiZKOizqnJDnp3wdLxT+NOgfCkfX9K8x0yRSHxueNHFpyzyOP1LOLbqsL9d2ATAMCABAeGoAAABzDwMBA9+jw8Aef+I/6enf3HTXTh5esWPbpVt/dt4N5maR/j6SBqIM84du5UvH1UYdAOFKp1KleYL+auO5MvxwsF58TRaZmYxoQAIDW01Hv0AEAIGxZ33/uyPDwHWb6sOpv/t1gVe/kfLn4cZp/0cn6/u+pdZp/krQ06gAIT6FQuFvS/ZMOeLqh+WmisbVczudKxRfJ3AUm1TPx+Jt3A97k+/660AICADAL0QAEAGAKa9euXZDx/avMdItMJ9dZbp/MXZArFV+c35Z/KJSAmClnpr+LOsQEK6MOgHA5p29NXDOzjtoApAaWKxc2xC04RVK9v/czY6Y70wn/EkmxELIBADDr0AAEAGCCdDL5usrI6BaZ1qvOn5Umu6YiW5crFzZIsnASYqayvv9SSc+s7Wxr1p8XDcBOEwQTG4BV19U1K9/3yTQgAACtgQYgAABPWNPfvyqbTF7n5K6V1FdXMdOQM/fqfKn0xlKptDOchKjXE49y18a5b0k61Lg0v7VwYMXA/CbcB00yWC5v1lMeA7a7BgcH90UWKHpMAwIAEDEagAAASF464V9UjcXvM7lX1VkrkNOVFvdOHiwXrgslHUKR9f2zJZ1Z4+mHAuf+PDD3GkkjDYx1+GY9h5gC7Dj27d/+Su6mKJO0CqYBAQCIDg1AAMCs5vv+uozvb3RO/yxpcZ3l7pcFL8wVixfl8/m9YeRDqP6m9lPti4VC4ZFCufBjOb1W0mjDUkmKdRkNwA7jpO/85tde4DZGGKXVPHkacGOdtc6Mme5iGhAAgGOjAQgAmJUGBga6s75/Wcx0l0xn1Vlu1EyXLl6+7Bm5cnlWvuer1WWSyeeZ6XdqPH3MVbr+6Tf/I1cs/sCc3iGp2ph0UmA0ADvNYKl0l6TtkoIxV2UCcIInpgHPDWEasJdpQAAAjo0GIABg1sn6/nNHhofveOJ9cL11lrvBqt7J+XLx45s2bRoPIx/CZ85dOo2zvzy4fXDbk1fyxeJ/OnNvlqwSdrbDt3SJhtRFlEyy7zvp3nK5vDvqMC2KaUAAAJqEBiAAYNZYu3btgozvX2WmW2U6uZ5aTtolc2/PlYovzm/LPxRWRoQvk0ic7ky/V9vZVomZXTHVkcFy4Rpn3nmSghDjHb6rlAy7JlqAc98zV/emFx2PaUAAABqPBiAAYFZIJ5Ovq4yMbpFpvSRXVzGnb43LTsqVC1+RZKEERON43iXTOPs/t5bL+SMdHCwXviqnP1XITUAn+WHWQ2uYd+jQj83sR1HnaBNMAwIA0ED1/QcQAAAtbk1//6ogFvu3EHb3lUxDTu497O7bPjKrMyfJq96t2v7SM6g6DRSLxS3HOjGbTP6pyV2t8L5Lbc6ViieFVAutxVMDpkY7nMskUuebs087aV6dtW6rOp1Xy/+vAQDoZEwAAgA6lZdO+BdVY/H7Qmj+BXK60uLeyTT/2oxXuVi1ft9xurbWJsFgqfQlmbuonmhPZTwC3Llo/k0f04AAAISMCUAAQMc5MZl8WuDcVSHs7itJ90t2fq5UujWEWmiidH/6RBcLHlBt/9FvgedOKxQKd0/rHr7/F870mZklfKquyvjyLdu3Px5GLaCDMA0IAEAImAAEAHSMgYGB7qzvXxbI3RlC82/UTJcuXr7sGTT/2pOLVT+gGid+zOm7023+SVK+WPxnyT467XBTGPN60mHUAToM04AAAISAH3wAgI6Q9f3nVsbGviu5N0mK11nuBqt6r8wPFf57586dPL7XhlKpVNKZ/l21NgA997Y9e/Zsn8m9du/de8OyJYs9SWfP5Prf8KSf7dq75556agCd6vG9e3fv3rvnK0sXLdlhTuc6qXuGpeLO6SVLFy9+6aIli2/Zs2fPY6EGBQCgRTEBCABoa9lsdmHG968y062Sq2sTBSftkrm350rFF+e35R8KKyOazwuCv5LUVcu5zunHhULhl/Xcb7BY/LDkPlZPDXPBmnquB2aBMKcBn8s0IABgNuGHHQCgbaWTydcpsO9JOkf1vtfW6VtVp98rlIq3hJEN0Vm7enVf4Lwvq8ZJUOf0p7v27CnVe9/de/dcv2zJ4jmSXjCjAs49snvPnmvqzQF0OqYBAQCYPiYAAQBtJ7sq259NJq9zctdK6qurmGnImXt1rlh8U7FYfDichIhSxfP+QlJvTSc73TRYLN4Y1r0Hi8W/NrnPz+RaMzEBCNSOaUAAAKaBXYABAO3ESyf8C53TZZIW11krkNPnzPP+Lp/P7w0hG1pANptdEYxXCrXuFuqcXj5YLP4w5Bgum/Q/b9K7pnORScP5UnHB4V8CmIYwdwr+edXpHewUDADoNDQAAQBt4cRk8mmBtEFyM3u88qk2S7ae3X07TyaZ/HvJfaimk51uzxWLZzQoSiyT9L8m6c3TuchiXjKfz5cblAnoaGsSiXTVeV/S4ddC1GPETJfly8VPSqrWnwwAgOjxCDAAoKVls9merO9fFsjdGULzb9RMly5evuw0mn+dx/f9xZL781rPd9LlDYxTzZWKbzXZ16ZzkVexUxsVCOh0W8vlfK5UPFfmLjBpuI5Svc7pikzSv9n3/XWhBQQAIEI0AAEALSvr+8+18fE7zPRh1fpOtyO7XtXYSfly8eObNm0aDyMfWkvM7D2SFtV4+j2DxeJ/NzKPpGq+VPoTSd+o9QJzwSmNiwPMCrwbEACAKdAABAC0nGw2uzDj+1eZ6VbJnVRPLSftkrm350rFl+S25QbDyojWMrBiYL7k/rLmC5w+pua8a6+6ePmyt8n0f2s629zJDc4DzApPngaU7EAdpZgGBAB0BBqAAICWkk4mX2/jlS0yrVe976p1+lbFaSBXLnxFbKzQ0UbmHrhA0rIaT38wVyx+q5F5nmzTpk3jvQvmvcmcrjvmyU5MAALhsVy5sCFmdqqYBgQAzHJsAgIAaAnZVdl+xce/YHKvqruYacjJvWewXDh2wwVtr7+/f05PLJ6XdEJNFzj9Sa5Y/HJjU002MDDQPXJg+DuSXnnks6xSdW5BsVgcaVowYHZwmUTqfLngU5KbX2ctdgoGALQdJgABAFHz0gn/IotX7g2h+RfI6UrXHT+J5t/s0RuLnadam3+ywVyxOK2NOcKyefPmsd6D8/5A0lE2oHFxr+rV9dg7gCkxDQgAmNWYAAQARObEZPJpgbQhhN19JWmzZOvZ3Xd2GRgY6B7ZPzwop9U1XeD0Z7li8aoGxzqqvr6+uXO6uv9H0tlTn+EuzJUKn2tqKGB2YRoQADDrMAEIAGi6bDbbk/X9KwK5u0No/o2a6dLFy5edRvNv9hk9cOCPa27+SeXFy5b9e0MD1WDHjh0H540c+l053TTlCc6e3eRIwGzDNCAAYNZhAhAA0FTZZPJMOzz1F8ZjjterGruA3X1np3N0TnwoWdwiKVPL+Wb6i3y5+C8NjlWzdDq9yAXBj2V6SsPPSVsGS8WnRZULmGWYBgQAzAo0AAEATZHNZhdapfIJmc5XnT9/nLTLzP1lrlz4qtjdd9ZKJ5N/6OS+XuPpO6tO6VbbXMP3/cUxcz+R7PQnLVvVaWmxWNwTWTBgllmTSKSrzvuSpHPqLDVipsvy5eInJVXrTwYAQDh4BBgA0HDpZPL1Nl7ZItN61f2XT/bVitNArlz4imj+zWaek/vbWk8207+0WvNPkorF4p6qs1dJ2vqkZRcze2ZUmYDZaGu5nM+ViufK3AWSHaijVK9zuiKT9G/2fX9daAEBAKgTDUAAQMNkV2X7s8nkdU7uGkkr6ypmGjLzfi9XKr2tWCw+HE5CtKt0Mvn7kmp8TNYemz96qGU31SgWiw8rHjtL0v2/WXPOHWGDEAANZLlyYUNcOkXSDXXW4t2AAICWQgMQANAIXjrhX2Txyn0m96o6a1XldKXrjp+UL+e/G0o6tDsnuQ/VerKZ+9w9jzwy3MhA9crlcr8OPHeuk7ZIkkkvijoTMFs9WCoVcqXii5kGBAB0Et4BCAAI1YnJ5NOCw5t81Lu7ryRtlmw9u/viydLJ5Cud3PdqPH2PxTw/n8/vbWiokGRXZfstXrlRUv+h8bElO3bsOBh1JmA2W5tMpipyX1L9TXneDQgAiBQTgACAUGSz2Z6s718RyN0dQvNv1EyXLl6+7DSaf5jITWv6T19ol+afJA1uH9xmMe9Fknb0xuNnRp0HmO2YBgQAdAomAAEAdcsmk2fa4am/k0Iod72qsQty23KDIdRCh8kkk+dK7qe1nW0HuioVf8v27Y83NlX4Mv2ZrMWrv5MvFr8QdRYAhzENCABoZzQAAQAzls1mF1ql8gmZzlf9P1Mel7n35cqFr4rdfXEEmaT/U0nn1nKuSZ/Jl4rva3CkhvF9v7cVdy4GZjmXSaTOlws+Jbn5ddb6uSc776FS6YFQkgEAcBQ0AAEAM5JOJl/v5D6renf3lSTZV6vOXczuvjiadCL9AueCm2o8faTqlOLfKQCNwDQgAKDd0AAEAExLdlW2X/HxL4Swu69kGjJ572Z3X9Qik/S/J+mVNZ1s+rdcufiuxiYCMMsxDQgAaBtsAgIAqJWXTvgXWbxyXwjNv6qcrnTd8ZNo/qEW6dXpZ6nW5p80ZnHvHxuZBwAkWa5c2BCXTpF0Q521nhvI3ZlO+JdIioWQDQCAp2ACEABwTCcmk08L5F0t2fNDKLdZsvXs7ovpyCT9ayW9rqaTTf87Vy6+o7GJAOApmAYEALQ0JgABAEeUzWZ7sr5/RSB3dwjNvxEzXbp4+bLTaP5hOtL96ZMlvbbG06sKYpc3Mg8ATIFpQABAS2MCEAAwpazvn2PSBplODKHc9arGLshtyw2GUAuzTDbpf92kP6zx9G/kSsW3NDQQABwd04AAgJZDAxAA8BTZbHahVSqfkOl81f9z4nGZe1+uXPiqJAshHmaZdDq9xlWD+1XbFEzgLDh5sFy+v9G5AOBY2CkYANBKaAACAH4rm0i9wZxdKWll/dXsq1XnLi4Wiw/XXwuzVTbpf8mk82o8/f/kSsVaHxUGgGZgGhAA0BJoAAIAlF2V7Vd8/Ash7O4rSWUz7z3s7ot6+b7vx0xbJXXVcLo52emDpdJdjc4FANPFNCAAIGpsAgIAs5uXTvgXWbxyXwjNv+r/Y+/O4+Qo6/yBf77VPUcyJJkjEJLMdFUfSYCBgARFQNcQwANvFzwBwTWACIpRieIF7vqTrICwKywEdZW468G6uh7sChKjrIqEcGY4kj6qeobEmJCZJDOZo7vr+/sj6ILMTGpSVX3N5/16+YfM08980GSOb3/qeUSwpmVk+BgO/ygIhson4W34BwC/4PCPiKrVM46Tyzj2GVC5BNBBH1s1i+C6hGn9dpFpHh1YQCIiqntsABIRTVOpWOwYlcjaAG73BYAega5MO87vA9iLCIs7OxeWItEMgCYv6wV6Kv/8EVEtYBuQiIgqgQNAIqJpJpVKNaFYvFYVq+C9XTWREVVc03Z4x42bNm0qBJGPCAASZvwGga7yuHxDxrH9/iJNRFROgZ0NqMAfItCLeDYgERFNhgNAIqJpJGmap0PkdigW+d9N7kPJuDTTl0n734vo/ySTySNQLOUAzPSyXtU4K5vP/jLkWEREgWMbkIiIyoUDQCKiaSCVSs3WYvErUKyE/6/9z0FlVSafWwdAA4hH9CJJM/4lQK/2tlp+m3Fyrwo3ERFRqNgGJCKi0PESECKiOpeKxc/RQvFpKC6G7+GfrisJjs3kc3eCwz8KQSwWawP0cq/rVeW6MPMQEZWBZvK5tVFgKYBf+dlIgJNdyMOJmLUaQCSYeEREVA/YACQiqlOphalORAv/EsDtvgCQV+hlWcf5eQB7EU0oEbM+L4Jrva2WTRknd1K4iYiIyoptQCIiCgUbgERE9cdIxKyParS4OYDhX0kEa1pGho/h8I/CtmTJklmG4KNe14uC7T8iqjdsAxIRUSjYACQiqiOpWOwYlchaQE8LYLsega5MO87vA9iL6KCSMesqCNZ4W62bM46zFHwUnYjqF9uAREQUGDYAiYjqQCqVakpZ1nUqxqMBDP9GVPGp1rkdL+Pwj8plwYIFMyFY5XW9qLEGHP4RUX1jG5CIiALDBiARUY1LmubpELkdikX+d5P7UDIuzfRl0v73IvIuGbM+AsHNnhYLtmZs+2gApXBTERFVDbYBiYjIFw4AiYhqVCqVmq3F4legWAn/X8+fg8qqTD63DmxVUZmlUqkmLRTSgHR6WS+QlWkn9/WwcxERVZslphkvQr4B4HSfW42o4pps3r4efDOFiGha4CPAREQ1KBWLn6OF4tNQXAzfwz9dVxIcm8nn7gSHf1QBOlZ6v9fhHwBnztz2b4caiIioSj3jOLmMY58BlUsAHfSxVbMIrkuY1m8XmebRgQUkIqKqxQYgEVENSSaTXVIs3hrA7b4AkFfoZbzdlyppOZZHe037GQAJb6+QKzJO7muhhiIiqgFsAxIR0VRwAEhEVBuMRMy6QgTXApjjc6+SCK7fPzb2xW3btu0PIhzRoUrG4hdA1Gujb1tJkLRteyTUUEREtYNnAxIRkSccABIRVblULHaMSmRtALf7AtDNAlzM232pShgp0+pR4Chvy+WTGSd3fbiRiIhqD9uARER0MBwAEhFVqVQq1YRi8VpVrALQ4HO7EVVc03Z4x42bNm0qBJGPyK9ULP5OFf2+x+U7W0aG44/v2DEUaigiotrFNiAREU0oUukANvWvVgAAIABJREFURET0UknTPB2qd0PxFvj+Wi33iVs6O9Ob/+n27dvdQAIS+Sftra3/BuBIj8uve/rZvvtCTUREVOP69wxsOqK19Xsu5DgA8UPdR4BOhfxd25zWYv+egQfAS8KIiGoeG4BERFWks7OzvSkSuQmQ8+D/a/RzUFmVyefWgT+4U5VJdcXfoob+l8flA9IQNdPp9N5QQxER1Q+2AYmI6EWMSgcgIqIDUrH4OU2R6GZAzofv4Z+ucw3pzuRzd4LDP6pGop/xvli/xuEfEdGUaCafWxsFlgJY72cjAU52IQ8nYtZq8AkyIqKaxQYgEVGFJZPJLikWb1XImwLYLq/Qy7KO8/MA9iIKRTwWP8sQvcfj8n0NxUL86WeffS7UUERE9YttQCIiYgOQiKiCjETM+iiKpScCGP6VRLBmuDB2NId/VO2MqbX/bufwj4jIF7YBiYiIDUAiokpIxWLHqETWAnpaANs9LNCVacd5OIC9iEIV74q/2jD0Nx6XD7uGxHO53I5QQxERTR9sAxIRTVNsABIRlVEqlWpKWdZ1KsajAQz/RlTxqS7HOpnDP6oVU2z/fYPDPyKiQLENSEQ0TbEBSERUJknTPB0it0OxyP9ucp+4xUvSvb0Z/3sRlUeiK/FyMdwHPS4fQzSSymQyvaGGIiKavgJrA4riQcC9KJ3PPxlUOCIiChYbgEREIevs7GxPmuadgNwXwPDvOai8P+PkzuLwj2qNiDuV9t+dHP4REYUqsDagCl6hYmxiG5CIqHqxAUhEFKJULH6uit4MYL7/3XSdaxif5CORVIvi8fhSw9VH4elnDy1GVJdsyeezoQcjIiKAbUAiorrHBiARUQiSyWRXyjR/qqI/gP/hX16hb8o4zgUc/lGtMkp6NTy+8ajA9zj8IyIqK83kc2tLIseBbUAiorrEBiARUbCMRMy6QgTXApjjc6+SCK7fPzb2xW3btu0PIhxRJcTj8SWGq0/C2xuPrgE9lrdKEhFVDNuARER1iANAIqKApGKxY1SMOwCcGsB2Dwt0JW/3pXqQjFnfguD9XtYK5IdpJ3dO2JmIiGhylmVZEcU3AKzwudWIKq7J5u3rAZQCiEZERIeAA0AiIp9SqVQTisVrVbEKQIPP7UZUcU0sb92wARuKQeQjqqRkZzKFSOlpeHsMTA3BiVtt+9GwcxERkSdsAxIR1QkOAImIfEia5ukQuT2A230B6C/FdS/l7b5UT5Ix6zYILvG2Wn6ecXJvCjcRERFNVZBtQBGsmdPR8aVNmzYVgshGRETecABIRHQIOjs725sikZsAOQ/+v5Y+B5VVmXxuHQANIB5RVUgkEjEpuWl4bMYagldute0/hByLiIgOTXBtQOAxEVzIxjcRUfnwFmAioilKxeLnNkWiPYCcD9/DP13nGtKdyefuBId/VGfEdafwWLzcx+EfEVFVC+6mYOB4V/FgyrKuW7Zsmd/jU4iIyAM2AImIPEomk11SLN6qkCAeUcwr9ENZx7k7gL2Iqo5pmvOjkCyAZm+v0BUZx/lVqKGIiCgobAMSEdUYNgCJiA7OSMSsj6JYeiKA4V9JBGuGC2NHc/hH9axB5KPwPvz7Xw7/iIhqCtuAREQ1hg1AIqJJpGKxbhVjLYBTA9juYYF+MO04jwSwF1HVWrxg8dxiw5gtQIu3V+jZGcf573BTERFRSNgGJCKqAWwAEhGNI5VKNaUs6zoV4xH4HP4pMKSKK7sc62QO/2g6cBvHLvc8/BNs5PCPiKimsQ1IRFQD2AAkIvorSdNcAeB2QFL+d9Nfiutemu7tzfjfi6j6WZbVGlHYAOZ4e4W+I+M4PwozExERlQ3bgEREVYoDQCKi53V2drY3RSI3AXIe/H99fA4qqzL53Drwdl+aRlKW9WlV/D9PiwVPZGz7ePDvCBFRXbEsy4oovgFghc+tCiK4cU5Hx+c2bdpUCCIbEdF0xQEgERGAZCx+AUTXADjS/266zjWMT+ZyuR3+9yKqHd2Hdx82MnPIBtDhZb0K3pu17e+Gm4qIiCqEbUAioirCASARTWvJZLJLisVbA7jdFwAchV7G231pukpZ1sdUcaPH5c9kHLsbQCnMTEREVFkH2oDydUDP8LkV24BERD5wAEhE05WRiFlXiOCLAGb73Kskguv3j419cdu2bfuDCEdUazo7O2c0RaJZeGzRquADWdv+15BjERFRdXi+DajXA5jlayO2AYmIDglvASaiaScVi3UnTet+EdwE38M/2STQl6dt+1Mc/tF01hiNXgivwz8g19bR8Z1wExERURV5/qZgLAXkPl8b8aZgIqJDwgYgEU0bqVSqCcXitapYBcDXD4wKDEHxmVjeumUDNhQDikhUk7q7uxtHBoe2Aoh5Wa+Cy7K2/S8hxyIiourENiARUQVwAEhE00LSNFcAuB2QlP/d9Jfiupeme3sz/vciqn0Jy7pIFN/0uPxZaYgm0+n0aKihiIioqvFsQCKi8uIAkIjqWmdnZ3tTJHITIOfB99c83QU1Pp7J59YB0CDyEdW65Vge7TXtpwEkvawXwaq0bX815FhERFQb2AYkIiqTSKUDEBGFJRmLXxA1jB8Bchr8D//WuYbx9qyT+10g4YjqhGHhXQKs9Lj8T8OFsfP37dvHhgYREQEA+vcMbJrT1vpdA3IcgISPrY5U4O862lpb4snkr7dv3+4GlZGIqB6wAUhEdSeZTHZJsXirQt4UwHaOQi/LOs7dAexFVG+MpGk9AeAYL4tFcHXatr8cciYiIqpNbAMSEYWItwATUT2JJGLWR1EsbQ5g+FcSwZrhwtgxHP4RjS9pmm+Fx+EfgH5Eo7eEmYeIiGoabwomIgoRG4BEVBdSsVi3irEWwKn+d5NNAndl2nEe8b8XUd2SpGltAvAyT4sF16Zt+5pwIxERUZ1gG5CIKGAcABJRTUulUk0oFq9VxSoAvt7hVWAIis/E8tYtG7ChGFBEorqUNM03AOK1HbtvtFS0+vr6docaioiI6gpvCiYiCg4HgERUs5KmuQLA7YCk/O+mvxTXvTTd25vxvxdR/Uua1u8BvNLLWhGsSdv2p0KORERE9YltQCKiAHAASEQ156iFCzsK0ehXATkP/m/33QU1Pp7J59YB0CDyEdW7pGmeDsh6j8v3IxqJZzKZP4UaioiI6hrbgERE/vASECKqKclY/IJCtGEzIOfD//BvnWsYx2byuTvB4R/RFBif8bxUcAeHf0RE5Jdt23bGyZ0FlUsA7POxVYMqVu/Z9dzGRZZ1QlD5iIiqHRuARFQTEolEzCiVbgngdl8AcBR6GW/3JZq6ZCx2GsT4X4/LR6UYTaWfTfeFGoqIiKYVtgGJiKaODUAiqnaRRMxajZL7ZADDv5II1gwXxo7h8I/oEEnk057XKr7F4R8REQUtjDZgyjQ93WpPRFSr2AAkoqqVisW6VYy1AE71v5tsErgr047ziP+9iKanRFfiJDHcjd5WazEKLH7GcXLhpiIioumMbUAiIm/YACSiqmNZVnPKsq5TMR6Bz+GfAkOquLLLMV/J4R+RP4ah3m/yVfk3Dv+IiChsbAMSEXnDBiARVZWkaa4AcDsgKb97ieBew3Uv3ZLPZwOIRjStJbuSx8IoPQ5vPzuUUIoclenLpMPORURE9GdsAxIRTYwDQCKqCkctXNhRiEa/Csh58H+77y5R47J0PndXIOGICAnTXCcH/n4enOL7mbz97pAjERERjUeSsfhKiF4PYJavjYDHAL2IT5EQUT3gAJCIKi4Zi18A0TUAjvS/m65zDeOTuVxuh/+9iAgAEp2JRRJxnwIQ8bDcFXWXpvP5nrBzERERTYRtQCKiF+MAkIgqJpFIxIxS6ZYAbvcFAEehl/F2X6LgJU3zDkA+6Gmx4r8yefttIUciIiLygm1AIqLncQBIRJUQScSsT0DwOQFafO5VEsH1+8fGvrht27b9gaQjor+Ix+Om4epWAA0elqtAT0o7zsNh5yIiIvKKbUAiIg4AiajMUrFYt4pxB4BT/O+mDwlwMd+JJQpP0jT/GZDLPS1W/CKTt18fciQiIqJDwTYgEU1rHAASUVlYltUcBa5RxSp4axJNSIEhKD4Ty1u3bMCGYkARieivLOnqWlA0IhkAzV7WC/TUtOP8PuRYREREhyzoNmBTS8vne3p6xgIJR0QUIg4AiSh0iVjsDBG5DZCU371EcK/hupduyeezQWQjooklTfMrgHzC4/JfZxx7eZh5iIiIAhJYGxDA4wK9kG1AIqp2HAASUWiOWriwoxCNfhWQ8+D7643uEjUuS+dzdwUSjogmlUqlDncLxZzXczpdldfm8rl7w85FREQUlAPn3LpfB+RMn1uxDUhEVc+odAAiqk/JWPyCQrRhMyDnw//wbx2i0W4O/4jKRwuFj0zhkp7fcfhHRES1JpfLORnHeS1ULgGwz8dWDapYPTI4tDFlmi8LKh8RUZDYACSiQCUSiZiU9FZA3xjAdg6gH8o4zn8HsBcReWRZVmtE4QCY7WW9uPLWdG/uJyHHIiIiCg3bgERU79gAJKKgRBIxazVK7pMBDP9KIlgzXBg7hsM/ovKLqFwOj8M/AA+ne3M/DTMPERFR2NgGJKJ6xwYgEfmWisW6VYw7AJzifzd9yBBZudW2H/W/FxFN1ZIlS2YVR0ZzADq8rBeVd6XzuR+EHIuIiKhs2AYkonrEASARHTLLspqjwDWqWAWgwc9eCgxB8ZlY3rplAzYUA4pIRFOUNOOfAPQrHpf3ZBx7KQA3zExEREQVwJuCiaiucABIRIckEYudISK3AZLyu5cI7jVc99It+Xw2iGxEdGg6OztnNEWiOQDzPL1A5f2ZfO7OcFMRERFVDtuARFQvOAAkoik5auHCjkI0+lVAzoP/2313iRqX8XZfouqQNOOXA/rPnhYLtmZs+2gApXBTERERVRzbgERU83gJCBF5lozFLyhEGzYDcj78D//WIRrt5vCPqDp0d3c3QvUqzy9w5Xpw+EdERNODZvK5ta4hxwH6S597LVXIH1KWdV13d3djIOmIiDxgA5CIDiqRSMSkpLcGcLsvADiAfoi3+xJVl5QZ/6BC7/C43Gmd27Fo06ZNhVBDERERVR+2AYmoJrEBSESTiSRi1mopuU8FMPwriWDNcGHsGA7/iKrLciyPKvTTnl+guJHDPyIimqbYBiSimsQGINW1VFf8Lene3E8qnaMWJbuSx8IorQVwiv/d9CFDZOVW237U/15EFLRULH6eiq7zuHx7SZCwbXsk1FBERETVj21AIqoZbABS3ers7Gx3Db260jlqjWVZzSnLug5G6WH4HP4pMKSKK7uc+Ckc/hFVLUNlCl8rFTdx+EdERASAbUAiqiFsAFLdSsbiF0D0m837W1p7dvYMVjpPLUjEYmeIGLcDSPrdSwT3Gq576ZZ8PhtANCIKSSoWP0dFPV7Go7taRkasx3fsGAo3FRERUc1hG5CIqhobgFS/RN8OIDLaMnRSpaNUu6MWLuxImuadIsa98D38012i8s60bb+Wwz+iqicQ/azXxaryzxz+ERERjYttQCKqahwAUl1aOm9eC4DXPf9fAzjDrn4lY/ELCtGGHkDOh99WsGDtaKm0JJ3PeWwTEVElJWKJNypwvMflA4gaN4caiIiIqMblcjkn4zivhcolAPb52KpBFatHBoc2pkzzZUHlI6LpiwNAqkuDzc2vBzADANTFyRWOU5USiUQsacZ/BtFvA5jnczsb0LMztn1JX1/f7gDiEVE5iOu5/QfIrdlsdk94YYiIiOoG24BEVHU4AKS6JCIX/N9/0dPA8y5fKJKIWaul5D4F6Bt97lUSwZrhwlh3xnH+O5B0RFQWiVjiTIHXN0h0sKE4dmO4iYiIiOoL24BEVE04FKG6s3jB4rmlhrFtABr+/M+0ZCzO9mW3VjBWVUiZ5okKuQPAif5304cMkZW83ZeoNiVN61cAlntZq5Abs07u4+EmIiIiql/xeNw0XPfrgJzpc6uCCG5samn5fE9Pz1gg4YhoWmADkOpOsXHsXLxg+AcAYui0PgfQsqzmlGVdp8Af4HP4p8CQKq7scuKncPhHVJviXfFXw+PwD8CwK/qVEOMQERHVPbYBiajSOACkuiMq73vpP52+A8BELHFmRLFZFasBifrZSxX3RNVdms3bN2/AhmJQGYmovAxDr/a6ViH/atv2H8PMQ0RENE3wbEAiqhg+Akx15UC1XnN46Z/tRzKOHcBjr7XjqIULOwrR6FcBOQ++/67rLlHjMt7uS1T7El2Jl4vhPuhx+RiikVQmk+kNNRQREdH0I8lYfCVErwcwy+dejwv0orTjPBxEMCKqT2wAUl0xXPeDGH/YtXTJkiV+v7HWjGQsfkEh2tADyPnwO/wTrB0tlZZw+EdUH8RwPbf/BPgOh39EREShCLoN+ADbgEQ0GTYAqW4sx/Jor2nnAcwff4WekXGc9WUNVWaJRCImJb01gNt9AcCG4EMZ2/6fAPYioioQj8eXGq4+Ck/f/7UorntUurc3E3owIiKi6Y1tQCIKHRuAVDf6Ys4bMOHwDwCMU8sWpvwiiZi1WkruUwEM/0oiWDNcGOvm8I+ovhiufhoe3/wTyA84/CMiIioLtgGJKHRsAFLdSFjWT0Tx5kmW3J1x7CCacVUlZZonKuQO+Lzd9wB9yBBZydt9iepPPB5fYrjaAyDiYblrQI/d6jhPhZ2LiIiIXoRtQCIKBRuAVBcWd3YuFNU3TLZGgFeijobelmU1pyzrOgX+AN/DPx1UxZVdTvwUDv+I6pNR0k/B2/APAH7M4R8REVFFsA1IRKGom2EITW8p07xaIV862DqNGEuy2eyWcmQKUyKWOFPEvQ1A0u9eqrgnCvdDW/L5bADRiKgKLTHNeBHyDIAGD8vVEJzINwOIiIgqjm1AIgoMG4BU87q7uxsVcrmXteK6NX0O4FELF3YkTfNOEfce+B/+7RSVd2bz9us4/COqb0WVq+Bt+AcA/83hHxERUVVgG5CIAsMBINW8kaGhd2DSyz9e5JQws4QpGYtfUIg29AByPvy2dwVrR0vFo9L53F3BpCOiarW4s3MhBBd5XS+Cvw8zDxEREU1NLpdzMo7zWqhcAmCfj60aVLF6ZHBoY8o0Azg/nIhqCQeAVPsUV0xhdc0NAOPxuJk0rZ9D9NsA5vnczobgDRnbvqSvr293EPmIqLoVI9GPA2jyuHx92rYfCDMPERERHRK2AYnIF54BSDUt0ZV4uRjug1N4iasRoz2bze4JLVRwIomY9QkRfB7ATJ97lURw/UixeG1fX99wEOGIqPolk8kjUCzl4PlriJ6RcZz1oYYiIiIiv3g2IBFNGRuAVNNE3A9P8SWGFvUVoYQJUMo0T0ya1kYRXAe/wz/BRkNwUtq2P8XhH9H0ooXSlfA+/PtfDv+IiIhqwl/agCK41+debAMSTRMcAFLNisfj8yB411RfZwhODiNPEJbOm9eStKybFfgDgJf5200HVXFll22dygP9iaafWCzWJgLPb5Io8OUw8xAREVGwcrmck7bt1z1/NuBeH1vxbECiaYADQKpZkZJeCaB56q/U0wIPE4BELHHmUPOMx6D4CCBRP3up4p4osDSbt2/egA3FoDISUe2IwvgIgNneVutDWce5O9RAREREFIY/twGXsg1IRJPhGYBUkxKJxBwpuXl4/uX2RQYyjt0BwA041iFZvGDx3FLD6I2AnAf/fyd3isqHebsv0fS2ZMmSWaWRUVuBdi/rFfq3Wcf5z7BzERERUaj+fDbgV3Bovye9EM8GJKozbABSTZJS6YM49G9qralY7Kgg8xyqZCx+QalhbDMg58Pv8E+wtqDuEg7/iKgwPHqZ1+EfBE9kHedHIUciIiKi8LENSEQTYgOQak53d3fjyOBQFsDCQ91DoB9MO843Aow1JfF43DRcvRXA2QFst0UEl6Rte0MAexFRjVuwYMHMGQ2NOQBHeFmv0PdlHeffQ45FRERE5cU2IBG9CBuAVHOGBwfPgY/hHwAoKnYRSCQRs1Ybrj4J/8O/kgjWjJaKJ3D4R0R/1hxtXAmPwz8AW7KO8/0w8xAREVFFsA1IRC/CBiDVGiNlWj0K+H2E98mMY3cHksijZCy2DGLcAd+3+wIQbHRFVuZyucf8JyOiepFKpZq0UEgD0ullvUL/Lus43ww7FxEREVVUcG1AwROieiHbgES1hw1AqilJyzo3gOEfABwdi8XaAtjnoJbOm9eStKybIfIAfA//dFAVV3bZ1qkc/hHRX9Ni8UKvwz8AdtvcuevCzENERERVIbg2oOI4Bf7ANiBR7WEDkGqJkTStJwAcE8hugjdkbPt/AtlrAolY4kwR9zYASb97qeKeBtFLn3GcXADRiKjOLMfyaN60twgQ97JeoJenHeeWsHMRERFRdUnF4ueq6O0A/BUi2AYkqilsAFLNSJjm2xDU8A+AAKcEtddfW7xg8dykad4p4t4D/8O/naLyzmzefh2Hf0Q0kV7Lfp/X4R+AbWho+HqogYiIiKgqpfO5u4rQbhX81NdGbAMS1RQOAKlWCCCfC3jPUAaAyVj8glLD2GZAzoe/lq1CsLag7pJ0PndXUPmIqC5FoPpZ78v1xnQ6PRpeHCIiIqpmjuNsz9r2W0TlnQD6D30niapi9cjQ0EMp0zwxsIBEFDg+Akw1IWmabwDk7oC3Hcg4dgcAN4jN4vG4abh6K/zf7gsAW0RwCW/3JSIvkpb1Lii+53H5zpaR4fjjO3YMhRqKiIiIaoJpmvMjIreL4s3+dtKiiNzQ1NLy+Z6enrFg0hFRUNgApFpgQGRNCPu2JruSQTxSHEnErNWGq0/C9/BPiyJYM1oqnsDhHxF5ZEAxhYa03szhHxEREf0Z24BE0wMHgFT1Eqb5biiOC2VzcX09BpyMxZYlTWujCK4DMNNfFmx0DeOktG1/qq+vb9jXXkQ0baQs680Auj0u75eGhn8OMw8RERHVJp4NSFTfOACkqnbgG4b8Q1j7i+ghDQCXzpvXkrSsmyHyAICX+Uuhg6q4ssu2Ts3lco/524uIphlRxee9L9evpdPpveHFISIiolrGNiBR/eIAkKra8NDQB6Zwq+WUKXDqVF+TiCXOHGqe8RgUHwEk6jPAL6LA0mzevnkDNhR97UVE007Ksl4LwOsP1ftGS6WbwsxDRERE9YFtQKL6w0tAqGotWLBg5oyGxjSA+SF+Go0UGo/Ysm3LroMtXLxg8dxSw+iNgJwH/393dorKh3m7LxH5kTSt38Hzjeb6lYzjXBVqICIiIqo7qVj8XBW9HUCbr40ET4jqhWnHeTiYZEQ0FWwAUtWaEW28HOEO/wBAig2jrzjYomQsfkGpYWwzIOfD3/BPIVhbUHcJh39E5EfKsl4Dz8M/DLuGcUOYeYiIiKg+sQ1IVB84AKSqFIvF2iD4VDk+l0zyC3Q8HjeTpvVziH4bwDyfn2qLCE7P2PYl+Xzex3kaREQAgM94X6pfz+VyO8KLQkRERPWMZwMS1T4OAKkqNYisgt+KuWfGeAPASCJmrTZcfRLA2T4/QUEE146WiiekbfvXPvciIkLSNE9VxVkel49JseEfQw1ERERE0wLbgES1i2cAUtWJx+PzxNWMAC1l+pT7Mo7dBqAEAMlYbBnEuAO+b/cFINjoiqzk7b5EFKSEZf1EFG/2tlrvyDjOxeEmIiIioumGZwMS1RY2AKnqGKpXl3H4BwCz4vH4sUvnzWtJWtbNEHkAvod/OqiKK7ts61QO/4goSMlYbNkUhn/FiOp14SYiIiKi6YhtQKLawgYgVZUlphkvQp4GUNYv/K7gnwzFmwAkfG+m+EVU9EPPOE7OfzIiohdLWtYPoDjX22pdl3GcC8JNRERERNNdkG1AuO5FmXx+UzDJiOjPOACkqpKMWd+C4P2VznGIdorKh3m7LxGFJdmVPBZG6TF4a/C7JUG3bdtPh52LiIiIyDTN+RGR270/qTARLYrIDU0tLZ/v6ekZCyYdEfERYKoai+Lxv6nR4Z9CsLag7hIO/4goVEbxKnj93i34IYd/REREVC5h3BScjMWWBRaQaJpjA5CqRSRpWhsRxMUb5bVFBBfzdl8iCluiM7FIIu5TACIelqtryMt4BikRERFVAtuARNWHDUCqCslY/AOoreFfQQTXjpaKJ3D4R0TlIJHSJ+Ft+AcV/IzDPyIiIqoUtgGJqg8bgFRxlmW1RhRbABxe6SyeCDa6Iiv5yzURlUs8HjcNV7cCaPCy3jXk5Fwu92DIsYiIiIgOim1AourABiBVXET1atTG8G8EkM83t7S8isM/Iionw3U/Do/DPxHcy+EfERERVQu2AYmqAxuAVFEHbrQsPgJItNJZJqX4RVT0Q884Tq7SUYhoelnS1bWgaEQyAJq9rBfBch5NQERERNWIbUCiymEDkCrLcG+q8uHfTlF5ZyZvv57DPyKqhKJhXAmPwz8I7ufwj4iIiKoV24BElcMBIFVMyrLeCugZlc4xEYUOieD8dD53V6WzENH0lEqlDlfIZV7XC/ClMPMQERERBSGdz91VhHZD8BNfGymOg8gDKcu6rru7uzGgeER1iQNAqgjLsppVcWOlc0xGIC2q+rNEzFpd6SxEND1poXCFAC2eFgs2pm37FyFHIiIiIgqE4zjbM7b9VlF5pwC7D30ntgGJvOAAkCoiCnwMQKLSOQ5OoiK4LmlaP0okEnMqnYaIpg/LsloB+YjX9Wz/ERERUS1K53N3FaDHsg1IFC5eAkJl9/yB9k8BmF3pLFMhwGNaipyT6cukK52FiOpfyjSvVojXod7jGcc+AYCGmYmIiIgoTKlY/FyI3qZAu6+NBE/AdS/K5PObAopGVPPYAKSyKxqRO1Bjwz8AUOB4RIqPJCzrPZXOQkT1rfvw7sMUssrzCwT/Dxz+ERERUY1jG5AoPGwAUlklTfPtgPxnpXP4Jljb3NJyBa+cJ6IwpExzlUJu8Lj8mYwdK/7GAAAgAElEQVRjHwPADTMTERERUTmxDUgULA4AqWwSicQcKblPAZhf6SzBkE1RuOc+4zi5SichovrR2dk5oykSzQI40tMLBBdmbPvb4aYiIiIiKj/TNOdHRW6D4i3+dtKiiNzQ1NLyeZY4aLriI8BUNuK616Juhn8AoMuKkI1Jy3p9pZMQUf1ojkQugtfhHzSdse3vhBqIiIiIqEICvyl4cHATbwqm6SpS6QA0PaQs65VQ3I76a53OBPC+jrbWGbsHBtaDZ3ARkQ/d3d2NxdHCDyDwduu4yNX9AwMbQ45FREREVFG79ww8Oat1zjpDZBGAJYe+kxwBwQc62tpa5i9c+JudO3eWAgtJVOXYAKTQLcfyqB4Y/tXrnzdRxeqkad0bj8fnVToMEdWu4cHB8yDo8rg839rR8c1QAxERERFVCbYBifyp14EMVZE+y74CwNJK5yiDFYbrPpSyrFdWOggR1Z7lWB4VyNVe16vixk2bNhXCzERERERUbQK7KRhyLG8Kpumk3h7HpCqzxDTjRchmHHhUdroYVcXqbN6+udJBiKh2JEzzvQL5N4/Lt5cECdu2R0INRURERFTFArspGLoZqhfypmCqZ2wAUqiKkFswvYZ/ANAkgptSpvVvS+fNa6l0GCKqCYZAPut1sSpu5vCPiIiIpju2AYm8YwOQQpMwzXcI5IeVzlFJAjwNdc9J5/M9lc5CRNVral8vdVfLyIj1+I4dQ+GmIiIiIqodbAMSTY4NQApFKpWaLZCvVjpHpSlwlIpxfyoWf3OlsxBR1RJAPud5scgtHP4RERERvRjbgESTYwOQQpEwzXUCOa/SOaqKYG1zS8sVPT09Y5WOQkTVI2GaZwvk5x6X79GIYWaz2T2hhiIiIiKqYUG2AdWNXJTtzT4UTDKiymEDkAKXisXP4fBvHIqLRwYHfxuPx81KRyGi6iFTaf8p/oXDPyIiIqLJBdkGFKP0+5RlXZdKpZqCSUdUGWwAUqDi8fg8w3U3AzK30lmql+4Sw3hfOpe7p9JJiKiykqa5ApD7vK3WwUihKb5l25Zd4aYiIiIiqh9sAxIdwAYgBcoo6e0c/h2MzFVX705Z1jXg30GiaU4+43mlytc5/CMiIiKaGrYBiQ5gA5ACk4rFz1PRdZXOUWPuHi0Vz+/r69td6SBEVF6JWOJVIu79HpePFKEJx3G2hxqKiIiIqI6xDUjTGdtHFIhkMtmlol+rdI4adHaTEX10kWWdXOkgRFReIu6nPS9WfIvDPyIiIiJ/2Aak6YwDQAqCoFj8JoA5lQ5SkwRdruLXiZj10UpHIaLySHQlTgJwtsflYxo1vhxmHiIiIqLpwnGc7RnbfquovFMAH09iSVQVq7VQeOj5n+2IqhoHgORb0rIuBuTMSueocU0iuClhmuuWzpvXUukwRBQuMabU/vv3bDabDzEOERER0bTDNiBNNzwDkHxJdiZTGik9KgCHVsF5StQ9J53PP1npIEQUvERn4jiJuI/B2/fgEkqRozJ9mXTYuYiIiIimK54NSNMBG4Dkh4FI6XYO/wJ3NMS4P2GaXh8PJKIaYkTcT8H7G3B3cfhHREREFC62AWk6YAOQDlnSjH8O0C9WOkddE6xt7ei4fNOmTYVKRyEi/xKJxGIpuU8CiHhY7oq6x7ENTERERFQ+bANSveIAkA5JPB5/heHq/wJoqHSWAIwCGASwR4G9Ah0EZBCCfVAdgIgCgKoMGqKTDuJUJQrRWaoSEdHZomIo3DmAIYC2KdAmQBuAVu/x9JfS0PDedDq908e/IxFVgZRpfUOBD3hc/uOMY7891EBERERE9BKWZR0ZcXEbBG/1t5MWReQGRKNfSKfTo8GkIzo0HADSlKVSqdlaKD4MIFnpLH9lP4CdALYLdBcgOxWyXUV3QnWnYRg71XUHXcMYbCiVBkeA/sMPP3ywQu066ezsbGsWaYNhHAHXOFwjOl9dzIPIEQJdAEhMoPED7zxpnwDvTDvO7yuQlYgCYFmWFVFsgbc3TlSgy9KO80jYuYiIiIhofGwDUj3hAJCmLGXGv6PQ95XvM2oRkGcB2BA4AuSg0gcXf4Lh7oTr/mnm2NgfH9+xY6h8mcrHsqzWqGocanQWDb3Xtu2RSmcioqlLmPFbBHqZx+X/k3HsN4QaiIiIiIgOim1AqhccANKUJGPxlRBdG/C2+wDZAtGsAFnXxXYDsk1RyhaAbD6f7w/48xERldXizs6FpUg0A8DTYdACPZWNXyIiIqLqwTYg1ToOAMmzRGdikURKDwNy2KHtoIMAngbwlIg8papPayTSE8vGshuwoRhkViKiapIw4zcIdJXH5Rsyjn16qIGIiIiIaMrYBqRaxgFgSLq7uxv37dvXEolEZotIkxSLswzDiLquW4TbsEdURsYiY0OJfGJfLQy/Ojs7ZzRFIg8CcuxBliqAnECfhEiPuvIkUOphk4+Iqt3SefNaxqLRZjcSmeMCMxRoNgwjCmBUXHdvIRIZUtVR27YHprJvMpk8AsVSDsBML+tVjbOy+ewvD+XfgWpXZ2fnjL6+vuFK5yCqJZZltQJobnTdmWoYswE0ua5bFGDEAIaNUmlPY7E4Uq/HxBCFjd+bJsY24NQtx/JoNpad1VhqbFHRZhiFOX+ekWg0uk9VR0ul0t5Zs2YN9fT0jFU6bz3iANC/SDweX2aUcALEXQSVRSJYokACQKOH1+8XYKsL3QqVrWJgC0qRhzK9mR4cGKZVhaQZvx7Qj4/zIRvAI4A8rHAfKQEPO46zvczxiIg86z68+7DRw/afCtVuKBYpdBEgiwDE4On7ou4CZCsUW0R0C9TYWhD3fyf62pc0418C9Gpv6eS3GSf3Ku//NlQPUpZ1Takk9+V6c/dXOgtRNVrS1bWgJNHTVNzFUFkEwRIAiwB0eHi5C6AX0K0C2eoKthgiTzYNzvxdz86ewXCTE9W2BQsWzJwRbbxluDj24W3btu2vdJ5qwzbghCTRmTgWUfckuFgE0UUGZJECiwHM8PD6MQAZKLZAdCvU2OJG8Fgul9sEoBRu9PrGAeDUHfjDbLgrYOAMUfwNgDkhfJ4dAH4FlfWixfXp3t5MCJ/Dk5RlvVUV3wXkYYhugiubBKVNTbNmbeVknoiqXSqVakKxeIqqrgCMFYC+At5u4p2qpxSyHnDXj5VKG/r6+nbHYrG2BjFsALO9bKBqvDmbz/4shGxUhQ6066PfVODkrGMnUUVv/BFV0lELF3aMRaPLAWOFAV2hwFEhfJoCIA+K6H0A1iMafaBOfvEmClTSsr6tiqWIGG/NZrP5SuepRmwDAsnOZAqGuwLQFRCcDuCIED7NHgh+rS7WwzXWZ/uym8GfnaaEA0CPkp3JlERL56nifBxo95WVAo8agjuLwHdt2/5jOT93PB5fMnNw5rN8l5SIaojEu+KvMgz3AkDORThv1ExCi4DxCwj2Q/Vcb6+RTRknd1K4uahaxOPxeYarPwJwCiBfyji5z1Y6E1EldXZ2zmiMRt8mivMAfS0g0TJHGAD0LtXIndl89rfgL5VEAIB4LH6WIXoPgO3qGm/N9mY3VjpTNZqObUDTNOdHgfcCcgGApeVPoGlV+Y6hpe9UsjBVSzgAnIRlWc0RVy6A6PsBnILq+N+rBOAeUflWOp/7IViBJSL6iyVdXQuKhvEhhbxPgHil80yFqJybzuf+o9I5KHyJzsRxEin9JyApAIAbOS7Tm9lc4VhEFbHIsk5WxSUK/C08tqXDpgfOs/5OEfgXHm1D091yLI/2mnYvgCMBHVTgwqzj/LDSuarVNGgDRpKWdQ4UFwI4C0CkwnkAQAH5HRR3lgy907btkUoHqlbVMNCqOt2Hdx82MnPwEkA+AeBIP3tptAkaaUCpsQUAIKowCvshxVFIqeA36hYIvtza0fFvmzZt8r0ZEVGtsizLiiquUuADAJr87OU2zIBGGuE2NAMAxC3CKI7CGNsPqBtE3HHo5ozjLAUbJ3UvGYuvhOg/4y9/TvWhjOO8vKKhiCogZVmvAfAZVZzlayMx4DbOhBttghoHSoNGYQRSGoNR8H13wYhCvqkG/jGXyzl+NyOqVUnT/MrzvxsfIFjb3NJyBY+DGl89tgGXLVvW0L9r1/ki8ikoFvnZSyMN0GgT3IaZUDkwkoqMDUFKY5Ci7z9S2wV6/cyRkdt5AdRLcQD4AqlUqsktFj8mqh8HZK7nFxoGRtvjGGu3MDZnIcZaO1Fo7UThsMMBMSZ8mbglNOzdjoaBXjTueRaNA31o3O2gcaAX0Cn9DmhDcG3Gtr8N/vJIRNPIkq6uBSUj8g8KnIcpnOvnNjRj9PDFGGtdiLHWLhTmLMRYWxdKzZM/KWwURtCw51k09veicU8fGgaeRfOurYjs93fJuaicn87nvuNrE6pqB877i9wOyPkv/OequDKbt2+uVC6ickua5qkA1gAypQuPijPbMTo3hcLzX7fHWjtRmLPwL2/WTCQyvAeNA70HvnYP9KKxvw9Nu7bCKEypIFJQyJ0luJ9jI5Cmo3g8frzh6qMv/qf6kEYif8tzASdWJ21AI2XGP6DQzwIwPb9KBGOtnQdmJK1df/mZuzjrSKgxSWlQXTTs+9MLft5+Fo39Dpp25wB3Sm/E74Ti+uZZLTdxUP1/OAB8XsqyXqeKf8KBm2kOaqzdwvD8bgzPPw7DR3bDbZwZWJbI8B7M2P7E8//ZjIa9no/8+71AP5x2nEcCC0NEVIWWLVvWMLBr10cA+QKAWQdbr5EGjBxxFIbnH4vh+cdi9PBFk//wMUWNA30HvmZv24zmHT2IjOzz/FoBsmnHXgwe6VC3nn80/fvjDDxKRWgXBwo0HSSTySNQKK2B4P3w8DtIqXkWRo488DV7/4LjUJizMLAs4pbQtHMrZmx7AjP+uBnNO56GuEUvL92rgi/EbOtrG7DB0wuI6kXStHoAHPPif6p9InJu2rYfqEioGlDLbcBEV+IkQ9xbVPAKL+sLc+Y//7P2cRief+xB31ifCmNsCDP+2PP8z9s9aOz3XMp+RtW4PJvP/jKwMDVs2g8AE4lETEruVwG842BrSzNasS/1GuxbtAJjrZ1lSHdA884tmLV1PQ7L/vbAI2iTKynkNlf0s7ZtD5QjHxFROaUs6zWquAVA98HWjrbHsW/RCgwmX41S80HnhIEQt4iZ+Y2YvfVXmPnsIwd9t1KAIVfwiaxtrwUQ1jPGVCFJy3o3FLdh/Ito/jvj2GeXOxNRmUVSpnmpQv4BQOtkC9UwMLzwZdi7eAX2d530l0d6Qw84sg+HZX6D2VvXo3G3ffAXCJ5wS/LhXG/u/tDDEVWJZMy6CoI143yoJIJ/SNv234NvZk6oltqAnZ2d7U1G9EsQXAxg4kcaAbiNLRhMvAp7F6/A6NxUWJFeonGgF7O2rses9G8QGfYw9hDcJYXoqvSz6b7w01WvaT0ATMXi56joN3CQA4dHjjwaA8e+Dfs7T4Qak/75D5UUx3BY7ndo3fxfaOw/WNNa+wC8K+M4vytHNiKisB04hDr3ZUA+jkm+f6kRwWDyb7Cn+40Yba/sPSDR/bsxa8t6zHnyZ15agetdQ96by+V2lCMbhWvpvHktQ83N//LXj/y+kArem7Xt75YzF1E5HbghUv4dwPLJ1pWaZ2HPMW/C3sVnoDSzrTzhJtD0XA5znvwZDsv8BjL5Gzgqgn/stK3Psg1I08GBNnskj4kvfXggCn3vM46TK2euWlILbcB4V/zVhqHfBTBp7XqsPYaBY9+OQeuV0GhjkBGmRFwXM/s2ofWJH6N5x9MHW74H0IsyjvOjcmSrRtNyANjd3d04Mjh4PSBXTLZueOFS9B9/DoaPPGjJpLzURUv+QbQ9+kM0PZedbGUB0E9nHOdG8GxAIqphqYWpTo2WvgfoaROt0UgD9i1agf6lb0PxsCPKGe+gjMIIZj/9C7Ru/i9EhvdMtnS7CN6Ttu1flysbBe/5s5K+C+DoSZbtGy6MHblt27aDVvuJalHSNFfgwPBv3kRrSjPbMHDsW7B3yWsPepZfuTXs24HWx3+MWelfTX5xn+D+aKn07md6e7eVLx1RZSRN6z4AKyZZsgeCSzK2/f1yZapFwbUB0aOucWFAbUBJxqxPQvRLgExYvx6dm0T/CedgqOvlgFTXOGnGH3vQ9uh/YMa2xydbpqK4ec7hHVdNx4tUq+v/sTKwLMuKuvj+ZM+xj7XHsOuUlRied8xES6qDKg6zf4e5f/jXyQ+gV/xXAe5F+Xze3yn1REQV8PwZresAHD7RmsH4KXjuFReh2NJRxmRTJ8UxtD3xn2h9/MeT/EKpRQG+kHacL4Nv3tSclBn/oML9KiCHTbZOod/JOs6E7UCiGmYkYtZnRfB5TNAU0mgj+o97BwaWvg0a8Xx/U0VEh3Zh7gP/ihZn0iPO/uSqnJfL5+4tVy6iSjjwPU7vOMgyVeAmV3C1bdtTum1nOqmmNmBnZ2d7cyTybYW8aaI1xZa52HXyhRiyTjn0qGUy4489mPv7rx/sqckHNGK8a7pdYjOtBoApy3olFD+faNJeap6N517+fuxLvabqptmTkeIo2p74MVof+8/JDjDOilt6bbq3N1PObEREfqQs62OquAETfL8aazOx85SVGDlysqJV9Ynu3432h76DWelJi34/Lgnewx+ea0OqqyuphvEtrzebqhpn8UBqqjeWZTVHXHxvsl9o96Veg90nnYfiTL/Fl/KaseNJzP39HWjcPeHviq4KPpy17dvKmYuonFKp1GwtFLcDOOgNmArkDMFFfKphcpVuAyY7kymNlO4RYNxzc9yGZuw+8b3Ye/TrA71AL3TqYlb6N+jY+K0Jj+ERYLcIzt5q238oc7qKqZ0pl0+JWOJVIu5PMcHhw8NHduNPy6+suR9GXqhpVwZH/Oaf0Dgw4bmWtpaM12b7slvLmYuI6FAkzfgnAV2D8b5XiWCg+83YfdL7ynZIfBgOy9yPw393G4zCBDM+wU9Gi8V39/X1DZc3GU1FMha/GKJfwUHOFP4/2pdxHBO89IXqyIIFC2bOaGj6AaBvHO/jbsMM7DztMgwmTi13tMBIqYCOh9ZhzpN3H+g4vZQK9BPpA8fvENWlpGl9F8C7PS5XCO4YHhv7GI+8mFil2oCJRGKxlNx7AJjjfXysLYYdp6/CWGuXv1gVFB16DvM23DjZ+YD9gL5putydUEMj3EOXMM2zRfATAC+9AlIE/UvfgZ2vvgJu40HfyKhqpZntGEydjoahXRNdi90qhr6zo3XOfbv37PljufMREXkkKcu6DsC1GGf45za2YMfpH8OeY94ISOUuZgrCWLuJIesUzNjRM9HZgEsiYry6raP9R/39/YEe8kz+LV6weG5rx6xvAVgNoMnr6xTG1/v3DPwitGBEZWZZVmujYdwN4MzxPj7aHsf2138BI/Or/HidgzEi2N/5Moy1xzDz2UfHO8pBAHld25zWpv49A+srEZEobB2z2woQvMfjcgGwrCESObttVvvv+vf2/ynMbLVqYGBgsH/PwPc65rQ9KYIzAMw4tJ3EAPAquO7b22a3P9i/t3/Cs0lTpnkiFPdhgss+9i1ajh0rrqr643UOxm2cicHU6RC3gOY/PTPekhmAvKe9dc4j/Xv2pMudr9zqfgCYsqzXAfITAC85WdhtmIE/nnEV9h71upp65HcyGoliyHolSjNaMfPZRyAvfXfyMEDe1Tar/W5+ASaiapQ0za8ActV4HxtrM7Ht7GsxcsSScscKjds8C/tSpyM6tBNNu1/65o0ITFFdPqNl5nf37ds37Q4rrlKSjMUv1kjpJwCWTfXFasilAwMDvO2Z6sLSefNaSpGGX0Jk3IOh9qWW449nrEZp5rgP4dSkQmsnhqxTMWP7E4iM7H3Jx0Xw6va21hn9AwN8zJ/qztK9J2T2tg5cAmDSs27/ynwx3JXtbW1zu5qa7t8xNMSfZ8axe8/Ak7PbWu80FIsgOMrHVkeIuB/oaGtraZ879/7du3eXXvjBeDy+VBS/AvCS6Z4aEew69VLsPvE90EjtPmXzIiIYXnA8xjoSmNn70HjHpjUAcm5He9uDuwcG6vrItLoeACa6Ei+HuD8H5CUT9NKMVmx/wzUYqfaLPg7R6NwURuem0JLfON4f8GYx9C1tHe3/0d/fP+l1lERE5ZQyzVWAXDvex4aP7Mb2138epZlt5Y4VPiOKodjJMNzCRI8odDZEoiccv+eEH9iw+dhoBcXj8SXts1t/KILLMc6bix48nrXtcf+ME9WaZcuWNewbK/wIgteM9/H+48/Brld+AKiXXyJfwG06DIPJV2PGn55GdHDXeEtOa2tr3dM/MDDp7SFEtcaG7ba3tXYBOHlqrxQDwMmFaMO72+a0P9m/pz8bRr5aF1IbcOOf24CWZVkRxXqMc7me29CMHWeuxmD8NB//BtWrMGcBhjtfhpb8gzCKL3mwJgLVt7fN7rh3suZkravbAWA8Hj/egK4H5CXn8Yy1mdj2xn9AYfaCSkQrm8Ls+djf9XK09D4Eo/CS46Nmi+pbW9vbvj8wMDBUiXxERC+UMs2/U8jXMM5jv/sWn4Edp38CGm2sQLIyEcHwgqUoHnYEZvY9NF6De/He1oHF/XsGfgTeDlx2y7E8asTwSQP4rghSh76T3NC/Z2BanDNDdS8ys7HpLgAvuTVSDQM7X3059hz75rp5ymY8GmnEYPJv0LB3x7i3TQrwurbWOb39e/Y8UoF4RKFpm9X+nIiuPNSXi+j57a1zkvMOO+w3u/bt4znH4wi4DXhRR1tbS2t7+xbD1fUAYn+9qNjSgW1v+Pu6espmPKWZbRhMvhoztz02zvE70iiifzu3dc5Pd+/ZM+47O7WuLgeAsVisLQq5D8D8v/7YaEf8QINkRh02SMZRmjEH+7tOPDDlfukQsE2Ak48fOGEdGyVEVEmL4vG/UcUPMM73pb1HnYWdp1wCGLV93p9XYx1xFGbPx2H5B8c7ZP7Y/8/enQfIUZb5A/8+1d1zZK6eI9dkprv6yAEhgERuhAALgoKKAooKigd4rPeBq/vzWnZXPFDUVUBXFBQFXEG8kDMgcppwJAGSdPdU90yOyWTS3XP2dHfV8/sjYTfpqskcfdRUz/P5b9/qVH+3Gaurn3rf523zturJdOoxO7LNV4FA4OjhltRviXAlAE8RpzLgdn0gmUya1wwK4TAhv/9rAF1dOM6Kgj2nfwojodfZEavySMGo7wS4x/ehdrDHdJRA57d5Wx5OptO9dsQTohySQ8ldbd6WdwE02x00CaBjDMX1jvbm1ti+oZRlc7b57uDZgCCchWnsvmxt/2xAYr4awKLCo/uLf19FzttVVF6nMDz1GPWffKAImCo8vICB17e2t99ajf23q7EASO2trXcQcFLhgVzzEuw8/+vQ61vsyGUbo64Z48uORVPP4yA9W3jYP+RN1ifT6QfsyCaEEKFQaBHrxgOw2KV9JHga9pz20XlT/HtVttUPvb4NDb3/sDp8emtL89+T6bTpl6YorVXLlrW3tLXdRIwfweJp+czxQ9Genh8Wfx4h7BVS1fMAuhGFM7aJMHDaRzESPt2eYHYhwlj3WtSk+lCT6is86gLw+oUNi28bHB6UXVBF1WjztrUAOKvI07SAcFmb17uuw9vyTLXOuirWvnTqpZZW760KEAaKmg1oeoip1zVh1/lfQ67Fci+QqsWeOoz6T0RD/Gm4soULIqmNmFcm06k7bQlXRlVXAAz5A/9KwIcKx/MNHdj5xmurs3fUNOj1LRhfugaNPY9b9ASkU9tbWrfsS6desiWcEGLeWod17nRT8o9EOKrw2KjvBPSv+/S8K/69aqIjCHbVYsHOFwsPKUR0YUur945UKmV6bClK4sAmH8rvAToJFsvSZ3dW+noylXqhJOcSwiYr/f6AAXoAFn2p9p78QQytPMeGVHMAEcb8J6J2IALP8O7Cg83s0k9IplO/hLRwEFXC29YaJ8YnUJrvSJVBV7W1emWTkEkcmA14R/GzAf+P4anDrvO+imybWnxAB2JPHcZ8r0Wj9gSUXKbw8BGtrd5MMpV63I5s5VJVBcCgL3gakXHLgSmu/4vdtdh13leQa6nunn9T0RvakPMuQ6P2pPkg4ZxF3pY7B9Np+TEphKgYt4ovA3hP4Xi2TcXuc74Idhez2tL5MotXwT22D7WDpj7Z9cQ47pj0sb+UFg6lFewKLm9rbfklCJ/CrBtvWxpnl/LBalxOIuaPtWvXesbGxu8FsLzwWPqI85F8zaU2pJpDSMGY77Vo6N0AV8a0z57a5m3NSQsHUS1SqVS6zet9PYDuEp3SBeDEvNvzVm9L8yuy0sFayWYDkoL+Mz+L8aWmZ/DzilHbiPHFR6Ip9hjIOGSzZBBwRru35cF96bRpardTVU0BsKurq96t0AMAmbayHjjlaox1H2dHrDkn5+2Cks+gbo+pzUK9AVqTTKdutSOXEGL+Cfv9xzHoNgCHPLQxPHXYef5X5u2M7ULjy47Fgr6NcI8nDxkngn/Imx6WDSVKIxQKLWprbv4xKbgZFsWNYhFwV1Trub3U5xWikhpqa68B8N7C8YmOMPrP+kzhM/h5iV0eZJYehabIeotVN3y6t63t3lQq1W9LOCFKrK3V64bFRkBF6iCiK9q8ra9rbWp7LjmU3FPi8zteKWYDJo++CENHnFeGdM6jN7RBr2tGQ++GwkMuEJ3e3tFx8759+3Srf+s0VfMtXed2XwMgWDg+HD4dwyvOtiHR3LVv7buQWbjC6tBZIVV9R6XzCCHmJYVB/wWLB1EDp1xd9bu0zwS7POg/8zMwPFaT0fjLK7q65lfTlhILh8O1QZ96DfL6VoAuR5nujRj8y3KcV4hKCQaDPoPxpcJxo6YB/Wd+Gqy47Yg1J2W9Xdh7stUGqeRWDPwXStVWQAib5QzjTgBlmtnOZ5NL3xhS1ZtCoZBp4woBRBI9d+n72+jcM5N/l1m8CsnjLitTKgA3xCoAACAASURBVGcaWnkuRgKnmg8wlnNO/1zlE5VHVRQAw93dIWZcUziea+7E3pNNm5PNe6y40H/mp2HUNlocxHdWrlzZVPlUQoj5JOz3XwmLzZqGVvwTRkLzrHn8NOSal2DgVFN7WwBo0hX3dyqdp1qEfYFLOJ/fRIRvwGITmhLa3R0PyGZbwtFIN75LQEPh+J7TPoxc02I7Is1pw+F1GA6vszjCp4ZU9YpK5xGiHBKJRBLAn8r3DuQG4yrk9VeCPvWacDhcW773ciZN03ZH49pFxHQpgMGpXq/XNaF/3afB87TH9uEMnPZh5JqXWBzhf1FVVa10nnKoiv/qrLhvAFB3yCAR9pz2ERieOut/NM/lGxdi8LWW9x6d+Uz2K5XOI4SYP7q6utoY+EbheH5BGwZPfK8NiZxhJHgaRv0nmg8Q3h70+WSq+wwEu4JrQv7Ag0x8J7j0y31NCHesx/rCtYBCOEZYVV8P4K2F4yPBUzCqnmxDImfYe9L7oddbPFtgfFNV1XI+dBCigioyw72VCN/gXP7FsC9wSQXez3GmOxtw8Pj3IN9g6pomABieegyc+mGATJO0F7gMfM+OTKXm+AJgyO8/E+A3Fo4Ph9chs+QIOyI5xtCKM5FZZNU3lD8eCAT8FQ8khJgXal2uLwDUUTg+eMKVkyxzFa/ae9L7LR9sESnfgiwpm1IoFFoUUtWbyKVvBLhyRVPDuK1i7yVE6RED3yocNDz1GDzhSjvyOIZRswB7T3iv1aFFioHPVziOEGVR19j4J0xj5lmJrGDiO0P+wIPBruCaCr2nY7w6GxCgj1ltOJ5ZcsQkM5PFq8aXHoXh0OvMBwhvXh4IOH6ZkuMLgIBi7kVS24jB42Vm/ZRIwcCpV1lN//WQ3JQIIcqgq6urDSDTWtaxzmMwEjzFjkiOkm9oR/LYt1sdek3Q739DpfM4xUF9/l4B4yqAKtmsbEs0kTB1lRbCKcKq+iYwTD+09x13GfIL2uyI5CgjoddhvPNo0zgRPurz+WS3K+F4W7ZsyYJxV2Xf9f/6A4bD4YWVfW8HYD6q8LkwKy4MnHyV1ew2UWDw+PfCqDF1vICus6n25DSOLgCGVfUkqyf4+17zduh1zXZEcpxsqx9DK19vGifw+/x+/1IbIgkhqlid2/1xAIf2GVUU7D35A/YEcqD06jdabpJCIMfflJQBhfz+iziX+8eBPn82/NimOyr/nkKUDsO88UfW24X0EefbEceR9p70Pqsdkps95PpnO/IIUWqk4Dc2vKsbjKs4l98SVtVPdXV1yTISACu6upaBzLu1Dx1xHrKtPhsSOY9e34J9r7nUNE6Ec4PdweNtiFQyji4AMuPLhWP5hnYMrTzHjjiOlTz2YrC7pnC4zk1k2lhFCCFmS1VVLzM+VTg+HHwdci2y6+90seJC8tiLrQ6dHA4Ezq10njmKwr7AJSG/uhmg3wF0lE05DHbRL2x6byGKFvL7zwfD9GMneewlgDSQn7astxsjQYvdJcGfkV6AohpENO0xADGb3n4hM66vdbkSQZ96zXwvBOou1zUADtkshd01SB79NpsSOdPQqtdbznInhR29X4Jjv7kDgcBKAOcVjqePfCPY5bEhkXPp9V7rde6MKzs7OxdUPpEQohopBt4D4NDp2URIHfUWewI52EjwNOQbzSteDOZ5P5sk7AtcElLVF5j4TgBH2pmFGY/HYrGEnRmEKArTJwqHck2LMapKy4aZSq55i9XSuxYFuMyOPEKUGAP8K3sjUAcRvlHrcmvzdcfglStXNjHofYXjw6F10Otb7IjkWOzyIH2kVXcdfsNKvz9Q8UAl4tgCoGLgChQsbDdqGzG0yrycVUwtteatVk9ym+s8novsyCOEqD5EMDVnHe0+Htk2WY4wU6y4kFpjLpwS47xQKLTIhki2C/p8Z4f86pMHdvadE43BFSLZ/EM41oFlZP9UOJ46+i1W/aPFFLJtKsa6jjMfYLyn8mmEKAPdfSusdp6ovEUHdgzeFvIFrlqHdZXs+2ur3MTExQQc0ryOFQWpo+Vh+2wMHXEejNrGwmHKMTl2wwmnfnsrAL+rcHBoxdmWuyOKqeWal2C067WmcYVIbkqEEEULdYeOAmD65ZNebdrEXUzT0PKzrHZN9rCuv9OOPHYJq+oZIX/gcSLlQQAn2Z3nIOPwuO60O4QQs6W7PO8E4Dp4zKhtxHD4TJsSOV9q9QWmMQJOVFV1lQ1xhCipaF80Qoxn7c5xEB+Ib0r4tW0hX+AqFFzPqhExLi8cG+s+AbmmxXbEcTzDU4+h5WeZxolwOQp3WXEIRxYAg77gWQD8hePDFv9xxPQNrzDf0DHj7GAwKNNzhBDFUYz3Fg7lmhZjfMlqG8JUB3bXWPaUIsa82FEl5POtDfn9DzBjPcBWzbVsxeA/RSKRIbtzCDF7fGXhyHDwNGm1U4TxpWuQbzRP0nYBps9aCCdi0C/tzlCIgACIbwr51RfCvsAlcGjhZiorfL4ggHWF48PL5aFNMYZXWNaYQmFVPaPSWUrBkQVAIv3thWMT7QFkvV12xKkaY8teYzXFVSGdTZ+3EELMAAGG6ToyEjzNqh+SmIGR0OlWw6vDPl/VVlaXq+qxIZ/6G5DyNECm5YlzyK/tDiDEbAUCgWMAHFE4PhK06Bktpo/IejMQxjsqH0aI0jNcuBPgvN05JrGaie8M+dXHg77gBaiyQmAeiqm4qdc1YazrWJsSVYestxvZVtPcM7BD+7c6sgAIJlOjv+HwOhuCVBd2eTBi2dTZkF0lhRCzFvb5jgTI9IRmOOzIB2dzyvjiIyw3A4GiVNt1m8K+wIUhf+Bxg/EcCG/HnF7Kw3tbOzr+YHcKIWZLMWC6huSalyCzaKUdcarKsPWDG99yv99UcBXCaXp6evoJuM/uHFM4hcj4Q8ivRoI+9ROqqlZFDzEimGokI4HTwMq8aYFYNpa1JjZ/TzqB4wqAoa5QGITuwvFR9WQ74lSdkaBVAZBOmY+7KAkhSoPJZVp7kG3zIdeyzI441YUUjFh9/zFXS08MV8gXuCLsV59j4nvn4lJfKwzlzg0bNuTsziHE7LHpuj2qniyztksg2+pD1mv6KQMGZJ2eqApMc28Z8CSCRPiei6EFfeo1Ry9e3DD1P5mbDhQxTTeEowGpkZTCiPXnqDpxN2DHFQDh1s8uHMq1LEO+od2ONFUns2gV2F1TOLyAczmryqAQQkyN2bRMc2zpMXYkqUrjy442jTHojLVr1zq2UZeqqnVBn/qJkF/dCuJfMOCoPxgFhlN+/Ahhsnr16hoApinaY53ma42YnUmu26bfOEI4kQ78HkDK7hwzsJgI3xitq9PCqvrVrq6uNrsDzZRiGKcCOGQmo+Gpk1nbJZJvXIhcc6d5nJW53IrGkvMKgIb56dhY5xo7klQldnmQWWS5EZk8lRRCzIYLZP4hmVl6lB1ZqtL44iOtlnc0pffuNW/tPsd1dnYuCPrUT7gYW4nwPQAhuzPNwrZIPP6k3SGEmK3x4fETACw4eGz//aH8kCyVcYvvQNrfvN95v82EKKBpWoaA39mdY+aogxlfqXW54iFVvWFFV5djlqqQxWqbzMKVsvy3hMatak5kni0/1znvS4ZwUuFQZnHV9jq3hdWunERk+tyFEGIqYZ9vJQDvIYOKgvEl0uqoVNhdi4kOizqZg67bwWCwJeT3f6beU7PtQOHPwbvP8512JxCiGET6iYVjEx0hsFu6wZTK+OIjATr0ZxgDbaqqrrApkhAlpTP9xu4Ms0eNYHw873JvDfvU76qqqtqdaBrMNZKlUiMppfElR5rG2OJzn+scVQA8sC7f9KMgs1ieSJZSZrF5BiAbsJwWKIQQh2MQma4d2ZZuGDWObbMyJ1letzH3r9uBQODokN9/K+lGP0DfBuCYp+2TYDKMn9sdQohiMBTTE5rMYnloU0pGbSOyXvPlzuWA67YQ09GT6HkIjF67cxSDgAYmfNLFiIX8/gfCvsCFmLM7B7PFdVsuJ6Vk9T1IgL+rq6vehjiz5qgC4Fhd3UoU/I/OqGmQ/n8lZtWYGISu1QtXN1Y+jRDCyQgwfVtmWy2uMaIoWa9pk+W5/ODGFfYFLgn5A48rBr8A0OUAqmVq0VOR3t6o3SGEKAZZFKGyLeZrjCiO5XVbCoCiehik4Ha7Q5QIAfRPTHxvSFW3Bn3qJ+bShiHBYLAFgKlBXdbr4MUUc1C+oR2Gx1TrUzwej6NmbjuqAGgQmab65ZqX2hGlqun1LVazc2hiwYij/riFEHOC+brdYm6iK4pj9ZkSmT97O/l8vtagT70m5Fe3MfGdTtnRdyYILJt/iCpgmK/bFrPVRHFyLebPlIy5dd0WoiiGcavdEUqOsZwI3xutq98ZUtUb5sTy4BxMv9H1uibodU12pKlqVvfbLt1Z121ndYU0sKJw0m3WKz8kyyHXshS1A5FDxphoBYCN9iQSQjgTLS8cyVrsoiWKk2u2/HG+OBgMtsRisXSl8xxsud9/hEH0STAuA1DNd6NZAE+t8PmCdgcRYrYMohYGdRSOZ+WBe8lZ7SgJojVyDRFVJKMDLwEwN09zvmYwPu4C/jns9//ZYNcNsUTsQVuSKPqKwpXJuSa5ZpdDrrkTtXsPXejBZC7AzmWOKgAScZf5j1t+SJZDrtlcAASTrP8QQsyQxXVbfkiWnF7XBKO2EcrEyCHjSj7fBcCOAiAtDwReZzD/s8F8EdhZ9xuzVMOgDTrN0fZAQszSq9cXUVq5FqvvQl6rkyJtBIRwDoVBFxAZF4T8gb+D+Ad1DQ13b9myJVuxBExdhZOkrK8voli5liXmQWZH1UicdUPO1FT4xy03JOWhW36uRnPFgwghHI5M1w25bpeHXtNgKgBCUSo64y4QCPhdzB9mxrsNgw9MS5SCmBBOJtfs8rC+1xZCOBefCsapmZHRoZCq/oaYb4zE48+V+12JqAngQ8bkul0eeo3FbTXBUTUSZxUAiRpNf9yeOpvCVDfDbd7MhkFyJRFCzAQBMDUUtWigK0qALT5X3aCyFwDXYZ27zxe/iMm4CgafxQ7rLyyEODyre0JRPPlchahazWBcxaCrQv7ABjBurhtfcPuWgS0jU//TWSBuLCiRyL12mVjVnpjgqBqJowqAzNxUuLJGCoDlwTXmiwaBq7l3kxCixDo7O+sBuArH5bpdHobFdVsho2w3JSv9/oBOdHUva5cD6JSZfkJUJ8Mt1+xysHpoI4SoNrwWhJsyC0a/HfL772F23VrqXoHEaCqo/8l1u0zYs8A0Ruys/taOKgCSRXVVvjzLw/KpJJd/JokQonrU19c3Iq8fOqgoYFeNPYGqnPV1u7RLgNeuXetJD+x7C5NxVR50Flhm+wlR7aweCoviGe5agBSADbujCCHKrwmgy4mMy0N+9SVm3Jo18j/p6+vbV+yJmWCaAcjysL0sjBqrz9VZNRK5cRdCCCHEtKTTaYUVVoio8GGzEEIIIYSYEhsAMo3MsnRCVJyjZgACGC4cUHLjduSoekre4nMlHqp8EiGEU01MTAzXugq+ZgwDSn5ClgGXgZIbsxgs7XU7EolMALgDwB1+v3+pi+kKIv4AQOFSvo8QYu6grNxrl4OSn5DZf0LMG7yXiP6bmH+xPR5/uaRnZhqmgimAlMuU8i3EAUrW6nN1Vo3EUTMACWwqAMofd3lY3ewxFNPnL4QQk+nr6xsHOF84TvkJO+JUPcXi+5ANo2zX7Xg8viuW0K6LxuPLwcZrQbgZgEUVUgjhZJYPhUXRSCYxCFHtGOAHielS8ni6Ipr2hVIX/wBAYXONxOqeUBSPrB62k3mS2lzmqBmADJIZgBVidbOnkPniIoQQh0cjALwHjyi5cej1LTblqV5WPybZ5arIdTuaSGwAcHUwGPw85fntIP4QgNdU4r2FEOUl99rlIZ+rEFUrzowfk8d1ezQa7S33mzHxcOFGbEpenseWg9V1m9hco5rLHFUABHjE9Mc9MWpTlurmmjDvUs4WTxeEEOLweASgQwuAFtcXUTxX1vx96NL1in7YsVgsDeBmAD8Jq+rpDHwEjIsAeCqZQwhROorFtUUUz5WV70Ihqgv9HcQ/ILf7nuj+limVwTRSUCKRGkmZWF23nVYjcVQBkJl2UMEft2d4pz1hqpxnaJd5kGhH5ZMIIZyN+gB0HTziGdqFiYXSMq6UXJlhy8Kq4Xbbdd3miKY9CuDRUCi0iHP6lUT4CACfTXkqIQfddWROyQ3aHUSI2SIirxsUO3js1euLUdtoV6yq5Emb77UZeDrPxvk2xBGiLDygx0B0lN05ymgMhJ+yovxXLBbbZkcAJt5BBRVAq+uLKJ4nvds86LAaiaMKgAroZS5ocFmTctTn7QzM8KT6TMMGUcl7FgghqhzjFRBOOnioJm2+vojieNKW34U7D8zIs1U0Gt0D4DoA3w77Am9gMj4O0D/ZnasMPOTKvz4RT/yX3UGEKEIy5Ff7ASw+eLAmvQOZRSttilSdrK/btDmRSCQrHkaIMgh2BdfAZVRr8S/BjOvhVn5u972WArzMBWNyr10eHovPlWE4qkbiqE1AdBe2Fo550jsALvyTF8VwjaesGocauVzOlqcaQgjnYmWS67YoqUlu9Eyfvc30SKLnD9F4/BwCH3dg05CqaoLFoHfbnUGIYjFbXbdlxU2p1Vh8pjT3rttCzBq5jSr8TuQHielN0bgWiCW0G+wu/gHAgkxmK3DoLCklOwbXuO3Rqguz5SpJMtyOum47qgDYNDYWQeEfdy4D99g+mxJVpxqrH+eMHft39BRCiBlgNj04qEnJD8lSs/xxTthe+STTE4nHn4tq2tXkcfuZ8QUACbszlchJgUBApkkJZyMyXTss7w1FUaxmkoB4zl63hZghFxjVUgDMgHAzgddG4/FzIomePwAw7A71qhf7+0cBmCpTMguwtNxj+ywnSU3wRNSOPLPlqALggT9u04+Eun5HFV3nvLr+V0xjpMA8KIQQU1CYTdeOmnSvNJUvMcvrNub+dTsSiQzEEtp15HGvYPD7ATh+prli4FK7MwhRDLJYzlTX76gVTnOeMjFi2cZId8B1W4jpCKvq6wB02p2jGAyMEuN7OuGIqKZdHYnHN9qdaXLmVl1W94Zi9qy+BxmIO22SlKMKgABAoMcLx+p3vWBHlKpVv/NF05hhwPS5CyHEVCKJxMsA7z1k0DBQv2uzTYmqj5IdQ+1e86QRQ1f+ZkOcWYlEIhOxePxn0bi2ipjeBOApuzPNHr8HKNyPTwjnUMh8r107sM1q5oOYpQW7NgFsmkDUr2mazGoQVYENvMfuDEXYyYxPeupql0YS2qc0TdPsDjQVIjbXSCx+04vZq9+5yTRGMH/uc53jCoCA8UjhiPyQLB3KT6Buj/neg5lMn7sQQkwDM7C+cFCu26VT1/8yyDD9kEzGemPP2ZGnSLy/T6B2MrPyOgL/0e5AsxAK+f0n2x1CiNlapqkbAAwdPEaGgbo9MguwVOqsvgMJj6Kg1ZEQTtTZ2bkAhLfZnWPGCNvB9B7yuIOxhHbD1q1bh+2ONAOm3+p1e7aC8lk7slSl+l3mAiCT82okjisAsu5+tHDMM7Qb7tFBO+JUnbqBbSAjXzg85qp1PWNHHiGE8xEU03W7frcUAEvFqphK4L8D0CufpnRiidjjkXj8QgKvBeEuOOiHMclmIMLB1mN9HsDfC8frd22xIU11svosidn0XSmEE9XV1LwZQJPdOWbgJTC9x9vevjqa6Lk1EolM2B1opvLA0wAOmaZNeg51FitExMy5RwbgGe43jXuY11c+TXEcVwCM9kUjYPQWjjdoT9oRp+o0xp6wGOUnnHghFELMDcS66elYzb6E7AZcCmyg0er7j+jhyocpj0g8vjGqaZeyrhwD8G1wRmHz7eFwuNbuEELMnnlWQ4P25P453aIoNckEalKmnzIgixk8QjgROWfzj6cO7Oh7VDTRc+uGDRtydgeaLU3TMgBMN4QNPVIjKYVG689R2xqP91Q6S7EcVwA84E+FA02R9TbEqC6k59ComQuARPRnG+IIIapEJJF4CYBWON4UkckOxarvfxnukQHTeB74iw1xyirWF9sUjcevMBQ6DsBvMId24CvEQBuy+rl25xBitoh1072fZ2i3ZZsYMTNN0ceshmPb43FZYy0cb0Xnig4A59idYwpPMCsXRuPaKQd29K2SJxtsqpE09jxutbpPzJBVrYnhzBqJIwuAioKfF47VDvagZp9W+TBVpCH+LJSJkcLhHNzuX9qRRwhRNZgIvygcbIqsB8y968QMNG2znOj3lKZpVbv1W09Pz4vRuHaZoVAQhJsxV2cEkqMboIt5LpJIbCGGqf1LU6RqJhfbwzCsf0iy+TtSCCfKu7PvAuCxO8ckHgb41GhcOzWWiP0RVVP4O8Dtvg3AIbMYXZlhLEg8a1Og6lA7GENNMm4+YNDPKx6mBBxZANyuac8AHCkcn+SJmpimxpjlhpEPRiIR8/QSIYSYAUNRbi8cc48Oor7/JTviVAXKZ9EQf9p8gMn0WVejnp6eeFTTrlbAaw4sDZ5T1WQGX7hq2bJ2u3MIMVsGYLqWNGpPg3THrpKzXf3uzXCNJQuHGYbyazvyCFFqRDz3lv8SnmVWzonGtbOj8bhVv6uqEI1G94BhekrTFHXcRrVzSmPUokZC2B7rjf2j8mmK58gCIABmptsKB5u3PQQll7F6vZiCZ2g3FvSZ/4aZYPqchRBipmKx2DYATxWOt2wxrVYQ09QUeQRKbrxwOEc1rt/Ykccu2+Pxl6Px+BUwXMfMsc1CanKuGuftgijEAeRx/RrgQ9aOKRMjaIpIq7rZannJ8jvvqVhfTDr1C8cL+3yrAXqt3TkOspFZOSeqaSfEErEH7Q5TCUxs+u2+oPcZyw0sxNSUXAbN2y1mvu+vRc2V+80ZcWoBEG4Yv0TBh65MjKD5lb/alMjZvJvuBpmX4g1lstnf25FHCFF9COabkobeZ1GzL2FHHEcjQ0fri/dYHMBf5uus7WhvdHNU0y5VCCcT+I925wEAKHNwJoQQ0xSNRvcQcF/huPfFe6zuGcUUavZpaOjdYBpnwq02xBGi5Jhcl9md4YCtxHRpNK69dr4U/l6VyeXuBjB88BgZBrxW94xiSs0v32fVIo0P1KIcybEFwG2JRAyA6S/Zu+lumQU4Q+6RPWjabn6aS4wf7dy5c8yGSEKIKrQgk/kFgEOLU8xoff5OewI5WNP29XCP7DGNGzp924Y4c8p2TXs6Eo9fCDZOA7De1jCM01b4fEFbMwhRBAauLxzzDPejMbrehjTO1vbcXVa7KO/JZLNSABTVQAHsfujFkQOFvyMjiZ65tCKgYvb/ducbC8ebtj9kuWmcmJySy8C72Vw4ZfD/OHH331c5tgAIAET4ZuGYKzOM5m0P2BHHsVpfuBtkmHqoZ/IKbrAjjxCiOr3Y3z9KhB8VjjcmnkZNUmYBThfpOXg3/c7q0BM9vT2WzVzno2gi8fdoXDuLwW8DeLNNMchQlLfb9N5CFC0ajz8CgqmDfOuLd8vOkjNQk4yjode0pwoA+oE8bBfVIOTznQzAb9PbDxDh0xO6fvSBwt+8nqLs0vUbAEwcPEaGDu8mmQU4E82v3A9XZth8wHBdV/k0pePoAmBE054C6KHC8daNd8A1nrIjkuPU7o2ieZt5ZjSD/lvTtN02RBJCVLFMPv99FCxNgGGg48mfWs2MEBa8m34Pz5D58szgf7chzlzHsXj8d9F4/GhiuhSAVvEAwJWVfk8hSokA07XFk96Jls1/sCOO8zBj4RM3W+16n9aJf2hHJCFKjug9NrzrMDO+MJ7LqhFN+25fX5+pMfJ8tK2vbwcYPy8cb9l6P2oHHTtxraLco4Noff4O8wHGX526+cerHF0A3M8w3ZQouXF0PPMLO8I4Cxv7b0jYdEOSg4tMsyuFEKJYfX19+6yWJtTv3jLZTuTiIO6RPWh90XL238ZYPP6XSudxEI4keu4az2VXM+MLKCxCl/WdsTzYHTy+Yu8nRIlFNO1eEDYVjre+8Fu4RwftiOQoTdFHUdf/isUR+i9N02TGgnC8rq6ueoAureBb6iDc7Db0VbGEdp3Moj3UqmXL2kHcbTpgGOh48ifywH0a2p/5hWVbOYPJ8Q/bHV8AjMbjj1g1+26M/Q31u7fYEckxmrc+hNq9EYsjfEMsFpP1eEKIspjQ9W+gsBcggI5nb7Xa1VYcpOOpW0D5icJhBvhzmIe9bmZq586dY7GEdp3b0FeBcDMAU/+LciBFv7wS7yNEmTABnyscVHIZtD99ix15HEPJjqL9WcsWf/068bcqnUeIcqhTPG8E0FKJ92LGY2DjxKimXb21t3dnJd7TSYJ+/1tzbs8WgN5gdbxuz1Y0We1qK/5X/c4X0djzd6tD91RDqx3HFwABwAV8HMChlX9mLHz8RtkQZBLukQG0b7DYvIbRWzfW+LXKJxJCzBd9fX37QOYfk66xJNqf/rkNiZyhMfY4GhLmHlIEuj0aj8vd3Axs7e3dGdW0qwl8AjMeK/870jvWrl3rKf/7CFEeEU37KwimHZsatSfRoD1pRyRH6HjqZ3CNp03jDP6MzP4T1YIrs/lHlJjeFEtoZ0QTCfN22vPcis4VHSFVvZNA/wNg8eFe2/6P22T29iSU3DgWPnGTaZyBUXYpn7AhUslVRQFwazzeQ4RrC8c9QzvR8aT5P+B8R4aOxY9cb7WlNUD8iS0DWywOCCFE6UQ17VarwkvztgfRGK1APcZhPEO7sfDvppXTAJDKE3+20nmqRSQe3xhLaGcQ05sARMv4VguTe/eeW8bzC1F2bl3/FIChwvFFj/8YnuF+GxLNbU2R9WiKrLc69EgsHr+9wnGEKIsVnSs6QLCcbVYiaWZ80tvRfkQk0SONRy2EfYGLdU92CxiXTOf1rswwFq+/HmTuSzrvLXz8x5Z9tgn0tWpZIVkVBUAACd9aZwAAIABJREFUqG1o+A6AlwvHmyKPoWmbaZ+Qea1tw69QN7DN4gj9KRqP313xQEKI+YgVGB8BkC08sPCJm+AZklUdryI9h8WPfMdyeTSBvyQbNhUvkuj5g7ej/QhmfBKAebpOCRCTLAMWjra1t3cnM75cOK5kR7H4ketlV+CD1KT69vfaMpvQCR+BtGwQVcLwTFwKoAwz3DkPwvc9+VwoltBu2LBhQ6707+Fs4XB4YUhV72TiuwAsmsm/ret/Ba0bf12mZM7UvPX+SZb+8mZvR9v3Kh6oTFx2ByiVgYEBva2l+akDOxC5Dz62YOeLGOt6DfQFrTalmzsa4k+hw7pfyx63oV8wODRUucboQoh5bV86PdDmbZ0AcM7B42TkUb/rJYyETwe7ZNXkwidvRkOvxWoXxl+jifinID8kS2LXrl1GMp16emFT422sKJ0Ajirl+ZkQ6KxZ9v2BsQFT0VsIp0imU8+2eVtPAxA8eNw9tg/KxCjGuo+zKdncoWTHsPT+ay2X2BHh8zFNM/UuF8KpWr3e6wHylfas/A82XBfFEj0/2zs8LM2hLYR8gatgGL8HsHa256jfsxXZ9iByLZ0lTOZMtXsjWLL+epBhag2dUYjeuPnll6tmZkLVFAABIJlO72pr8Q6BcP7B42ToaEg8g1H/iTBqG+2KZ7u63S9j6UPXWf1hG0S4eHsi8bwduYQQ81cynXqyzes9HsDyg8ddmTTq9kYwEjwNoKqZrD5jrc/dCe9myxUvO+FxnZdMJqVlQ4kNDg0NJ9Op/2ltaXuIFD4eU/TSmS4CanI1uUgylZLvWuFk3NLqvV8BLgdwyE113d4I4PIgs/gIm6LZj/Qclj7wH/s/C9NB3BvVtE9WPpUQ5REMBlcQo4Sb2fBesPLhaEL7WHIoWTUFl1Ja0dW1rLW19XYQPgOgvrizMRoSz2J86WrkGzpKks+JPEM70fmXr0LJmjeTZsLHo1X20KbqflVFE9r3CfSrwnHXeBqdf/nyvG14WTsYw9IHrgXp5tnTRPi3iKb91YZYQgjBOuFdDPQUHqjf+SIWP/ytedujpGXLH9H23B1Wh3IK4a3RaHRPpTPNJ7FE7PFuTT3uwLLgksyOJ4YsAxaOp2nabkWhS2Gxi3bbP36Fli1/tiGV/cgwsOThb6F+9xarwzFWlCsgM7ZFFVEM450lOhWDcPOErq+MJnpuhfzvxFLIF7hKd7k3M+iCUp2T8hNY+tdrUTtoug2fF9wjA+j8y1fhypja2wLg22Ka9uOKhyqzqpoB+KrGluZHFKJLCThkza+SG0f97s0YVU8Eu+vsildxnvROLL3/WrgyFr9fCH/r1tT3a9Dm5y9sIYTtUqlUxtvcupEI70bB91JNeidcmRTGlh0HENmUsPIaY3/DoidvBtjqHpi+Folr0kC+AjRo+5cFtzTfwUQrAYSLPKVvUXPTT6XdhnC6falUvM3b4gbojMJj9bteQK65C9nWbjui2cMwsPDJG9EYs+ofhSzAb45pmsW0QCGcq7XFexOA9iJPk2BWLo/Fe64fGhqS5b4WwsvCXa1tzb8G4dMAiili6AB2AWg+eJCMPBb0bcCYby2M2qZiojqKazyNzgf+HZ6hXRZHOcIu10XJZHKi4sHKrCoLgOl0OrOwpfkPTPR2FCxPcI+n0NjzJMa6joNRV/1/4PX9Lx2oapt7mjPwvOJxn7tx30a52AohbJUaSiXaWr2bAFyCgtnptXtjqBuMYdR/AqC4rU9QRdqeuwMdT/9skuIf/yAa1/6l4qHmucF0OplMp37V3tK6EYQzAMz2BkLRoQwk0ynLKoEQTpJMp9e3elu7CDik8R8xozH+FHieLAdWchksffA/0Kg9ZXVYJ4Mujia0ByudS4hyCvv9JwP0+SJOkSPCtRN6/rJ4b/ylkgWrMiFf4Cq4jLsBrCnyVFsBfgu7XF9VmM8HsOTgg0puHE3RvyGzaBXyjQuLfKu5z5PegWV//n/wpC1WmjN64XGfEYvFqnKlTVUWAIH9N+vetta/gfFOAmoOPqZkR9EYfwrjnWug11fvxiAL+jZiyUPXWe4cCWAHK3Rutf5hCyGcJ5lKvdLmbRkF6NzCY56hXajrfwWj/hOrd2MQZrRv+BVaX/ifyV7xZ29Hx/t27dolM7Ztsi+d2tbU0nyLS6FWzLLxNhE6k+nUj0ocTQhbBMOhv2RGx08AmWfHLtj5IogNjC85qmpncCvZUSx54D9Rv3uz5XEifDaS0H5R4VhClF2bt/WLAI6f3b/mfxiKcmFM0+4YGhqS7cMthEKh7rbmljtA+BSKnPVHhG/tL7T29iSTyYnmVu99CnApCh5mkp5Fo/YEsh0h5JqXTHI656sdjKHzvq/BPbbP4iiPMLveENNir1Q8WIVUbQEQAFKp1I62Vu9GAG9Hwf+vSi6DxtjjyLb6q3Lnm5aX78Oiv/0AikXPPwAp1pV/6kn0bKt0LiGEOJxkOv1km7e1CcAphcc8IwNo6N2I8WXHVN2GTkoug0WP/wjNr1i3Y2Xg6cbM+IXPb9+eqXA0USCdTmeSqdQfW70tzxLT6SC0zPAUC9u9LffuS6d3lyWgEBW0a9cuo7Nm2T35mtw5AJYVHq/f/RI8I3swtuzYqpvB7UnvQuf9X0fd3ugkr+BvRePxf6toKCEqIBwO18IwbsEMN6FgYBSMz/sSgaufTz1vte5SABTyBa4CG3cDOKrIc71MhDdHNO3nBxdaU6lUytvW+iAx3omC4iIZeTT2/B16fQsmOkJFvv3c05B4Bkse/E+4JkatDueI6KJooudvlc5VSVVdAASAZCoVafW2bCDQRQAOmTZCeg5NPY9DyY4h03lUVew0qWRHsejR78O7+fcgy+Vj6CfwudFe7YVKZxNCiOlIplMPtLd4a0E4rfCYK5NG0/ZHkG9ahGyrz454JVeTjKPzvq+jfpf1DBIAj8KlvPGVvj7pGzeHJNPp7QsbFt3Gbj0AYPUM//lQMp1+oBy5hKi0gbGBbIvXe5dCOBWAv/B47T4NDYlnkVlyJPT6mdbL56bG6GNY+uB/wj1qNYMEAOg/onHtixUNJUSFeBu954P4/TP8Z89BVy6I9fbcK73nrQWDQV9rU8udRPgkSjDrTydcFtM0zeoFqVSqv93bcj/210gaDj5GzGjo3YCa1A6Mdx1bFStvSM+h49mfo+OZX4B086RTBkYJ/NZoPH6fDfEqqjrn41sI+XyngpQ/oGBjkFdNLAyj/4xPOXq6a93ANixa/z14hvstjzPQQ7rr3GhfVJoQCyHmvJA/8FmAv4lJvquGVp6NwRPeB8Pj0E2dmNG89X50PPNzUD5r/RrCvTrwdk3TZObfHBb0+99AoJ8AmO6Sgv7uuNq1Hutl6ZOoGl1dXfV1Ltedk+1Qye5a7D3xfRhacbZjlwQruQw6nvpvNG1/eLKXMBE+E9G071YylxCVFPYHfsvgt03z5RPM+EosoX0bFjuHCwCAEvSpnyPClwEsKOZEDDzvIly5XdOen87rg8HgCtKN+2Hx8AYAcs1L0L/uU5joKHYPNPt4hnZi8SPfRe1gzPI4AfsAviASjz9Z4Wi2cOa37yypqrrKZeB+ECy3JWPFhaEjXo99x73LUT8oXZkhtD/zczRFH5ukaTwAYCPcrvOj0aj0/BNCOEZQVS8jxi9QMIP7VXq9F4OvvRzDy9dVNliRagciWPjETZPejAAAGDdGE9o/Q26YHSEcDi/kXP5GAG+dzuuJcF5E06zXfAvhXK6Q3/9jgD442QsmOkIYOOVqZy0vY0ZT5FG0/+NWuMbNG+sdkAH4ndF4/O5KRhOiklRV9boYuwHUTuPlG4mNKyKJxJZy53KqYFdwObmN/wbjdUWeKsuML7cubL9+w4YNlj3AJhMIBBaTwfcRcKzlC4gwHDodgydcCd1Bm6gquQzaNv4KzS//FWRMeisddbFx7rZE4jA35NWl6pcAHyyVSu31trX+jhgnAegqPE7MqBvYjobEM8i1+pBvXGRDyhlgRqP2BJY+dB3q+g/bp/LuHBsXa5o2WKloQghRCslUanN7W+vTYLweBUsUAEDJZ9CQeAa1gxoyi1fBqCnqwWnZUX4Cbc/diUWP/wjusckuyZxnoi/F9i8fk2UyDrFv376xZDp1V1tL6w4mnFW4AZkJQ0+mU/dUKJ4QlcLJdPpPbd7WPMCnW/XXcY8l0RRZDzJyyCxcCShz++eIe2QPFv3tB2jddA+U/MRkL+tnVi6JJbQ/VzKbEJXW1tLyTgJN9aCLGfieQXhXLB6XXn/WlKBP/Twp/GvAvInSDG00FHpjT1z73Ww2ikulUqMNTY13uV3KEQBWWr2mdl8cjdHHoDcsRLbVci7VnFK/axOWPvgNLOjdOFlbNAB4gl3KmyKTLJOuVvNqBuCr1q5d60nt3fvvAH0Wh/kMxpcdjeQxF2N8yUxb+5QZG2hIPIPW53+L2sGew71yAqDPRuM9P6xUNCGEKAe/37/UDfolgLMmew27PBhefhaSR79lzj3AUXIZNL98H7xb7j3c7BEASAB8WTQef6JS2UTpBQIBv2LgVwCfOtlrGBitH2tYsmVgy0glswlRKYHuwOsUxbgdINND91fp9V6k1rwZQyvPnXOrbzzD/fBuuhtN2x4BGZOv1ifCAzrR5T09PdY9eISoIiFVfWyK2Wo7iPDuiKatr1Qmp9m/7JZ/drh7hGma9ay/SVDQp36cCNfhMDM8JzpCSB57MUa7j59z7Rzqd29B6/O/Rf3OFw/3MoMY3+xKqP9vPrZimVv/xSospKrnYf/SssP+UswsXoXUmrdgrOs4sI1PKSk/gcaeJ+Hd/HvUJBNTvXwbgd8Ricefq0Q2IYSoACXkD3wJML4M0KTbSbLiwkjwdUivvgAT7YFK5jNxjw6iadvD8L70RygTU9Z57pnQ8+/v6+ubrKu8cJB1WOfuU7V/Zca/YpIVF8R0RSTRc1uFowlRMauWLWvPejy3EOPCw71Or2tC+sgLMLziLOQXtFUqnqXawRhaXvoTGqOPgYzDTabhPAFficTj34DM1hbzwEq/P5AHRTFZDYFwrytb8/5tO7ftrWwyx3AFfepnifAVzHAHZTPawDpdGeuLbSpJsoOEfL61IPoNQIedmZht7UZqzUUYUU8Cu6ezIrw8yNCxoG8jvJvumWpVJAD0k0JXRHp67q9EtrloXhcAgQM9e7L5b4FwBab4PPS6ZoyETsNwaF3l+pawgfpdm9EUeRQN8aeg5KbsA59jxrcz+ey1O3fuHKtERCGEqKSw338cE90IxvFTvTbb6sNw6HSMhE5HvqG9EvGg5DJoiD+Npuj6/Tv7HvYHJABgN4M/E4vHb69EPlFZIb//TIBuA7Cs8Bgz7o8ltNfbEEuISqKwL/BuJv42pnjoDkXB2JI1GAmvw6j/hIrNCnSPDqIx+hiaIo+iJtU75esZeNpF+NB0G+0LUQ1Cfv+XALrW4tAYmD4cTfTcWvFQDqGq6ioX42cATi7yVBPM+IovoX6nnLPXjl68uGG0ru4rAH0Sk/ThfpXhqcOoejKGw+swvuRIq84PZVG7N4KmyKNojD0OV2ZoqpczAT9353Ofe2XHjnndFm3eFwBfFVbVM5jxYwBHTOf1uZZOjHW9BuNL12B8yeqS9p1yjadRv2sT6ndtwoK+5+AenebfKOFvZBgflkarQoh5wBXyBz4M8LUAWqZ8NSkYX7QK48uOwfjSozCxcHlJZ3TXpPr2X7d3bkb9zuen87AG2H8zcmOe8EVN01IlCyPmnJXd3Z15xXUXgFMOPcJ5Q1G6ZOmgmA98Pl+rR1G+AcYHAEz5C9Hw1GF82WswvvQojHWuQa7FVEOfNTJ01A5sR/3OTViw6wXU9W8FeFqT+FJM+GJM026CzPoT80zIr24GUNAbi/uI6JKIpj1lS6i579VZf18FUNwTDcKz0F3vi/ZGN5ck2TQEu4JryGXcCNP9i7V8QzvGuo/bXyNZehT0uqlv0adLyY6ifveW/TWS3ufhGdo53X/6kmHQh3p6e/5WsjAOJgXAg6xevbomMzz6IRA+A8A37X+oKJhoCyDbpiLbsgxZbxdy3i7oNQ0wahqs18YbBpTcGNzjKXhSvahJ70BNqg81++L7nzxO3qzSjLCJgf+MadpvAMzgHwohhLP5/f6lbqJrwPgggGk/iTE8dZhYuAJZ7zJkvd3ItSxDtmUZ2FM/6YwT0nNQchm4R/agJtmLmnQfPKkdqNu7Ha6x5MzDM3Z3J9Tu+dh/ZJ5yhVX1/zHjyzjk/os/G43Hv2NbKiEqbLmqnqgDXyLGBZjBb5H8gjZMdISRO3Ddznq7kG9cBMNTB3ZZT1BRchlQbhw16R3wpHegJtWLmmQfavdun+6DGgD7e3YCuNkgfFPTtN3T/odCVIlgd/B4UoxnCobvm9Dz75LWJdaW+/1HGKCfATipyFNVZNbfYVDYF3gXE38BpgLw4f4VIevt2l8j8Xb/7z23XtcCw7MAUCyeAzFDyY7CNTGy/5qdPFAnScZRu69nOqtqDhYH6NvejrabStQjsSpIAdDC6tWrayZGRi5n4AtTrX2fDsNTB6OmAay4oehZUG58Rjcdk+N/ENG1EU27F1L4E0LMY+FweKGRzX+KCB8F0FzUyYhg1DTA8CwAE0HJjUHJjh+2Cfzs8Vuj8fjdZTixmKPC3YE3scK34sDMVQaej8W119gcS4iKCwQCxyjMXwLjbZjGjMDDYcUNo6YehmcBiPnAdXt0Zg/UraUB+qEr5/me9DUT81lIVW8A4+MH/k+DGV+MJbRvQn6Dmqxdu9aTHhz8EjOuQZGz/ojxDGBcGUkkXipRvGIoIb//zYDyJYDXFnsyw1O3/8G7qwZk5KFkR0tTIyFsZ+A/W9vbfymFPzMpAB6eK+j3v4OgfBjgUzA3Pi8dwP0A/yAaj//F7jBCCDGXqKrqdTF9jMFXEmDvDiDT80g0rk26s7GoToFA4GjF4N8BCAGAAj5yezz+ss2xhLCFqqqrFKbPEvgSFPsAp3RiAN2iE/9QWjSI+W4d1rl7/VovgCUAjzDw3lg8/j9255qLwn7/awC6hYFjijkPA6PE9OloouenmIPtBoJ+/xsI9DEA52CSjc4qjAF6gmH8OBaP/wb7aybCwlwoaDlCuLs7BJfrcma8Gwdu2CvsOSLclgd+XemlB4FAYOWCkQU7tgxsmXILSyGEmCMo0B04TVGMKwC6GIC3km/OYCbL/g9mhkLH9PT0vFjuTGJuWblyZZOeydzOoAuIcF1E075gdyYh7NTV1VVf43a/hRjvBvjcw+32XiYpEO5kQ7ktloj9HTKzSQgAQNDvfyOB/ghgK+vKhbG+2Ha7M801q1evrpkYHf06Mz6NKTbNmIZHydDfH+ntjZYiWzn5/f6lHuAygK4otug5Oxxhpl+6Ydy2LZGIVf79nUcKgDNHwa7gUVCMs6DgbGKcjuk0oJ+5fgCPgOlh4vzDdl4ADmyQ8hCAPQTeAKINMGiDAn2L/A9NCDHXhcPhWuTzJzPzWYByFsAnoPibMysvM+hhwHiYgCMB+rfp/TP+STQev6oMecTc5wqr6r8z493RuOaHPLEWAgCwatmy9qzbvQ5QzlLAZzGwqgxvkwPoGSJ+CMDDcLufikQiE2V4HyEcLeRXfw1g0YSev0T6/ZmF/f7jGHQLgKOLOc9Bs/5+Agc+gAh1hcJQjLMAPguEMzHVru+zkwbhUTbwMAzl4VhfbDMc+FnZSQqAxXMFAoG1io5jQcZyMC0nwkoD6CagYRr/foiAHgO8HUzbScE26K5/RHujWzCH/phDfv83AfqcxSENwHMAbWQYz+nAxng8vqvC8YQQYtpWL1zdONE4dgqYV4OxnMHLAVoOYCmAmin+OQPYAyAGxjYi3gZWtufIePzga9/+pcjcC1DjNCKNe/K57ld27Jjmlu+i2oT9gQ/oBrbKDnVCWFvZ3d2pk/tUJmMFmJaDsBL72zwswtS/Z7IAdgG8nUDbDcI2heil2pEFT8jqFiEOLxgMtpCu/2t3PPAvsmnZof5v1h9/pgQzlh9xsfGBKppcs3/SlNt4LQwsB/FyBbSc91+3p2z1wMAoAQkwtoF4O1jZZrjwQk9PzwbIw9KiSAGwjNZhnTvSFWleoCheg6iFmRXD5cox85BhGOlEIpHCHCryHc7+3g/x9QCfOo2XZwFEQNhCwEswaAtDj+mKskXTtFLsfiKEEGWhqmodEbVQjppJyTcDgEI0Rro+RA0NQ1u3bh2e7rnCfvVHDHx4Wi9mXBPd30xbzFNdXV31fX1943bnEMJpVq5c2cSjo82GorQwUA8AbLiHqJbSuq4Pyb2nELMn303Wgt3B15LL+BkYa4o7E4+Alc84ddbfLJHP5/MqitJCRM2KrnuIyFCY02OGkerr60tDinxlIwVAMW0rfL6gTspGzHrJM48AeAXAy0T0MjO/wi7XFl/MF5MnSkKIarPc7z/CAG3B9L5rE91xNSTXQiGEEEKIuelAW5mvlWbWHz3khvHBrfF4T2nSCTE1KQCKGQn5/RcB9LsynDoJUAzEMQC72MBOBRRj6DF3ff22mcy6EUKIuSKsqvcz45zpvJbBb4vF4+W4vgohhBBCiCIEu4PHk2LcAmB1kacaBtNn59msPzFHSAFQzFjQH/gpgd9fuXfkPEA7mBEnBRoBPWDqg4E9UIwBGMaeBdns7hf7+0crl6lyVFX1upkDYKUrr/ADspRFCOcI+wIXMvG903z5+mhcO7OsgYQQQgghxLSpqlrnBr5amll//KChKB/o6emJlyadEDMjBUAxY0cvXtwwWlf/LIAj7M5SYAzAAIBdBN4L0ACDdjHxAJgHFEUZYMMYMRRlxKPrIxkguXDhwpENGzbkKh1UVdU6t9vdhImJZijKIhjKQnbxUjawGESLCNwJkI/AAQbaAOwA+NJoPP5EpbMKIYqihPzqNgCh6bzYUOiYnp6eF8ucSQghhBBCTGF5IHC6YRj/DVC4yFMlwfTJaKLnNsisP2EjKQCKWQkEAkcrBj8NoM7uLCUwAWAEQJqBIQKPADQCwjCYUyCa8UWamBoA1DGMFoAWYP/n5MX+/olNmHqn0YPP9hDcyjuj0eiemeYQQtgv7Pd/mkHfmd6r+SfRePyq8iYSQgghhBCTOXrx4obR+vrrwfgAAKWokxHuzTN/KB6P7ypNOiFmTwqAYtbC/sAHGPwTu3NUMZ0ZX4rt3xlUnhQJ4VCqqnpdzL0ANU7j5eOefK77lR07BsseTAghhBBCHCKsquuY8VNMc/XGZAjYB6YPRRI9d5UomhBFc9kdQDjXvnRqY1ur9zgAK+3OUoWSDL40lojfYncQIURxUqlUpt3b2g3g+Gm83GOQazCZTv293LmEEEIIIcR+qxeubmxe1PADML6P/S2YinGPTnhDLK49U4psQpRKcdNZxbznyta8H0C/3TmqzBMuPb8mFo//ye4gQojSIPAPMN2ZvISPrsO6IptMCyGEEEKI6Qj5/WeOLxh9EYyrUNwqyUFiujQa1y7SNG13qfIJUSpSABRF2bZz214ySPpVlQYT4bruuHrGtr6+HXaHEUKUzvZ4/GUiPDjNl/sS/p43lTWQEEIIIcQ8t3rh6saQqt4E0EMEBIo83e8MhVbLkl8xl8kSYFG0fUOpre3e1uUAjrY7i4OlQbgsqmk/1KAZdocRQpReW3NrCoTLpvNaAi1OplO/KHcmIYQQQoj5KOjzna3X5O8DcDaKmvXHe4mV90YT2ldSqdRoqfIJUQ6yCYgoiQNN7jcB1GV3FschbGJFuTgWi22zO4oQoqyUkF/dhmk2lTYUOranp+eFMmcSQgghhJg3Vq5c2ZSfmPg2GB9EkfUQBv+W3O6PRqPRPSWKJ0RZyRJgURKapqUMVt4H2a12Rgj42UQ+f6IU/4SYFwwC/2i6L1YM45/LGUYIIYQQYj4J+ALn5DMTm0rQ62+AmC6NxeOXSPFPOInMABQlFfQHfkrg99udwwGyYPpYNNFzs91BhBCVc2C2dC9AjdN4+bgnn+t+ZceOwbIHE0IIIYSoUl1dXW21bveNYFxS9MkIN+cM4wuJRCJZgmhCVJTMABQlpXhcnwYQtzvHXMZAD9g4RYp/Qsw/mqalGMqt03x5fdbl+UBZAwkhhBBCVLGwqr651uXeXILi3w5m5cKopl0txT/hVFIAFCUViUSGAJalwJO7ryafOz6aSGywO4gQwiYuugHTvEYS4SPrsM5d5kRCCCGEEFVl1bJl7SFVvZMZ9wBYWtTJCDfrhKNiidgfS5NOCHvILsCi5JLpdE+rt3URAcfbnWUO0ZnxxVhC+8je4eExu8MIIeyTTCYH21u9p2J6m4G0pL3JF5Lp9MvlziWEEEIIUQ1Cfv9FhuL6E4ATizsT9zFwWSwe/24qlcqUJJwQNpIZgKIsFI/rXyBLgV+VIoPeGkto10FmRgohAMCgH0z3pQT6WDmjCCGEEEJUgxWdKzpCqnonQL8DsKSokxFuZpfrqFg8/ufSpBPCfrIJiCibkN9/JkAPYX7/nT1JefelkR2RPruD/H/27j1Arrq+G//7c2Y2G7LZ3ZnZhGiyO3Pmkiy4QoEYghd4YsULKEJVrNrnsVVCUFDrT7Fg7aPgUy03+xRRKAFR2l+rNa2ClZtaDSDeYGOlbMiGuZyZXRJh3Z0zm2z2NnM+zx8E64UkJznn7Fz2/fpLk0/e+/YPk93vfL7nEFFDMdIJczfcbQHCMeSUQqHwi4A7ERERETWlVCLxVoF8EcAqT0GKERjYkrOs+/1pRtQ4uAFIgckViz8QyD/Xu0e9iODavqJ5Fg//iOgFOCL4otthw3E+EGQZIiIiomaUyWRWpk3z6wL5V3g7/FMItmrYOImHf9SqFvNmFi2AdavXrai1zT4JyIp6d1k4ul9FtuQt66v1bkJEjau/v7+zOjM7CqDLxfh0W3W+b9fTT48H3YuIiIioGWQX7xsdAAAgAElEQVTiyQtV9AsAjvcYVRJDLs4WCt/xoxdRo+JLQChQ4/vGD0QjkXGBnF/vLgtDn3AM4+yCZW2vdxMiamzj4+Nz0Ui0z+ULk9pqEpooV+xHAi9GRERE1MD6+/pWR6PRf1bBJwB0eIhyILhJ2sIXZvP5nX71I2pU3ACkhSDpRPK7gL6m3kUC9rWlBzouHhob2l/vIkTUHFKp1DqpObvg7t/jUl/RTG/H9mrQvYiIiIgaUTqe3ALRawBEPQUJnnJqclFhpPCwP82IGh8PAGlBpHpTayXkPA5gab27BGAOKh/MlQpb612EiJpPKm4+IILXuZlV6NvyxeK/Bd2JiIiIqJGs6+1dUwu13QroGz1GOSK4/sDc3Kf37NlzwJdyRE2CV4BpQZQnyxPR7khIBK+udxefWeoYb8iPFP693kWIqDlFu2O2iL7LzaxAVpUr9lcCrkRERETUMNLx5BY1jG8CONlj1G6oc0GuWPzyvn375v3oRtRMuAFIC2ZgYGDJzP6pnwN4Sb27+ELxQKi65H/u3rP7V/WuQkRNzUgnzN0A0m6GHUNOKRQKvwi4ExEREVFdZdZkejVc3QrgHI9RNRHcMFOtXj06OjrtRzeiZsQNQFowY2NjtUhX9L9E8Gdo7sNnRxUfz5esS8f3jXNtnIi80p5oJATg9W6GRTVcrlS4dUxEREStStLx5BaEnG8CeKmnIGCXQC/IFotfmZyc5HOUaVFr5kMYalLpROI2QDbXu8exEGDCgf6vfLF4b727EFHr6O/v76zOzI4C6HIxPt1Wne/b9fTT40H3IiIiIlpI6XS6D/O12yDuPhg9jJoIbqgCV1mWNeNLOaImxw1AWnArO1b9WEO1iwAsq3eXo/S41ozX5Uesn9a7CBG1lvHx8bloJNonwAYX4201CU2UK/YjgRcjIiIiWhjPbf2pcxcEAx6znhTB+VnL+opt29z6IzrIqHcBWnx279n9K6h8vN49jorg89IWPj0/mn+q3lWIqEWF5EYA6mZUBJduwqZwwI2IiIiIApdMJhOpuHk/RG+Fu9sQhzIvgqtrgtOylvUTv/oRtQpeAaZ6MdKJxE8BeVm9ixyOAlOAXpIvFv+p3l2IqPWl4uYDInidm1mFvi1fLP5b0J2IiIiIAmKk4ubHRPBJeL8d9nPHkPfwRWlEh8YNQKoXB8Cfw+W2S33I/hr0zTz8I6KFY9zkdlIgHwyyCREREVFQUr2ptelE4kERXANvh39zqrgysqJnIw//iA6PG4BUV+mE+VUA76h3j8M4oIpP50vWDQBq9S5DRC1P0glzF4B1boYdQ07hN7tERETURJ7f+vsUgOM8Zu04uPX3uB/FiFodNwCprqQa/thz12wb1jIRXJNOmI+m4/H19S5DRC1PRfD3bocNx/lAkGWIiIiI/JJMJvvTCfPhg1t/Xg7/5lRxZV/R3MjDPyL3+BZgqquJfROTsUh0GYCz6t3lCF4MkXfHIlFjde+an4yNjXEbkIgCsXLVqiGnWrsMQPuRp+XEVcs7/v5X+/ZNB16MiIiI6NiEUnHzLwzgqwBS3qL0Ma2F3pgfKXzDguX40o5okeABINVdR+fyH4cN408AROrd5QjCAF5dnZt/V7Q7trNcKefrXYiIWs/4+PhcNBLtFeB0F+NttVCoXLbtHwZejIiIiOgomaZ5Qk935G4RvAdAm4eoWVX8VbyUvOjnkz//pV/9iBYTPgOQGkLaNP8Yiq/Vu8dRUED//9B8+0d279n9q3qXIaLWkupNrZWQMwx3/06X+opmeju2V4PuRURERORSKBU3LxfBVQCWekoSPCqO855sqTTkSzOiRYobgNQQyrY9FItEXg3ArHcXlwSQP9BQ7U9j3dFnyxWbD+EnIt+UJ8sT0e7IK0SQdjHeXYmUHy9XKk8GXoyIiIjoCDLx+Esikei3RPBneO4W1bGaUcVfxYvm5h2VXzzjUz2iRYsvAaGGYQg+jOZ70+4qiN6ZTpj3JJPJRL3LEFErMW5yOymQDwbZhIiIiOhI1q9f35YxzWtUjP8UYKOXLFU8hFropHzJupa3HIj8wSvA1FAyCfMOBd5Thy+t8P7/hwOq+HS+ZN2A5jvIJKLGI+mEuQvAOjfDjiGnFAoFbiMTERHRgsskEqcC8mUF/sBLjgJTovKRXKlwOwC+5IPIR9wApMbSFr4CwL6F/rIixv+B4FGPMctEcE06YT6ajsfX+1KMiBYzVcEtbofFAbcAiYiIaEENDAwsyZjmNQr5qdfDPwDbDaf2B7lSYSt4+EfkOx4AUkPJZrNjgHx+ob+u1mRbn2W+QhUfBnS/x7hTIfKTtGneePKqVR2+FCSiRamtvf1LACbdzAr0XSesWdMTcCUiIiIiAEA6Hl8/s3/qUVVcAU9v+NX9ULkkV7T+MDsykvOtIBH9Fh4AUsPRkFwPYHwBv2QlN5LbuR3bq/mSdWMYOBmKB7xFShiKD00tPe7xVDx1tj81iWixGR4e3qeQf3Q5ftxcW9vFgRYiIiKiRS+TybRnTPMaiPwEwMke434QBk4+uPWnPtQjokPgASA1nHw+X4HiuoX6eiL4GX5jxXy4WCzkStYbROXtAMY8xqdEnO+kE4l/WLd63QqPWUS0GNXkRri8BiOK92/CJi9v2yMiIiI6pFRf6mU6P//Yc1t/4uF7jl9v/b1muFgs+NeQiA6FB4DUkGoGPg/FyAJ9uR+/0C9mS4Vt8+r0Q+D10ygB5H/V2uaeSMeT7/aQQ0SLUH40/xQU33U5Hh+NFy8ItBAREREtOs9v/YlR+zEgL/WWJv9REzmJW39EC4sHgNSQLMuaAeSvF+Jr6SEOAAGgVCqVc5Z1iQheDWC3xy+1CqJ3phPmPclkMuExi4gWERW9ye2sA+XLQIiIiMg3yWTydJ2vDnrf+sO+57b+Cq+1LMvyqx8RuSP1LkB0GKFMwnxCgRMC/BpOTdBjWZZ9pMHe3t7jlobDV6jiL+HpIbcAgAOq+HS+ZN0AoOYxi4han6QT5i4A69wMO4acUigUfhFwJyIiImphq1evXnbckiV/A9VLPR78QQTfrYlcXCgUin71I6Kjww1AamQ1FVwV8NfY5ebwDwBGR0ens5Z1lWPIBgge9fh1l4ngmnTCfDQdj6/3mEVErU9VcIvbYXHALUAiIiI6ZmuTybOOa1vyOBQf8nL4J8CEqLw9a1mv4+EfUX3xAJAaWs6yvg5gR1D5Cjnk9d9DKRQKv+izzFeo4sOA7vdY4VSI/CRtmjeevGpVh8csImphbe3tXwIw6WZWoO/ii4eIiIjoaJ28alVH2jRvdRz9AYC0pzDF3fPQl2ZLhW3+tCMiL3gASI1OIfhEUOEGnKM+AASA7dhezZesG8PAyVA84K2FhKH40NTS4x5PxpOv9ZZFRK1qeHh4n0L+0eX4cdUlc5sDLUREREQtJWOam6aWHvc4FFvg7axgXFTenitZFxSLxb1+9SMib/gMQGoK6YT5fQCv9jtX1BnIlko7veZk4skLVfSLAFZ6L4Vtobkll+7es/tXnrOIqKWkelNrJeTsgrtvykt9RTO9HdurQfciIiKi5jWwcmD5TMfU56C4GN7PCL5ZE1xqWdYv/ehGRP7hBiA1BRFcHUBsJVsq7fIjKFsqbJtXpx8C76+yV1xYa5t7Ih1PvtuPbkTUOvKj+aeg+K7L8fhovHhBoIWIiIioqaUTiT+cXjb1/Nafh8M//ZWovD1XtN7Cwz+ixsQDQGoKWct6EMD3fQ1V/ASA41dcqVQq5yzrEhG8GsBuj3GrIHpnOmHem0wmE370I6LWoKI3uZ11oHwZCBEREf2e/v7+zrRp3grI9wRIeskSyL85hsFn/RE1OB4AUhPRz/iaBhzT8/+OJGtZD87Wqqcc3Fqc9xh3juHozlTcvAJAyId6RNTk8sXivXD5IYMIzuKbxomIiOg3peKps6szsz5s/WFMVN6eLRbeVigUnvGrHxEFgweA1DRyxeL3Af2hX3kK+ZFfWb9rdHR0OmtZVzmGbIDgUY9xy0RwTSphPpbqS73Ml4JE1MxUBbe4HpbQ+4MsQ0RERM0hk8l0pU3zVhHnOwBMT2GCbQiHuPVH1ER4AEhNRYG/8SmqFloS+qlPWYdUKBR+0WeZr1DFhwHd7yVLgFPEqP04bZo3nrxqVYdfHYmo+bS1t38JwKSbWYG+a93qdSsCrkREREQNLBNPnqfz1Sd92PrbIypvzlnW23O53LN+9SOi4PFKITWVcqXyVCzS/SZAVntL0p25QuHv/Gl1eBYsp1yxf3p8JPI1R+UECDLHniYGgI3z4bZ3RLqjT9oVO+9bUSJqGuPj43OxSPcaQE53Md6GcM2esG3fNqiJiIioOfT29sZWxmJ3AvhrAJ2ewgRb59V5S6FU/IUv5YhoQXEDkJqPyOe8RiiMwLf/ftdwsVjIlaw3iMrbAYx5jEsZot9Jm+bXudlDtDhpLfR5uHyRkTp4/yZsCgdciYiIiBpIxjTPbw+Fn4DiQo9RTyv0TTnLuqRUKpV9KUdEC44HgNR0cpb1dXh9y67oI/60OXrZUmHbvDr9EGwFoJ7CFBfW2uaG0vHku/1pR0TNIj+afwqK77oaFvSNxosXBFyJiIiIGsAJa9b0pE3z66q4C8CLPYUJttYEL80Xi/f4046I6oUHgNSMHKjc4C0gmDcAu1Uqlco5y7pEBK+G18NM4HiI3plOmPcmk8mEH/2IqDmo6E1uZx3oB4PsQkRERPWXTiT+aD7c5sPWn44Cem7Osi6xLMv2px0R1ZOXh38S1U0mk2nX+WoBx/CJlgAT2aK1Al6373zS29t73NJw+ApVfBzAEo9xB1Tx6XzJugFAzYd6RNTYJJ0wnwTQ72panZflSqXBYCsRERHRQlu3et2K2pK5m3247qsQ3KaG8Rf5fL7iSzkiagh8CQg1pYmJiVo0GmkT4Oxj+OM/KFfsf/K91DGanJysTtj29kgs+i3DwXoI1niIaxPB2dFI5M3RrthgebK8x7eiRNSQot2RkAje4GZWRMITFftbQXciIiKihZNKJN6qIeceAG5eDnZoihEx8Mc5y/q7crk86087ImoUvAJMTWuuWt0K6P6j/XOqWPAXgLhRKBQe7y2Zr1TFh4/lf9dvEuAUMWo/TpvmjSevWtXhV0ciajxtx7XfAWDSzawC7+SLg4iIiFpDJpNZmTbNrwvkXwGs8hClEGyVJeGXZi3rAb/6EVFj4QYgNa3Jycnpnu7o8RCccXR/0vlMuVIpBNPKGwuWU67YPz0+Evmao3ICBJljTxMDwMb5cNs7It3RJ+2KnfetKBE1jPHx8blYpHsNIG4+9W9DuGZP2PYPAy9GREREgUnHk++G49wFr1t/QFEM+eOcZd04MTHBrT+iFsZnAFJTy/T1pdUI7Yb7bdZaeGl7dHh4eF+QvfySiScvVNEvAljpOUywLTS35NLde3b/ynszImokqd7UWgk5u+Du78KnIyt6koODg/NB9yIiIiJ/9ff1ra4Zxq0KeZPHKEcE1x+Ym/v0nj17DvhSjogaGq8AU1PLjozkANx/FH9kqFkO/wAgWypsm1enH4Kt8PrSEsWFtba5oXQ8+W5/2hFRo8iP5p+C4rsux9dUxibOD7QQERER+S4dT26pGqEhz4d/gqdUjf+RtawrefhHtHjwAJCan+Am17OKHwfYJBClUqmcs6xLRPBqAMMe446H6J3phHmvaZqmD/WIqEGoqOu/Cx3oB4PsQkRERP5Z19u7Jp0w74HorQAiHqIcEVw7PTd3Sr6U5+NAiBYZHgBS08tZ1gMC7HI1bDTfAeDzspb14GyteqoIrgYw5zHunJBiKBU3rwCfBUrUEvLF4r1w+SGBCM5Kx+PrA65EREREHqXjyS21UPgJAOd6jBqGOmdx649o8eIBILUCPXhF9ohqaMw3ALs1Ojo6nbWsqxxDNojiZx7jlongmlTCfCzVl3qZLwWJqJ5UFbe4HRYxLg2yDBERER27dDrdl06Y9/qw9VcTwbWzteqpuVLpEb/6EVHz4UtAqCWkUqluqTl7ACw7zNhYrmitgtdn6TUOIx1PboY4nwNkubcorULk5o7p6b98/JlnpvypR0QLrb+/v7M6MzsKoMvF+CzCoXgul3s26F5ERETkmqTjyYsheh2Abk9BwC5A35stFpv2FhQR+YcbgNQS8vl8RaHfONyMQH+K1jn8AwAnVypsrYmchKN7EcoLkDAUH5paetzjyXjytb60I6IF99xLjvQfXI63S612UaCFiIiIyLVUKhVPx837Dm79eTn8q4ng2qrgVB7+EdHzeABILSNkGLcdYaQl//GzLMvKFa1zROXtALxu8qQM0e+kTfPr61avW+FHPyJaWFoLfR6A42pWcdn69evbAq5EREREhyfpeHKL1Jz/guD1HrN2GoJXZi3rSsuyZnxpR0QtgQeA1DKeKhQeAvDkoX5fW/QA8HnZUmHbvDonHHweordNR8WFTtvccDqe3OJPOyJaKPnR/FMAvuNyfE1lbOKCIPsQERHRoaV705m0aT54cOvPzSM8DmVeFVdGVvSc8pRlNfVzz4koGDwApBYjd7zwr2u1Y2bG60szGl6pVCrnLOsSw5BNcPk20ENRIAbRW9MJ817TNE1fChLRglDoTa5nDf1gkF2IiIjoBRmpuHkFQrVfQHGmx6yfO4ZsyJesawcHB+d9aUdELYcHgNRSqnD+CUDtd39dIEOL6eUWTxUKD83WqqeK4GoAcx7jzgkphlJx8woAIR/qEVHA8sXifXD7IYDizHQ8vj7YRkRERPS8VCq1Lp1IPCiCa3D4lxgeydzBrb+NhULhF371I6LWxANAainFYnEvFN97gd/60YKXqbPR0dHprGVd5RiyQRRetx+XieCaVMJ8LNWXepkvBYkoSKqKW9wOixiXBlmGiIiIABzc+pOa85+AvMpblAxy64+IjgYPAKnlCOSffu8XVVr6+X+HUygUHs+WrJdD5RJA93vJEuAUMWo/TpvmjQMrB5b71ZGI/Nd2XPsdACbdzCrwJ+l0+viAKxERES1ayWSyP50wHz649Xech6hZVVzZV0ycUSgUHverHxG1Ph4AUstZNnvgGwr81nVfdYxFewB4kJMrFbbWRE4CcL+3KAlD8aGZZVO/yCSTr/OlHRH5bnh4eB+gd7ocb5dqdXOghYiIiBanUCpuXmE4+nMAr/AWpY/BCb0sX7Ku3Y7tVV/aEdGiIfUuQBSEdML8KoB3HPyvz+SK1ovq2afRZOLJC1X0CwC8b/wItkk4fFk2mx3z3oyI/JTqTa2VkLML7j7w2xNZ0WPyGhEREZE/1iYSJzqQLwF4uceoWVV8Kl4yP8eDPyI6VtwApNYk+Jf//o/6aD2rNKJsqbBtXp0TINgKQD2FKS7EfHVXOp7c4k87IvJLfjT/FIDvuBxfXRmbuCDIPkRERItEKBU3r3AgO+Dx8E8UPxN11nPrj4i84gEgtSQJh+/DwWdfOSKP1LlOQyqVSuWcZV1iGLIJbt8WeggKxCB6azph3meapulLQSLyhUJvcj1r6AeD7EJERNTq1prmKamE+djBZ/0t9RB1QBUf7i2Zr8yWSkN+9SOixStU7wJEQZiYmKjFIpGTAZxkCP56wraL9e7UqCZsu9jRufxLbSGjiueeS+Ll74WMAWyJdkdq5Yr9E3jdLiQiz8qVSjYWibwDwAoX44loV+ye8mR5T9C9iIiIWsnAwMCS7o6Oz6jiDgHWeMlSxUOG1t6QGyndZ8Fy/OpIRIsbNwCpZYnKNwGtHpib4xXgIxgdHZ3OWtZVjiEbRPEzj3HLRHBNKmE+lupLvcyXgkTkhUJxs9thw3AuDbIMERFRq8kkEqfN7J96VBVXAGg71hwFpqBySb5kvTo7MpLzsSIREV8CQq1rYOXA8pllB+7PFQuvqneXJmOk48nNEL0BQKe3KK1C5OalUx2fGBob2u9LOyI6av39/Z3VmdlRAF0uxmcRDsVzudyzQfciIiJqZgMDA0tmp6Y+rYqPwMPB30HbQ+pctLtUyvvRjYjod/EKMLWssQNjc9FI9y/LlcpT9e7SZLRcsQe7o5GvGsAJADLHHiUGgI3zbfPv7IlFn5ywbX6SSVQH4+Pjc7FI92pANroYD4vj2BOVysOBFyMiImpS6Xh8fbVavReKt8DTz9W6H2p8MFey/ny8Uin7VpCI6HdwA5CIDisTT16ool8AcLznMME2CYcvy2azY96bEdHRSPWm1krI2QV3j//YE1nRYw4ODs4H3YuIiKiZZDKZdlSrV6vqRwEJe4z7fhi6ebhYLPhSjojoMLgBSESHNVGxd3ZHI7cbghiA0+Dtg4MBcZyLot1Ru1yxB32qSEQulCfLE7FI5OVwt9XbOTs1818TFXtn0L2IiIiaRaovtQFavQeQtxy86XKs9kHlQ7mS9WFu/RHRQuEGIBG5tjaZPMtxdCuAfh/itmvN2JIfzfOKNtECSSUS5wrkHlfDgodzlnVWwJWIiIganr9bf/q9msjFlmVZvpQjInKJB4BEdFR6e3uPWxoOX6GKjwNY4jFuWhVX50vWDQBqPtQjosOTdMJ8Ei4P8dUxNuRH8o8F3ImIiKhhJZPJ0w1HvwzgJR6jJqHysVypcBsA9aEaEdFR4RVgIjoqk5OT1Qnb3h6JRb9lOFgPwRoPcW0iOLsnEjk/0hUbLE+W9/hWlIheUKw7YkBwjptZQ7RtomLfHXQnIiKiRnPyqlUdy1eu/IIobobHZ2Gr4N/bnNo5T40Ut/vTjojo6HEDkIi8MNLx5GaI3gCg01uUViFy89Kpjk8MjQ3t96UdEf2e/v7+zurM7CiALhfjswiH4rlc7tmgexERETWKjGn+D1V8CUDaS44AE1B5X7ZU2OZTNSKiY8YNQCLyQssVe3Bl5/J/UMNIATjh2KPEALBxvm3+nT2x6JMTtp3zqyQR/bfx8fG5WKR7NSAbXYyHxXHsiUrl4cCLERER1dnzW39QfB5AzFOY4u6q6BsLJeun/rQjIvKGG4BE5JtMPHmhin4BHq9JAAAE2yQcviybzY55b0ZEvynVm1orIWcXADdvMNwTWdFjDg4Ozgfdi4iIqF7SicSrAbkdQMpj1LiovJ9bf0TUaLgBSES+majYO7ujkdsNQQzAafD2IcMAHGdzrDtaLlfsHT5VJCIA5cnyRCwSOQPAWhfjnbNTM09MVOyhoHsREREttIGVA8u7ju+4CZAb4XXrD/hmTfDGfNH6mR/diIj8xA1AIgrE2mTyLMfRrXD5ttEj2K4h45J8Pr/bhywiApBOJM4B5F530/rDXLF4ZrCNiIiIFlYqHn8NxLhNgKS3JP2VqHEpt/6IqJHxAJCIAtPb23vc0nD4ClV8HMASj3HTqrg6X7JuAFDzoR7RYifphPkkXB7Sq2NsyI/kHwu4ExERUeD6+/s7q7OzN0BxMTz+TCyQf6sZuKxQKDzjUz0iokDwCjARBWZycrI6YdvbI7Hot6A4TYBeD3FtIji7JxI5P9IVGyxPlvf4VpRokYp1RwwIznEza4i2TVTsu4PuREREFKRUPHW21qr3A3gNvB3+jYnKe7KlwlW2bU/5VI+IKDDcACSihWKk48nNEL0BQKe3KK1C5OalUx2fGBob2u9LO6JFqL+/v7M6MzsCoNvF+KxjSIIbDkRE1Izi8Xi0TeRGQP4nPP8crP+IcPjyXC73rC/liIgWADcAiWihaLliDx7f1XmnI0YKwInHHiUGgI3zbfPv7IlGdk3Yds6vkkSLyfj4+Fws0r0akI0uxsOiapcrlYcDL0ZEROSjTF/yzYYh9wHySng7/NujarwrX7KuLZfL3PojoqbCDUAiqotMPHmhin4BwPGewwTbJBy+LJvNjnlvRrS4pHpTayXk7AJguBjfE1nRYw4ODs4H3YuIiMir3t7eWHs4/PdQXOg5TLC1BlxhWZbtQzUiogXHDUAiqouJir2zOxq53RDEAJwGbx9IDMBxNse6o+Vyxd7hU0WiRaE8WZ6IRSJnAFjrYrxzdmrmiYmKPRR0LyIiIi/SpnlBWIx7AbjZcj+cpxX6znyx+H9t257xoxsRUT1wA5CI6m5tMnmWOnqrAif4EPeghowt+Xx+tw9ZRItCOpE4B5B73U3rD3PF4pnBNiIiIjo2J6xZ0zPf1nYLt/6IiH4bDwCJqCH09vYetzQcvkIVHwewxGPctCqujpfMz23H9qof/YhanGQS5k63h/DqGBvyI/nHgi5FRER0NFKJxFsEcjOAVZ6CFCMQvSRXLN7nTzMiovrjFWAiagiTk5PVCdveHu2M3Q1DTxOg10NcmwjO3hexz490xQbLk+U9vhUlalHR7qgBwTluZgW6pFyx7w66ExERkRvrVq9bEenp/IpArgaw3EOUQnCbhoy35C3rCb/6ERE1Am4AElEjMtLx5GaI3gCg01uUViFy89Kpjk8MjQ3t96UdUQvq7+/vrM7MjgDodjE+6xiSKBQKzwTdi4iI6HAy8eTbVPSL8P5iuZIItmQt6wE/ehERNRpuABJRI9JyxR48vqvzTkeMFIATjz1KDAAb59vm39kTjeyasO2cXyWJWsn4+PhcLBp5Mdw9LD0sqna5Unk46F5EREQvJJPJrIx2dX0FwFUAOjxEKQS3SVv4j7L5/E5fyhERNSBuABJRw8vEkxeq6Bfg/ZNdQLBNwuHLstnsmPdmRK0l3ZvOIFQbBmC4GN8TWdFjDg4Ozgfdi4iI6Del48ktEL0GQNRbkmYdx3hvYaTAD7SIqOVxA5CIGt5Exd7ZHY3cbghiAE6Dtw8vBuA4m2Pd0XK5Yu/wqSJRSyhPlidikcgZANa6GO+cnZp5YqJiDwXdi4iICADW9fauiUaj/wzBRwEc5yHKEcF10/Pz7xx5eoS3Q4hoUeAGIBE1lWRf8syQoVvdvq30CB7UkLEln8/v9iGLqCWkE4lzALnX3bT+MFcsnhlsIyIiol9v/V0LIOIxag+BsvgAACAASURBVLeqcVG+lP+hH72IiJoFDwCJqOmYprk0DFypio8DWOIxbloE13X39HyGVxmJAACSSZg73R6yq2NsyI/kHwu6FBERLU6ZNZleDVdvBXCuxyhHBNfPVKtXj46OTvvRjYiomfAKMBE1Hdu2qxO2vT3aGbsbhp4mQK+HuDYAm2YPTL850hUbLE+W9/jVk6hZRbujBgTnuJkV6JJyxb476E5ERLT4pOPJLQg53wRwkseoYUAvyBWLX56cnKz60Y2IqNlwA5CImp2Rjic3Q/QGAJ3eorQKkZuXTnV8YmhsaL8v7YiaUH9/f2d1ZnYEQLeL8VnHkEShUHgm6F5ERLQ4pNPpPlRrWwG8wWNUTQQ3cOuPiIgbgETU/LRcsQeP7+q80xEjBeDEY48SA8DG+bb5d/ZEI7smbJsPhaZFaXx8fC4WjbwYwEYX42FRtcuVCt+gSEREXkk6ntwCdb4J4KWegoBdAr0gWyx+hVt/RETcACSiFpOJJ89T0VsArPEcJtgm4fBl2Wx2zHszouaS7k1nEKoNAzBcjO+JrOgx+RxNIiI6VqlUKo6qc5sIXucxqiaCG6rAVZZlzfhSjoioBXADkIhaykTF3t0djdxhCGIAToO3DzoG4DibY93Rcrli7/CpIlFTKE+WJ2KRyEYAa12Md85MTw+VbXso6F5ERNRyjFTc/JCobhPBSzxm7TQE52ct607btrn1R0T0G7gBSEQtK9mXPDNk6Fa3bzM9ggc1ZGzJ5/O7fcgiagpp03wDFPe5m5ZHcsXCq4JtRERErSTVm1orYedLUJzpMWpOFZ+Mruz5W26jExG9MB4AElFLM01zaRi4UhUfB7DEY9y0CK7r7un5DL+5pEVCMglzp9tDdHWMDfmR/GNBlyIioqZnpOLmx0TwSQDLPGbtcAx5T6FQeNyPYkRErYpXgImopdm2XZ2w7e3RztjdYuipAHo9xLUB2DR7YPrNka7YYHmyvMenmkQNK9odNSA4x82sQJeUK/bdQXciIqLmlUql1sW6IneJ4L147nurYzWnik9EV/ZctHPnzr1+9SMialXcACSixcRIx5ObIXoDgE5vUVqFyM1Lpzo+MTQ2tN+XdkQNqL+/v7M6MzsCoNvF+KxjSKJQKDwTdC8iImo6oVTcvFwEnwJwnLcoGdSavCc/mv8vX5oRES0C3AAkosVEyxV78PiuzjsdMZIATjz2KDEAbJxvm39nTzSya8K2c36VJGok4+Pjc7Fo5MUANroYD4uqXa5UHg66FxERNQ/TNE/o6Y7cJYL3wNvW36wq/ipeMi/6+eTPf+lXPyKixYAbgES0aGXiyfNU9BYAazyHCbZJOHxZNpsd896MqLGke9MZhGrDAAwX43siK3pMPieTiIjg59af4FHUQu/NjeSe8KcaEdHiwg1AIlq0Jir27u5o5A5DEANwGrx9KDIAx9kc646WyxV7h08ViRpCebI8EYtENgJY62K8c2Z6eqhs20NB9yIiosa1NpE4MRqJ3i2CP4MfW39FczO3/oiIjh03AImIACT7kmeGDN3q9m2nR/Cghowt+Xx+tw9ZRA0hbZpvgOI+d9PySK5YeFWwjYiIqEE9v/V3FYClXoJE8TPAeU+2VNrpTzUiosWLB4BERAeZprk0DFypio8DWOIxbloE17V3dHx2aGhozo9+RHUmmYS50+0huTrGhvxI/rGgSxERUeNYa5qn1BRfFuAULzkKTInKR3Klwu0AHJ/qEREtarwCTER0kG3b1Qnb3h7tjN0thp4KoNdDXBuATdW5+fMjsegO27af9qkmUd1Eu6MGBOe4mRXoknLFvjvoTkREVH8DAwNLujs6PqOKO8T7s5UfNJzaObmR4vcAqB/9iIiIG4BERIdipOPJzRC9AUCntyitQuTmpVMdnxgaG9rvSzuiOujv7++szsyOAOh2MT7rGJIoFArPBN2LiIjqJ5NInKaQLwM42UvOb2z93QYe/BER+Y4bgEREL0zLFXvw+K7OOx0xkgBOPPYoMQBsrLbNv6snGtk1Yds5v0oSLaTx8fG5WDTyIgBnuBgPi0qlXLEfCroXEREtvF9v/QF3APJij3E/CKtzTrZU/J4v5YiI6PdwA5CIyIVMPHmeit4C79daAME2CYcvy2azY96bES2sdG86g1BtGIDhYnxPZEWPOTg4OB90LyIiWjipvtTLJOTcAcVJ3pJ0P9T4KLf+iIiCxw1AIiIXJir27u5o5A5DsAzABnj7AGUAjrM51h0tlyv2Dp8qEi2I8mR5IhaJbASw1sV458z09FDZtoeC7kVERMHLZDLtsa6uz0CcL3nf+pP/CEPPfapk/Yc/7YiI6HC4AUhEdJSSfckzQ4Zudfs21CN40DHkkkKhMOxDFtGCSJvmG6C4z920PJIrFl4VbCMiIgpaqi+1QQznywAGPEbtg8rl3PojIlpYPAAkIjoGpmkuDQNXquLjAJZ4jJsWwXXtHR2fHRoamvOjH1HAJJMwd7o9BFfHOD0/kn806FJEROS/g9/zXKWqHwUk7C1Nv+cYxuZCoVD0px0REbnFK8BERMfAtu3qhG1vj3bG7hZDTwXQ6yGuDcCm6tz8+ZFYdIdt20/7VJMoMNFIVACc62ZWoEvKFfuugCsREZHP1iaTZ4nq/YC8+eBLzY5VGSrvy5Wsj9m2bftWkIiIXOMGIBGRd0Y6ntwM0RsAdHrMciC4felUx0eHxob2+1GOKAj9/f2d1ZnZEQDdLsZnHUMShULhmaB7ERGRdyevWtUxddxxfwvFZrh76dOhCb5VVX1fsVjc6087IiI6FtwAJCLyTssVe/D4rs47HTGSAE70kCUA1lfb5t8Vi0aGy7ad9akjka/Gx8fnYtHIiwCc4WI8LCqVcsV+KOheRETkTcY0N82F2+4D8Fp4WBgRYEJU/jRXtP53pVLhh5pERHXGDUAiIp9l4snzVPQWAGs8hwm2IRT6QC6Xe9Z7MyJ/pXvTGYRqw3C3HbInsqLHHBwcnA+6FxERHb2BlQPLZzqmPgfFxfD+c+JdNcH7Lcv6pR/diIjIO24AEhH5bKJi7+6ORu4wBMsAbIC3b6IH4OjmWHe0XK7YO3yqSOSL8mR5IhaJng5gnYvxzpnp6Z1l234i6F5ERHR00onEq+fb5u8X4Gx4+75lXFT+LFeyPmnbNrf+iIgaCDcAiYgClOxLnhkydKvbt6Uejioe0pBsKRQKw350I/JDxjRfr4r7XY7/KFe0XhloISIics3nrb9vOIZcyue9EhE1Jh4AEhEFzDTNpWHgSlV8HMASj3HTIriuvaPjs0NDQ3N+9CPySDIJc6fbQ251jNPzI/lHgy5FRESHl4rHXyNi3A7A9JakvxI1Ls2WCtv86EVERMHgFWAiooDZtl2dsO3tsa6euyB6GoBeD3FtADZV5+bPj8SiO2zbftqnmkTHLBqJCoBz3cwKdEm5Yt8VcCUiIjqE/v7+zkhn500C+TsAUS9ZCv1XCYffmLP4wQ4RUaPjBiAR0cKSdDx5MUSvB9DlMcuB4PalUx0fHRob4nN2qG4GVg4sn1k2NQqg28X4rGNIglfEiIgWXjKefK0hehuAhMeoMVG5jFt/RETNgxuAREQLrFyxB4/v6vwHR4wkgBM9RAmA9dW2+XfFopHhsm1nfapIdFTGDozNxaKRFwE4w8V4WFQq5Yr9UNC9iIjoOb29vbGVsdidAlwDIOIpTLB1Xp0LCqXioD/tiIhoIXADkIiojjLx5HkqeguANZ7DBNsQCn0gl8s9670Z0dFJ96YzCNWGARguxvdEVvSYg4OD80H3IiJa7DKmeb4qbgHwYo9RT6sa78uX8t/2oxcRES0sbgASEdXRRMXe3R2N3GEIlgHYAG8fzAzA0c2x7mi5XLF3+FSRyJXyZHkiFomeDmCdi/HOmenpnWXbfiLoXkREi9UJa9b0dPf03AnF/wHQ6SlMsLUmeEuhWHjcn3ZERLTQuAFIRNQgUvHUq0ScrfB2LRgAoIqHNCRbCoXCsA/ViFzJmObrVXG/y/Ef5YrWKwMtRES0SKUTiT8C5GYAL/KWpKMKXJIvFu/1pRgREdUNDwCJiBqIaZpLw8CVqrgSQLvHuGkRXNfe0fHZoaGhOT/6ER2BZBLmTgVOcDOsjnF6foRvjiQi8su61etW1JbM3QzFhZ7DBFvVMP4in89XfKhGRER1xivAREQNxLbt6oRtb4919dwF0dMA9HqIawOwqTo3f34kFt1h2/bTPtUkOqRoJCoAznUzK9Al5Yp9V8CViIgWhVQi8VYNOfcAON1TkGIEBt6Rs6y/K5fLs/60IyKieuMGIBFR45J0PHkxRK8H0OUxy4Hg9nB7++XDw8P7/ChH9EIGVg4sn1k2NQqg28X4rGNIolAoPBN0LyKiVpXJZFZqtfpFH7b+FILbuPVHRNSauAFIRNTAyhV78Piuzn9QCZkAXuIhSgCsd6q1d8eikXzZtnf505Dot40dGJvr6Y6sguAMF+NhUZksV+yHAi9GRNSCMvHkheo434bXrT+gJIb8cc6ybuTWHxFRa+IGIBFRk8jEk+epODcD4uVa8HME2xAKfSCXyz3rQzWi35Lp60urEdoNwHAxvjeyoicxODg4H3QvIqJW0d/Xt7pmGLcq5E0eoxwIviDh8P/OZrOTvpQjIqKGxA1AIqImMVGxd3dHo182BMsAbIC3D3EG4OjFse5ouVyxd/hUkQgAMDE5WY5FoqcDWOdivHNmenpn2bafCLoXEVErSMeTWxxDvgHIH3gKEjzlOPKWfMm6dWJiglt/REQtjhuARERNKBVPvUrE2QrgRK9ZqnhIQ7KlUCgM+1CNCACQMc3Xq+J+l+M/yhWtVwZaiIioya3r7V1TC7XdCugbPUY5Irj+wNzcp/fs2XPAl3JERNTweABIRNSk1q9f31YeG/+ICK4G0O4xbloE17V3dHx2aGhozo9+tOhJOmEOweUhtTrG6fmR/KMBdyIiakrpeHILRK8FEPEYtRvqvDdXKj3iRy8iImoevAJMRNSk9u7d65Qr9iOxrp67IHoqgD4PcW0ANlXn5s9fEY38fMK2n/apJi1iPZFuAHKum1kxtL1s23cFXImIqKlk1mR6o7Gur0Hw/wFY6iGqJoLrZ2vVdxZHRvJ+9SMioubBDUAiotYg6XjyYoheD6DLY5YDwe3h9vbLh4eH9/lRjhangZUDy2eWTY0C6HYxPusYkigUCs8E3YuIqAk8/+/6dXD3d+ihg4BdCr0oVyz+yKduRETUhLgBSETUIsoVe7Ar0n1nCIYJ4CUeogTAeqdae3csGsmXbXuXPw1psRk7MDbX0x1ZBcEZLsbDojJZrtgPBV6MiKiBpdPpvlhn979A8GH4sPU3U6u+qzgyUvCrHxERNSduABIRtaBMPHmeinMzIL2ewwTbEAp9IJfLPetDNVpkMn19aTVCuwEYLsb3Ll3eYfI5lES0SPm5zf+kCN6btayf+FGMiIiaHzcAiYha0ETF3h3t6blDoMsAbIC3D3wG4OjFse5ouVyxd/hUkRaJicnJciwSPR3AOhfjndX5+Z1l234i6F5ERI0kmUwmYl2Rf5Hntv68vNirJoLra4J35i3L8qkeERG1AG4AEhG1uFQ89SoRZytcvo31cFTxkGPgEsuyeC2YXMuY5utVcb/L8R/litYrAy1ERNQ4jFTc/JgIPglgmZcgBf4zJHjPU5b1nz51IyKiFsIDQCKiRWD9+vVt5bHxj4jganjbLACAaRFc197R8Vle1SSXJJ0wh+DyEFod4/T8SP7RgDsREdVVqje1VkK1OwB5lceoOVV8Mrqy528HBwfnfSlHREQth1eAiYgWgb179zrliv1IrKvnLoieCqDPQ1wbgE3VufnzV0QjP5+w7ad9qkktrCfSDUDOdTMrhraXbfuugCsREdWLkYqbfyGGfhWQtMesHY4hbywUrW/s3bvX8aUdERG1JG4AEhEtPn4+ZNyB4PZwe/vlw8PD+/woR61pYOXA8pllU6MAul2Mz9UECcuyfhl0LyKihZRMJvsNB18C1OujDrj1R0RER4UbgEREi1C5Yg92RbrvDMEwAbzEQ5QAWO9Ua38ai3QXypUKnw1IL2jswNhcT3dkFQRnuBgPGZDJcsV+KPBiREQLI5SKm39hAF8FkPIWpY9pLfTG/EiBW39EROQaNwCJiBa5TDx5nopzMyC9nsME2xAKfSCXyz3rQzVqMZm+vrQaod0ADBfje5cu7zD5nEkianamaZ4QUtwB4OUeo2ZV8al4yfzcdmyv+tGNiIgWD24AEhEtchMVe3e0p+cOgS4DsAHePhwagKMXx7qj5XLF3uFTRWoRE5OT5Z5I9wZA1rkY75yfn3+ybNtPBF6MiCgYz2/9fQ1A0lOS4FFR59xcqfhNCxa3/oiI6KhxA5CIiH4tFU+9SsTZCpdvaz0cVTzkGLjEsixeC6ZfyySTr1NHH3A5/uNc0XpFoIWIiAKwNpE40YHcAbh67MHhzKjiKm79ERGRVzwAJCKi37J+/fq28tj4R0RwNYB2j3HTIriuvaPjs7zKSQdJOmEOweUhszrG6fmR/KMBdyIi8sX69evbKuPjn1DFFQCWeslSxUPihC7KjeayPtUjIqJFjFeAiYjot+zdu9cpV+xHop2xfxFDTwJgeohrA7CpOj9/wYpIZMeEbT/tT0tqZj2RbgByrptZMbS9bNt3BVyJiMizTCJx6uyB6XsU+GMA4WPNUWBKVD6YL1l/Xp4sj/tYkYiIFjFuABIR0eFIOp68GKLXA+jymOVAcHu4vf3y4eHhfX6Uo+Y0sHJg+cyyqVEA3S7G52qChGVZvwy6FxHRsRgYGFgyOzX1aVV8BM998OXFdnFqm7MjIzk/uhERET2PG4BERHRY5Yo92BXpvjMEwwTwEg9RAmC9U639aSzSXShXKnw24CI1dmBsLhqJHC/u3ogZEsW+csV+MPBiRERHKZNInFadm78HwFvh6Wcr3Q81PpgrWX8+MTk54Vc/IiKi53EDkIiIXMvEk+epODcD0us5TLANodAHcrncsz5UoyaT6etLqxHaDcBwMb536fIOk8+RJKJG8d9bf/pRQI75uu9BPwhDLxouFgu+lCMiInoB3AAkIiLXJir27mhPzx0CXQZgA7x9kDQARy+OdUfL5Yq9w6eK1CQmJifLPZHuDYCsczHeOT8//2TZtp8IvBgR0RGk+lIvq83P3gvIWwBx8yHGIfz31t94pVL2ryEREdHv4wYgEREdk1Q89SoR51Z4uxb8HMHDNWCLZVm8FryIZJLJ16mjD7gc/3GuaL0i0EJERIeRyWTaUa1e7c/Wn/xHTXSzZVmWL+WIiIiOgAeARER0zNavX99WHhv/iAiuBtDuMW5GBNe2d3R8llc9Fw1JJ8whACe6GXYM2VgoFH4WcCciot+TTCZPNxy9A8CAx6h9ULk8VyrcBkB9qEZEROQKrwATEdEx27t3r1Ou2I9EO2P/IoaeBMD0EBcGsKk6P3/Bikhkx4RtP+1PS2pkPZFuBeSNbmZFdWm5Uvlm0J38llmT6Y1Gl68tVyp7692FiI7O6tWrlx3f03ODqP49IC/ykiWC7zqGnJMvFr7vVz8iIiK3uAFIRER+kXQ8eTFErwfQ5THLgeD2cHv75cPDw/v8KEeNaWDlwPKZZVOjALpdjM/VBAnLsn4ZdC+/pHpTJ0nI+baGjJPz+Xyl3n2IyL21yeRZznNbf2kvOQJMQOV92VJhm0/ViIiIjpqHh9YSERH9Fs2VClur0BMU+q8eswwotlRnZnelE4k/8qUdNaShsaH9CtzhcnyJ4WBLoIV8lDHNMyTkPAggz8M/ouZx8qpVHWnTvNVx9AfwePgHxd3z0Jfy8I+IiOqNG4BERBSITDx5nopzMyC9XrME+m2jVnvf7tFRXgtuQZm+vrQaod1w98Hk3qXLO8xGf05kKp46W6T2TUCWC/Sj2WLxb+vdiYiOLGOam1TxJQApj1HjovJ+HvwREVGj4AYgEREFIlsq/LuGQi+F4PMAHC9ZCnlTLRR+Ih1PbgE/vGo52ZGRnEDvdTn+4umpqbcGWsijVCLxFhHn24AsBwA4zt11rkRERzCwcmB52jRvVcX34f3w75s1Abf+iIioofCHKCIiClw6Hn8lxNgK4CWewwQP14AtlmXt8t6MGkUmmXydOvqAy/Ef54rWKwItdIxSicRbBfJP+PVbsTWbKxbX1rUUER1WOpH4Q4XcLkDSW5L+StS4lAd/RETUiLgBSEREgcuVSo9EVvScooorAcx6ClOcGVL8PGOaVw0MDCzxpyHVW7ZQ+C6AJ12OvzyZTJ4eZJ9jkTLNDwtkG359+AcoDLeHmkS0wPr7+zvTpnkrIN/zevgnkH9zDINbf0RE1LB4AEhERAticHBwPl+yrtWacRKAH3iMW6qKT81MTT2WMc0z/OhHdacC/YLbYcNxPhBkmaOVMc1rRPF/8Tu3KwTOf9SpEhEdRiqeOrs6M/s4FF4fLTEmKm/PFgtvKxQKz/jVj4iIyG+8AkxERPUg6XjyYoheD6DLY5YDwe3h9vbLh4eH9/lRjupjYOXA8pllU6MAul2Mz9UECcuyfhl0ryOQtGn+HRQfeoHfq9UEKyzLshe8FRG9oEwm06XV6vVQXAyvPwsJtiEU+kAul3vWn3ZERETBCdW7ABERLU7lij3YFem+U4CEQLw8G1AArHeqtT+NRrqtcqXi9hopNZixA2Nz0UjkeAFe7mI8JIp95Yr9YODFDmETNoVDJr58cIPo9wkGC5Z10wLXIqJDyMST56nj3A9gE7wd/u0RlT/JFa3PlMvlKX/aERERBYsbgEREVHeZePI8FedmQHq9Zgn020at9r7do6NP+9GNFlamry+tRmg33D2mZO/S5R3m0NDQXNC9flcmk2nX+erXAFxwqBlV/E2+ZP3lAtYiohfQ29sbaw+H/x6KCz2HCbbOO86VpVKp7EM1IiKiBcNnABIRUd1lS4V/11DopRB8HoDjJUshb6qFwk+k40mvz3WiOsiOjORUcI/L8RdP79//tkALvQDTNJce6fAPAET04QWqRESHkDHN89tD4Sd8OPx7WqFvylnWJTz8IyKiZsQfjIiIqKGk4/FXQoytALxcC36O4OEasMWyrF3em9FCScaTrzVEv+Ny/Ce5ouXmyrAvent7Y0uN8H0qONJbiGvSFo5ls9nJBSlGRL/lhDVreubb2m7xa+uvBlzB53kSEVEz4wEgERE1nPXr17eVx8Y/IoKrAbR7jJsRwbXtHR2frcdVUTomkk6YQwBOdDPsGLKxUCj8LOBO6O/rW101jAcAeekRhwX/lbOsk4PuRES/L51I/BEgNwN4kbckHQWwJVcs3udHLyIionriFWAiImo4g4OD8/mSda3WjJMA/MBj3FJVfGpmauqxjGme4Uc/CpwK9Atuhw3H+UCQZQAglUrFq0bo+64O/wDAwY8CrkREv2Pd6nUr0qb5dUC+AW+HfwrBVg2FXsrDPyIiahXcACQiokYn6XjyYoheD6DLY5YDwe3h9vbLh4eH9/lRjoKxevXqZcvalowoEHMxPlcTJCzr/7V353FyXPW997+/6p7RaJ+RZMuSRt3Vi2TsscELEIwXZLMFMCQsIUAiOxtygJuYQHjs3OQCSS7PxQEcAg8EG15JMIQ8Ybkk1zZbwBaL2YwwXmRsqZfqnvFYRrak0TpLd537h0Viz4ykmamarumZz/sfzKnq3/mqpJen/dOpc4I9s5Ell8ud6YXuG5IyU/6Qs6vL9eots5EHwET5bPa1JvuYpLWRCjn1m6c3l4Lg6/EkAwBgbmAFIABgrnPlevXmhtwznNwXI9by5LStMTzyUD6bfU0s6TArBgcHj4bSp6d4e6cX6prZyFHMZPq80N2h6TT/JLm0/XA28gB4umKxeFrB9z9vsi8qWvPPyXSzdabPofkHAJiPWAEIAGgrxUzulU7uYzJtjFrL5G7zms0/3DUw8Egc2RCv4saNBeeldmlqf2H5aNeypX6c+zzmM/lLzMLbJK2c5kefKNeCNXHlADC5QiZ31fHV4adHLFUzz7aVqtWpHj4EAEDbYQUgAKCtlOrVW13aO1emj0gKo9RysiubqfQD+Yx/rfiZOOeU+vvLznT7FG9fd+zw4dfFNXchm32ZWfh1Tb/5J8ndE1cOABOduXHj+mI2e6vMfVrRmn+hmW44NjZ6Ns0/AMB8x3/sAADaTqVSGSoHwbVy4WWSHoxYrttMHy74/nbf958RRz7Ex4X20anea7I/imPOYib3esn+TdKSGRUw+2kcOQBMVMjktjW81E4nuzJSIdNu57wXlILg+sHBwaMxxQMAYM6iAQgAaFvlev2u7jWrz3NO10saiVTM6dKU0z1F339vX19fZzwJEVW1Xv0Pme6f4u3Py+Vyz40yXyGTe7Mz9zlJUf4M0AAEYra5t3dDIevfLnM3SeqOUOrJVX+jo+dV6pXvxZUPAIC5jgYgAKCt7dixY6xSD25wTe9cSXdGLNflnN4zfOTIT4q+/7w48iE6J/39VO+1MJzxKsBCxv9/jjcXUjOtIUmu4dEABGJUyOS2NVPpByS9PGKph+XCy1j1BwBYiDgEBAAwn1ghk9tq5v7WSasi1gpl+lR60aI/ffjhhw/Fkg4zsn79+iVLOjr7p/h7Oto0ZYMg2DOdOYq+/37ndN0MIz7VULkW9EhyMdQCFrRCobBRjeZNkl4WsVTTTB8cbjT+cmBg4Fgc2QAAaDesAAQAzCeuXK/eMiZ3jkxfiFjLk9O2xvDIQ/ls9jWxpMOMDA4OHg1l/zTF2zu9UNdMo7zls7kPxdT8k2QPiOYfnqJQKEQ9oXYhskImt02N5v2K2Pwz6SGTu7QUBNfT/AMALGQ0AAEA806tVnu0HASvN2evklN/xHLrTfalYjZ76+be3g2xBMS0heY+Kqk5lXvNdM1U9nG88MILOwpZ/59N7h2RA/6STXesLQAAIABJREFUc1PdrxALRbP510lHaCf5fD5TyPhfPf46/gxO4f5PTTPd0DCdX6rVfhBXPgAA2hUNQADAvFWqV291ae9cmT4iKYxSy8mubKbSD+Qz/rXi52fLBUEQONNXpnj7umOHD7/uZDf09vYuPvD4vi9LemP0dE9htjPWemhrm7LZs+T02xwsNCVWyOS2WTO8X6aXRqz1czNdUgqC64MgGI4lHQAAbY7/gAEAzGuVSmWoHATXyoWXSXowYrluM3244PvbN2WzZ8WRD1PnQvvoVO812QkPAykWiys6vfTXJPeKeJI9ZV5zD8RdE+0rlHelpCUjR45ckHSWuazQWygWfP/bx1f9rYhQasxMf9k0XVAKgh/GlQ8AgPmABiAAYEEo1+t3da9ZfZ5zul7SSKRiTpeGsp8Wff+9rOxpnWq9+h8yTfUV2+flcrnnjh8sFounubHmHWa6LOZ4kiRvtJMGIP6Tc+5KSXLh7Px5mwe8fMa/TqnmvXK6NGKte0LPnlMKgvey6g8AgIloAAIAFowdO3aMVerBDa7pnSvpzojlupzTe4YPH95R9P3nxZEPp+akv5/qvRaGT1sFWNxQ7NVY4zuSuzD+ZJKkPbsGdz0+S7XRZnzf7zZzz5ckebo44ThzTj6f31zIZr9tpvdLWhKh1Khzur57zepfqVar98aVDwCA+YYGIABgwakMVHaXa8EL5exqk/ZFq2bnOKfvF3z/pmKxGOXVNUzB8Ojop6f6e2ay1/u+f4Yk5XK5rOto3OGkZ8xivIdmsTbajOfcayRLS9Lx1W18736Sl8/411kz/Jlkl0Ss9dPQs+dU6sENO3bsGIslHQAA8xRfRAAAC5Ur16u3NEx9Mn0hYi2T0zY31vh5Ppt9TSzpMKnBwcGjoeyfpnh7pxfqmlwu9ywvdD+S06bZzCbTrlmtj/bi7Def8v96crncuYllmSNyudyZhaz/3eOr/hZHKDXqnK7fWPN/pVqt3hdXPgAA5jMagACABS0Igj3lIHi9OXuVnPojlltvsi8Vs9lbixuKvbEExAShuY9Kak7lXs/cH3mh2y5p7ayGkiRnu2d9DrSFQqFwupm74qljXnNB7wOYymf867zQ3SPp+dFKuZ8oTF1YqQc3bNf2RizpAABYAGgAAgAgqVSv3urS3rkyfURSGKWWk13p0o378xn/WvGzNnZBEAQy3T6Ve51staTuWY4kSTJzNAAhSXLN5n+9/vtLnot6yEVb8n3/GTGt+ht5ctVf7qJyf5nDdgAAmCb+owQAgOMqlcpQOQiuldylknZGLNdtpg8Xstlvb8pmz4ojH/6LC72PJp1hgjCkAQhJkjn95oRBp8skWevTJCaVz/jXpZzukXRRlELm9GNzIav+AACIYCF9CQEAYMouvPDCjv17n3iHmf5S0qKI5YbNdIPS6f9VKpVG4sgHqeD798lpruyr1rSO9FJ+f5HNZtelZf2SUuOvuaa3uTJQmfeN4mImc3Zo3j+Y9CsRSw07p/dm6v6HaPwBABANDUAAAE6i0FsoKtW8WdLl0au5B8zszaUg+GH0WvNf32l9y8YWDa10qdQKZ7ZS0kqFtsJJPTKtlMLLJXtZ0jmPq5drQTbpEEhePuNfd/x114mcbSvXq59scaSWufDCCzuGnnjir53TOyR1RKnlnL5jYer3ywPlUkzxAABY0GgAAgBwalbI5Laaub910qqItZxMn7R0+l2lUulgLOnmGN/3uxY1m6uaZj2h0j2eXI+Tepxcj6Quz9NiJ/XIuR6Tepy8Hj15rUdSl57cJ6wr0V/EdJm+Ww6ChXzIA44rZP0HJZ3gtX/3mXKtdlVLA7VIMZs9X7J/dNKzotRx0hFz9o5yvfopRdyPFQAA/BcagAAATJHv+2ekpI/I6TdiKPeok/ujSq32pRhqxSaTyfQsdm7xZM07z3uyQeekxSdo3v2ygbfgmPS5Ui34raRzIFm5XO65Xuh+dJJbauVa4LcqTyv09fV1jhw58ldxrPqTtD3lwt/fVa9X4sgGAAD+Cw1AAACmqZjJvdLJfUymjVFrmdxtanS8pfRIaSCObDOxfv36JYvTnf9NpndIWptUjrZm+ptyEFyXdAwkK5/Nfczk3nqye0LP/Gq1WmtVptlUyGQulOf9Y/S9ON1hOe+dx1+PdrGEAwAAT8MpwAAATFOpXr3VOtPnyPQRRXxFzcmudOnG/fmMf60S+rk8ODh4tFwP/sY60uea6QZJx5LI0dac9ScdAcnq6+vrNIWvP9V9FoaXtCLPbCoWi4uKvv9+mf0whoN47khLzyzXqzeL5h8AALOGBiAAADNQKpUOloPgWsldKmlnxHLdZvpwIZv99qZs9gR7h82+Uqm0txQE14eenSW5T0mOUzenylxiKzgxNwwfOfIaydac6j6TXtCKPLMlvzH/HDc29hPndJ1k6QilDsnZNeVa8KKHa7VqbAEBAMCkaAACABBBuVb7fvea1ec7p+sljUSrZpeEsnuLvv/+YrG4KJaAM1CtVmvlWu3NLpUqSO4zYlXOKZlz9aQzIFku1Fumdqe15WExv1z1Z17z+5KdE62a+2bTWPUHAEArsQcgAAAxKfQWiko1b5J0RfRq7gGTtpVqtR9ErxVNfmP+OeaFfyNpS9JZ5irrSJ9eKpX2Jp0DyShsLJwjr3n/VO9vyK2v1WqPzmamOB0/3OQfJPVFLHVQzt7FXn8AALQeKwABAIhJeaBcKteCF8nZ1Sbti1bNznGyuwq+f1OxWFwRT8KZqfRX7i7XgitkeoMkVrpNNFIqlR5POgQS5DWumc7tHc5ri30A169fv6Tg+3/nhe77itj8c6Zb02HzLFb9AQCQDBqAAADEy5Xr1Vsapr7jr89GYXLa5sYaD+Wz2dfGkm7mXDkI/rV7zeqic3q75A4nnGcOcf2iobFgPXPt2qWSbZ3OZ5yFl85WnrgUff8Fizs675PTH0tKzbSOSfvM2esrQfCqh/v7B2OMCAAApoEGIAAAsyAIgj3lWu0q57xXyinqCbHrTPbFYjZ7a3FDsTeWgDO0Y8eOsUo9+LtUs/mMGBqc8wQnAC9kh7u6flPSyul9yubsCsBnrl27tOD7NzmnOyQVIhVz+vcxuXNK9eoX4kkHAABmigYgAACzqFKv3Gad6XNk+oikZpRaTnalSzceyGf8a5Xwz/BdAwOPlGu1q8zZqyQFSWZJmpN7JOkMSIyZ7B0z+Nyzent7V8WeJqJCNnv5ka7F98lpm6L9O+YJc/b6cj349Xba6xAAgPmMBiAAALOsVCodLAfBtZK7TNLOiOVWmunDhWz225uy2bPiyBdFqV69tWk6y0x/KWk06TxJMHnsi7hA5TP5F2pme+N5XV7HxXHnmam+0/qWFXz/Jsm+JSkfsdyXmyZW/QEAMMfQAAQAoEXKtdr3u9esPt85XS9pJFo1uySU3Vv0/fcXi8VFsQScoSAIhktB8N7Qs0sl3ZdkliSYQlYALlCeNa+d6Wfnyj6A+UzmhceWHPnlqj+beSX3uDl7fbkWvCYIgj2xBQQAALGgAQgAQAsd30PvBjVT50i6I2K5Dud0nRsb+0kxm70ojnxRVKvVH3evWf1sk/tzScNJ52kZ53EC8AKUy+XOdLJXzPTzTnZZnHmm68wzz1xe8P2bzLz/MCkXpZbJvhR6Hqv+AACYwyL8LR8AAIjICpncVpm7UdLqiLWcTJ+0dPpdpVLpYBzhojgzm801ZJ+SdEXSWWafe2G5VovazEWbKWSzH5Hsj2ZewTXSXV2rHn744UPxpZqafCb/IrPwU5KyEUvtNWdvo/EHAMDcxwpAAACS48r16i1N0zkxnKhrctrmxhoP5bPZ18aSLoKHa7VquRa8SM6ukdTyBkcrhZ73RNIZ0FrFYnGFZFdHq2LpxvDwc+JJNDWZTKankM3eYhZ+Q5Gbf+4zSqdY9QcAQJugAQgAQMKCINhTrtWucs57pZz6I5ZbZ7IvFrPZW4sbir2xBJw5V65Xb26annn8cIF5KTWaogG40IyN/TdJK2KotCWGGlNS3Jh7VYd5OyXbqmhvAQ06572yXKtdVS6XfxFXPgAAMLtoAAIAMEdU6pXbrDN9jkwfkdSMUsvJrnTpxgP5jH+tEv55HwRBUK5VXyLZuxT58JO556g7ui/pDGid3t7exU4248M/nm729wHs7e1dVfD9zzvP/bukdZGKmW5umvoq9cpt8aQDAACtwh6AAADMQYVs9vmS3SypL3o19z1P2ra7Vvt59FrRbMpmz2rKPmfSeUlnicmxci1YknQItE7e999iTh+PqdxI09QdBMGsHJpT8P1fl9PfSzojYqlHnNy2Sq32lThyAQCA1mMFIAAAc1C5Vvt+95rV5zun6xX5RF27JJTdW/T99xeLxUWxBJyh3bXaz72O9PPMdIOkMMks8XC8/ruAbNGWtJzeFWPJRV7oPTvGepKkZ2zYsLrg+5+X05cVtfn35Kq/c2j+AQDQ3mgAAgAwR+3YsWOsUg9uUDN1rqSop8x2OKfrXKNxf9H3t8QQb8ZKpdJIKQiud857qaTBJLNEZTIagAtIvx+8zqRcnDU9a8b6GnA+m33NWLpjp5x+I1Ihp37JvbwcBNcEQXAgpngAACAhNAABAJjjygPl0vETda+WFK3h5LTJOd1R8P2bnjzJNDmVeuWbqWbjuZL7XpI5onAS+/8tHBbz6j9JkpNdEkedzes3ryn4/udN9iVJa6NF0s0u7Z1brtW+Gkc2AACQPBqAAAC0B1euV29pms6R3Gci1jI5bXNjjYfy2exrY0k3Q7sGBh4p12qXHX/VOdLBJ4kwPZ50BLRGMZN7raQL4q/sLt2iLekoFYqZ3OuaHaPRV/1JdTO9rBwE11QqlaGItQAAwBxCAxAAgDYSBMGecq12lXPeKyXVI5ZbZ7IvFrPZW4sbir1x5JshV6kHN0juxZL2JJhj+sKIKzLRLjxn7r2zU9qW1TfWZ3QoTrFYPK3g+5935r4g6fQIIZxMN1tH+txSEHw9Qh0AADBH0QAEAKANVeqV25YOHzv7+GEakVbOOdmVLt14IJ/xr1WC3w3KtdqdqWbj2W31SrCxB+BCUPD931AsJ3JPzvOmvw9gIZPb5sYaD0df9edKYWgvKAfBNaVS6WC0WgAAYK6iAQgAQJu677HHjpSC4HqTu1TSzojlVprpw4Vs7jvFTObsOPLNxK6BgUe6li17oeQ+mlSG6Qn3J50As86T03tmcwInu3Sq927u7d1QzGZvlbmbJPVEmDY00w3HxsaeVe2vfjdCHQAA0AZoAAIA0OZKtdoPutesPv/4PnrD0aq5i515Pyv6/vuLxeKiWAJO086dO0fLtdofO+e90ub4IRvO7EjSGTC78tnsGySdNZtzmHSZpvC9vJDJbWum0g842ZURp9zlnPeCUhBcPzg4eDRiLQAA0AZoAAIAMA/s2LFjrFIPblAzda5k34pYrsM5XecajfuLvr8ljnwzUalXbnPp1HmSfpBUhlOx0GiezGNbtCVtZu+d7XmctKqwsXDClbfFDcXeQta//fiqv+4IU4VmumGk2TivUq+0z6v2AAAgMhqAAADMI+WBcqlcq75Yzq6WIh5Q4bTJOd1R8P2bisXiingSTk+5XO4faTZeKLlPJTH/qZh0LOkMmD0Dmdob5bSpFXOZ15h0H8BCJrfNpRsPSHp5xCkeltylpSC4fmBggD+3AAAsMDQAAQCYf1y5Xr2laTpHcp+JWMvktM2NNR4qZnKviyXdNA0MDBwr12pvdqY3aY413EILWQE4T23RlrSz8N2tmm/8PoCFQmFjIet/9fiqv5URSjePr/o7v1yrfT9aSgAA0K5oAAIAME8FQbCnXKtd5eSulFSPWG6dM/eFYjZ7a3FDsTeOfNNVCYJ/MbmLFf3XEhuTaADOU/1+8NuSFVs45QuO/68VMrltajTvl/SrUQqa9JCx6g8AAIgGIAAA816lVrt96fCxs810g6RmlFpOdqVLNx7IZ/xrlcD3iFKtdk86bF7kpB+1eu7JeMYegPNRX19f52yf/DuJdbmNucvyGf9rca36a5jOL9Vqc3YPTQAA0DqWdAAAANA6xWz2Iif7pKS+6NXsLnPNbaV6/cHotaanWCwucqONT8j0O62e+6lc03tmZaByf5IZEL+C718tp39KYOpjkhZHrPGgZ/q93UEwJ5rkAABgbmAFIAAAC0ipVvtB95rV5zun6yUNR6vmLnbm/azo++8vFouLYgk4RaVSaaRcD35Xzq6RXKOVcz+VyXitcp555tq1S+X0voSmj9L8G3NO13evWX0ezT8AADAeKwABAFigCr2FolLhJyT3wsjFTLvl3DXlWu3OGKJNS9H3X+qc/kVST6vnTofNDQ/39w+2el7MnkI29z8k91dJ55ime0LPfrdard6bdBAAADA30QAEAGBhs0Imt1XmbpS0OmItJ9MnLZ1+V6lUOhhHuKl6spnZ/HdJZ7dy3qapJwiCA62cE7Mnm82uS0u7JFuWdJYpGnVO7+45bfWNO3bsGEs6DAAAmLt4BRgAgIXNlevVW5qmcyT3mYi1TE7b3FjjoWIm97pY0k1ReaBcSnctep5M/6eV8y5dupRDQOaRtPRX7dP8sx2u6T27Ug9uoPkHAABOhRWAAADgP+Wz2VeY7OOSMlFrmdxtLp1+a7lc7o8h2pRs0ZZ0f7b6ccne3ILpmuVakG7BPGiBTdnsWaF0n2Rz/PfUNczZBxue/jIIgoj7eAIAgIUilXQAAAAwd+wfGtq9eOmSmzvTqbSkixTpbQHbrND9Xs/K7mP7hw7cLcnFFPOEAgXh/qGhW1d1r2xIdrlm9S873dH9Q0P/a/bqo5V6VvZ8Vmabk85xUqa7FaZfXu6v/suBAwcSO/wGAAC0H1YAAgCASRWz2YucdLNk50SvZneZa24r1esPRq81Nfls9jUm+6yinax6MofKtWDFLNVGCx0/SOZrSec4iRHn9J5M3f/Qdm2n8QcAAKaNBiAAADihCy+8sGP/3ifeYab3SuqKWG7MTDcqnX5PqVQaiSHeKRV9/3nO6f9IOm0Wyh8s14KVs1AXLfTka+PBfZLOSjrLCRxsmn4tCILtSQcBAADtiwYgAAA4peLGjQXnpW+S3AsjFzPtlnPXlGu1O2OIdkqF3kJR6eZX5LQp5tJD5VrQHXNNtFghk3uzzN2cdI5T+IWZrioFwdeTDgIAANoTDUAAADBVVsjktsrcjZJWR6zlJPfZkWbz7QMDA/viCHcyvu+fkXLuVsmeHWPZA+Va0BNjPbRYsVhc4cYauyWdnnSWKXAyfbR79eo/5dRfAAAwXRE29gYAAAuMK9ert4Se9UnuMxFrmWRbF6XSDxQzudfFku4kgiDYs3R4eIvJ3RZj2Vk/1ASzy42NvUvt0fyTJJPTH+/f+8Q3N/f2bkg6DAAAaC+sAAQAADOSz2ZfYbKPS8pErWVyt7l0+q3lcrk/hmgnkypm/Y866S1RC5m0r1QLoq6EREKKG4q9Lj32c8mWJZ1lBh6V3G+Xa7U7kg4CAADaQyrpAAAAoD3tHxravXjpkps706m0pIsU6c0C26zQ/V7Pyu5j+4cO3K3ZW13n9g0d+Mqq7p60pMsiljqyf2joA7GkQsv19Ky4RWbPTDrHDC2X7KpVPd2r1m/YcMfevXubSQcCAABzGysAAQBAZMVs9gIn+6SkC6JXs7vMNbeV6vUHo9c6sbzv/6E5fUwzbly6x8u12mycLoxZls/krzQLb006RyxMd6fC8A276vVK0lEAAMDcxR6AAAAgslKt9tPuNauf55yulzQcrZq72Jn3s6Lvv79YLC6KJeAkKkHwCSe3VXKNmVUw9gBsQ77vd5mFH046R2ycntM0755iJvf6pKMAAIC5iwYgAACIxY4dO8Yq9eAGC5vnSPatiOU6nNN1rtG4v5DNXh5LwElUarXPWei9VjNrWtIAbENp6XpJhaRzxGyFM/evBd+/aTab5gAAoH3xCjAAAJgNVsjktsrcjZKiHpThJPfZkWbz7QMDA/viCDdeIZt9mWRfkrR4Gh/bU64F62YjD2ZHPp/fbM3wPknzuUn2U9f03lAZqOxOOggAAJg7WAEIAABmgyvXq7eEnvVJ7jMRa5lkWxel0g8UM7nfiCXdOOVa7avm2a9LOjqNj7ECsM1YI/yI5nfzT5IusFS4I5/NvinpIAAAYO5gBSAAAJh1+Wz2FSb7uKRM1Fomd5tLp99aLpf7Y4j2NPmN+WebF35NU1u1uLdcC06POwNmR8H3f11OX046R2u5zywdHn7LfY89diTpJAAAIFmsAAQAALOuUqvdfmxs9Cwz3SCpGaWWk12pRvP+fMa/VjF/l6n0V35iLrxM0uAUbu+Kc27MnmeuXbtUTn+XdI7Ws61Huhbfne/Nn5t0EgAAkCwagAAAoCUGBwePloLgepN7rqSfRiy30kwfLmT97xYzmbPjyPdLpXr9wdCzK+R0ihWGbjr7BSJBR7qW/HfFsPq0TZ1lqfBHxxvmAABggeIVYAAA0HJbtCVdzwTvNNN7FX0l3ZiZblQ6/Z5SqTQSQzxJUr43v8lSzTsk6z3RPRtrfsd2bW/ENSfi5/v+M1JO90rqTDpL8txnuo4ue+vOvTsPJ50EAAC0Fg1AAACQmOLGjQXneZ+Q7EWRi5l2y7lryrXanTFEkyTl8/mMmuF2k3KTXe86unQ5zZS5rZD1vyrpV5POMWeY7m9Krw+C4KGkowAAgNbhFWAAAJCYUn9/uVyrvUTOrpb0RKRiTpsk+1Yhm72lt7d3VRz5KpVKXSlvi6RgsutjHWPsAziHFbO5PxDNv6dzOjfldA+vBAMAsLCwAhAAAMwJuVxurReGH5Bsawzl9pizPy7Vq1+IoZZyuVzWC912Sf5Tx62R3lh6pDQQxxyIV3FDsdelGw9IWpl0ljnsy2Mu/P16vb4/6SAAAGB2sQIQAADMCdVq9bFyrXaVk3uFpHrEcmc4c58vZrO3FgqFjTFkq6mZerGkR546HlrIQSBzlEs3PyGaf6fy6g7z7ilmsxclHQQAAMwuGoAAAGBOqdRqXzk2NnqWmW6Q1IxSy8muVKN5//HXHSN97ykPlEuu6V0uafApw7wCPAcVfP839WQjGaeWddJ38hn/OvF2EAAA8xY/5AEAwJxVzGbPd7JPSboghnLfNxduK9XrO6MUyefzm60Z3ilpvQu951b6K3fHkC1WfX19nUePHs2lmtrsTGdK4SIzWx46W2YKF0mSkzfimTvsnDskadict6uZ0q5Vq1ZVduzYMZbwL2HGCoXC6Wo0dkq2Juks7caZbh1tNH5nYGBgX9JZAABAvGgAAgCAOW2LtqTrmeBtMr3PpKURy42Z6Ual0+8plUojMy1yvAm4PQztN6v91e9GzBRVKr8xf4EsvMLMLpXcMySXlSw9s3KuISmQvIfl3Hec8+6o9FfuUcTVmK1SzOY+6+R+K+kcbcup38l7U6Ve+V7SUQAAQHxoAAIAgLZQ3Lix4DzvE5K9KHo1V5J0TblWu2OmFTb5/nlhGKbK9fqO6HmmZ/P6zWvCjpHXO2cvkekFkrpnecr9kr7tTF/vHBv7wkOPPBLtxOZZUvT9X3NO/5Z0jvbnGmb2vlIQ/JWkMOk0AAAgOhqAAACgnVghk9sqczdKWh2xlpPcZ0eazbe3wyuPxWJxkUabr3Se2yqnl0nqSCjKqJy+6szd4nV03B5lJWWcfN/vTjntlLQ+6Szzh32rae63gyDYk3QSAAAQDQ1AAADQdnK53FovDD8g2dYYyu0xZ39cqle/EEOt2Pm+f0bKuXdK9gea/ZV+03VApptDsxur1epjSQYpZPy/l+kPk8wwT/3CPNtaqla/kXQQAAAwczQAAQBA28pnsy832cclZaPWMrnbXDr91nK53B9DtMjy+XzGms13Sfb7khZP9/NhR5fGVqzT2Mp1CjuXKuxcJpdKK0wtkiR5zRFZsyFv9LC8kcPqGNqjjkOPyhsbnkncYzJ90sbSHyg9UhqYSYEoCpnMxTLvO4p40jNOxDWcs7+o1IO/keSSTgMAAKaPBiAAAGhr69evX7Kks/PdzulPJaUiljvonN5dqQcfVUJ7n/Wd1rdseOmR/yGnt0vqnNKHPE8jq3I6tv5cHVt3rka7N6qxdGZvSKePPKHOA3UtHrxfix99QIv2VaVwyo9ixDndONwY/Z+Dg4NHZxRgmvpO61s2vOTIzyQVWjFfiw3ryf0X90t2THJDkkZkOmxOh53TiHkaOlWR0NkyM9chSeZsqaQup3Cl9OQ/S1qpJw/Y6dHJ/8x9zTrSV5VKpb1Rf2EAAKC1aAACAIB5oZjNnu/kfVJyF8ZQ7vvmwm2len1nDLWmrJjJ/Yaz8EbJek91b9i5RIfzl+po73k6dkafws6oByRPzhs5rMWPPaglAz/Vsspd8kan1NerO7k/qdRq/3tWQj1FPpv7lMn9/mzPE4O9Jg1Krt9J+2W236T9Yaj9puP/LNvvqbE/5dz+I87tHxgYONbqkH2n9S0bXjHcE4bhqpRzPQrtdGfKSGHGmfnmlA49+7NqtXpvq7MBAICZowEIAADmjS3akq5ngrfJ9D57ckVTFGNmulHp9Htm+6CLXC6X9cLwU6c84dg8HVt3jg5uulxHss+TS09tgWBcrDGiZcEPtXz3nVq8Z6fkTrEy0OnrLu1tq1Qq9dnIU/D9N8jpX2aj9jQMSXpEcoMyq5j0qAtt0MkqnhqPjkqD9Xp9f8IZAQDAAkcDEAAAzDvFjRsLzvM+ccqG2pS4kqRryrXaHdFrTXS8iXWzpOUnTJDq0MFnvFgH+l6pxrLTZyPGtHUcekwrH7xNKx76D1lz7GS3HjRnby7Vq5+Pc/5sNrsuLd0n2Zo4657AQUllmUouVEnmSp5Z2Ws0SrsGBh5VQq+LAwAATBUNQAAAMF9ZIZPbKgs/FEOTyEnusyPN5tsHBgb2xRFui7ak+7P7RzDvAAATmElEQVTV/1eyP9WJvpN5ng4Wr9CBZ75aYyvOiGPa2HUc3KOee7+k5aXtJ1sR6JzT+zN1/93btb0Rw7RWyPpfkfSrMdT6pQMy7ZZTSXIlOa8kC0tKp0vlcvkXMc4DAADQcjQAAQDAvJbL5dZ6YfgBybbGUG6PnF1XrldviVJk8/rNa5odI1+W7JIT3TN8+pl6/KI3a2R1LspULdO1d7fW3HXTk4eGnIBz+s5o2Hh11CZqIZt9p2QfnMlnnXTEZD+TuR0KbaeTPdhQYyev6QIAgPmMBiAAAFgQ8tnsy032cUnZqLVM7jaXTr+1XC73T/ezxQ3FXpdufEPSWZNdb3Yt1xPP3qpDm66QrL2+qlkYauXPb1fPT/9V3tgJz6/YmWo2XrprYOCRmcyRy+We5YXuR5IWneLWUNJDktvhnO30ZA+mXGPHw/39gzOZFwAAoJ2117dKAACACNavX79kSWfnu53Tn0pKRSx30Dm9u1IP/j9Jzal8IJfLnemF7huSMpNdHz5tsx674p1qLG3FtnazJ314r86444Na9HjpRLcErum9pDJQ2T2dun19fZ3Dh4/8UNL5k1zeK9mPnXM/NnN3p8YW3b1rcNfj080OAAAwH9EABAAAC04xmz3fyfuk5C6Modz3zYXbSvX6zlPPaV+TNPEUDzMdOPtK7XvOVjkval9ybrCwodV3f1ord37lRLf8wjO9dHcQ/GyqNfNZ/0aT/kRyj5v0Q5ntUGg7Gp67OwiCPfEkBwAAmH9oAAIAgAVpi7ak65ngbTK9z6SlEcuNmelGpdPvKZVKI+MvFnoLRaWa35O0dvw1l+7UYy+4Vkeyz4sYYW5aXvq2Tvvex2ThpIsk96RcePGuer1yqjp9p/UtG1ly9A1m7icbAv+BmA4TAQAAWBBoAAIAgAWtuHFjwXneJyR7UfRqriTpmnKtdscvR548hMTdJakw/u6wc4n2vPjPdGzt2dGnnsOWPHKP1t7xQXljw5NcdSWl0xdz0i4AAMDsoQEIAAAgWSGT2yoLPyRZ1A34nOQ+29Fo/Ilbtmy0MTzybU2yZ11z8Uo9+pL/0Tan/Ea1aG9J6/7jfUoNH5zkqvtJ19Fll+/cu/Nwy4MBAAAsADQAAQAAjntytV74Acm2xlBuj2QDknv2+AvNrhV65Mr3aWzF+himaR8dQ49ow+1/rtTwocku///lWvDGVmcCAABYCObHLtMAAAAxOHDgwJH9Q0Nf7uleebfJLpHUHaHcMkkTOnxhR5ce/dX3aLQnG6F0ewq7Vmj4jD4tq35PFk7Ywu+c1d0r9+4bGro7iWwAAADzGQ1AAACAcfYPDe1evHTJzZ3pVFrSRZK8OOq6VIf2vOQvNHz6mXGUa0uNpas1cvqZWla9S+bCcVftJatWrrhj/9BQfyLhAAAA5ikagAAAAJM4dOjQ2L4DB765unvlrZL3bE2ymm+6Hn/+m3XEvyiGdO2tsfx0hZ1LtWTgp+MvpZzZ5aefsfYfnnjiidEksgEAAMxHNAABAABOYt/Q0J5nDZ33D0MrD+yT6VKTOmdS59CmLdp3wZvijte2Rk7bpI5De7RoX+1p4yb1hI3Gsv1DQ19NKBoAAMC8wyEgAAAAU7Q5k8k3zW6S7EXT+dzYijM08GsfVNixeLaitSVv9Ih6//1d6jj02LgrrqEwfX65v/xAIsEAAADmmVj2swEAAFgIdtXrlXKt9hI5u1pyj0/lM87z9NiWd9D8m0TYuVS/2PInkjf+K6mlnTU/Jv6yGgAAIBa8AgwAADBN+4cO3Nu9atUt5txayZ51snsPnv0KHdp8RauitZ3G0tVKDR9U197S08bNlO3pXrl7/9DQ/QlFAwAAmDdYAQgAADAD1Wr1sXKtdpWTe4XJapPd01i6WvsueGOro7WdfRe8Sc3F3RPGzew94i+sAQAAIuMLFQAAQAT7h4Z2d/d0D5n0a+Ov7b3kbRpZnUsiVltxqQ41lq7SsuCH4y+tXtXT/fP9Bw6wFyAAAEAErAAEAACIxjOnd44fHFlT0OHcRUnkaUuHc5ecqFn638VegAAAAJHQAAQAAIig4PuvktQ3fnz/ea9LIE0bM9OBZ7124rjTucWNuVe2PhAAAMD8QQMQAAAgCqc3jx8a7cnoyMbnJJGmrR3O/opGu3snjDtP2xKIAwAAMG/QAAQAAJgh3/fPkNxLxo8fOPfVkvHW6rSZ9+SzmyB8aS6XW9vyPAAAAPMEDUAAAIAZ8kJdLVn6qWPNruU6nH9+UpHa3uHCJWp2LR83amkv1FWJBAIAAJgHaAACAADMkJmuHj92OHexnJee7HZMgfPSOpKd7PAU9zutzgIAADBf0AAEAACYAd/3nyHprPHjh/OXJpBmfjlcnPQZnp3P5ze3OgsAAMB8QAMQAABgBtLOXTF+bGzFGRo+/cwk4swrx04/S41lp0+8EIYTnjkAAABOjQYgAADADDjZi8aPHd14IYd/xMFMRzIXThx37oWtDwMAAND+aAACAABMn2fSC8YPHlt3ThJZ5qXJnqXJLhffXwEAAKaNL1AAAADTlMvlznHSqqcNmqdja89OKNH8M7y2T7IJX1VXFzYWeMgAAADTRAMQAABgmjznzh8/NrIqq3DRsiTizEvNruUa7clMGDcLJzx7AAAAnBwNQAAAgGmySU7/HVlTSCLKvDa8pjhhLJSb8OwBAABwcjQAAQAApsk5TTjqd2zlhiSizGtjK9dPGDOb+OwBAABwcjQAAQAApm9CE2qUBmDsJmsAapJnDwAAgJOjAQgAADA9nqT8+MGxlesSiDK/ja2Y9JkWJFmLowAAALQ1GoAAAADTkM/nl0taNH68sfS0BNLMb2PLJn2mXX2n9S1tdRYAAIB2RgMQAABgGtKjoxOO+nVeWi7VkUScec2lF8l5qQnjh5ccXp5AHAAAgLZFAxAAAGAaRtPpCc2nsHNxElEWBNcx8dmmUikagAAAANNAAxAAAGAavKY3cQVguiuJKAtCOMmztUaDBiAAAMA00AAEAACYhlTaLRk/NlmTCvEIOyY+29ClJvweAAAA4MRoAAIAAExDQxoeP2bN0SSiLAheY+KzNdmxBKIAAAC0LRqAAAAA05AOw0Pjx7yxo0lEWRAme7Yu7Sb8HgAAAODEaAACAABMg2t0TNIAnLAoEDGxsYmL/TobDRqAAAAA00ADEAAAYBoaHY3D48esOSYLwyTizGtPPtfmhPHmokUTfg8AAABwYjQAAQAApiEIgkOSJnSlUsf2JZBmfksfneyZukapVKIBCAAAMA00AAEAAKanKSkYP9g59Ejrk8xzHZM+U6tIYrklAADANNAABAAAmDZ7aPxIx34agHHrGBqcMOZMDycQBQAAoK3RAAQAAJgmp4lNqI6DNADj1jlJA9CcowEIAAAwTTQAAQAApsnM7Ro/tmh/LYko81rnZM/UeROePQAAAE6OBiAAAMB0OXf/+KFFe0uyxkgSaeYlb2xYi/aWJoybN/HZAwAA4ORoAAIAAEzTxlrux5IOPXXMmmNa/IsJWwNihroee1AWNsYPH+wN/J8kkQcAAKCd0QAEAACYpu3a3pD0vfHjiwdZnBaXxY8+MMmofff4swcAAMA00AAEAACYAef07fFjiwfvSyLKvLT4kUmf5YRnDgAAgFOjAQgAADADLmV3jh9b9HhZHUOcBhxV5/5+LdpXnXjBNe9ofRoAAID2RwMQAABgBqrV6t2SgvHjy0ssUotqeXn7ZMOVcr3+0xZHAQAAmBdoAAIAAMyMM9Onxw8u332nFIZJ5JkfwnDSJqpz+rQk1/pAAAAA7Y8GIAAAwAyFDe+fx4+lj+47wQEWmIolj96n1NH944edhanPJZEHAABgPqABCAAAMEOVgcpuST8cP95z/5cTSDM/dN836bP7QXmgXGp1FgAAgPmCBiAAAEAUzv5x/NDiwfvUtXdXEmnaWtcvHpp09aRp4jMGAADA1NEABAAAiMA6U5+WNOHo356ffj6BNO3tBM+stnLNqgl7LQIAAGDqaAACAABEUCqVRiT78PjxJYM/0+I9O5OI1JYWD96nJY/eN2HcmT68Y8eOsQQiAQAAzBs0AAEAACLqOrrkE5KeeNqgc1rzg0/JwmYyodqIhQ2d9oNPSW7CIb97h0dHb04iEwAAwHxCAxAAACCinXt3Hja5G8ePd+6va+WDtycRqa2sfOBWdQxNeItacvrg4ODg0dYnAgAAmF9oAAIAAMSgYXajTLvHj/fc869KH3liso9AUvrI4+q594uTXXrYOtN/1+o8AAAA8xENQAAAgBgEQTDsmf2BpKe9x+qNDeuMb/0NrwJPwsKGzrjjA/LGhsdfcs55f/Dk/ooAAACIKpV0AAAAgPli34EDtVUru8+S6ZynjqeP7pPkdGzduQklm5tW7fgXLaveNWHcZJ8r16sTDlYBAADAzLACEAAAIEZp13yHSfvGj/fc+7+1eHDiKbcL1ZJHfqae+/9tkivu8Ya5P215IAAAgHmMBiAAAECMHu7vH5Tp9zTuVWC5UGu336iOocFkgs0hnQf6tXb730ouHH/JOel3giDYk0QuAACA+YpXgAEAAGK278CBh1ev7O6W6XlPHfcao1ra/xMdyT1fYcfipOIlKn3kCa3/6ruVOjY0yVX3oUqt9rGWhwIAAJjnaAACAADMgmcOnfetg91DL5SUeeq4N3pUS/t/osP5i+XSXQmlS0bq2JA2fOUv1HF472SX7yjXaldr/MpJAAAARMYrwAAAALNgu7Y30gq3Snps/LWOoUe17uv/8wSr4Oan1LEDWveNv1bHwUnf7n3UpbzflcRRyQAAALOAFYAAAACz5ImhoQOru1d+S7I3Slr01GvpY/u1tP4jHe29UOGiZQklbI2Og3u0/qvvVueBgckuD4Wevahare5qdS4AAICFggYgAADALNo3NLRnVffKH0v2Bknpp15LjRzWsupdOrb+XDWX9CSUcHYterys9V99r9JHn5js8ojkXlkJgh+2OhcAAMBCQgMQAABglu0fGqquXtnzkEyv1rjvX15jRMsq31VzySqNrs4llHB2rNj1TZ1x543yRo9MdnnUyf1WpVb7SqtzAQAALDQ0AAEAAFpg39CBB1d1r/yJZK+W1PHUaxY2tLT+Y3Uc2qNj68+TS6VPUKU9eGPHdPp3P6aee78kCydu6+ekI57p1eVa7dYE4gEAACw4lnQAAACAhaSQzT5fstskTfrO79iK9frFJW/V8BlntThZPBbv2anTvvfxEx32IZP2yfSKEq/9AgAAtAwNQAAAgBbL5XLP9EL3FUkbJr3BTIeKl+uJ51ylZtfy1oabodTwQa3+8ae1vPxtybkT3OUGFKZfVu4vP9DScAAAAAscDUAAAIAEFIvF09xY49OSXnaie5pdy7Xvgjfq0KYr5FIdJ7otUdYc04pd31TPPf+q1PChE98nd5s3tuh3dw3ueryF8QAAACAagAAAAIkqZHJXydzfS1pyonuaXct18KyX6UDflQo7l7Yw3Yl5I4fV/eDtWvHzr5608SfpqJy9pVyv3tKqbAAAAHg6GoAAAAAJ2+T7vxI6fVrSmSe7r9m1Qoc2Xa5DhS0aXZVpUbqn69xf0/LSdi3ffeepGn+S9HMXeldX+it3tyIbAAAAJkcDEAAAYA4oFouLwtHGdWb6M0ldp7p/dJWvQ8UX6HDuYjWWrp7VbOkjj2tZ9ftavnu7OvfXpvKRY5J7X9eyZR/YuXPn6KyGAwAAwCnRAAQAAJhDCr2FoqWbH3dOL57qZ8ZWrtOxM87VsXXnanjtmZEbgukjj6vrFw9r8aP3a/Hg/Sc80fcEvpZy4dt21euVSCEAAAAQGxqAAAAAc1Ahm32+ZH8u6eXT/WzY0aWx7l6NruzV2Ip1Cju6FHYslutcoubxPQRTo0fkjR6RN3ZMNjaijoOPqnNoQB0HBuSNDU93Smdyt8vsfaUg+OF0PwwAAIDZRQMQAABgDitmsxe4JxuBvy7JSzrPOKHJviyF7yvVavckHQYAAACTowEIAADQBnzff4YX6iqTflumjQnHqUv22dDTLdVq9eGEswAAAOAUaAACAAC0F6+QzW5x8t5kCl8qWW9LZnXql7mvm9k/l4LgO5LClswLAACAyGgAAgAAtLF8Pr9ZYXiFSVfI6VJJZ8RUeo9M35F0h2t4d1QGKrtjqgsAAIAWowEIAAAwj/i+3+01vU3ympvkbJNnWivZitDcCnNaIdmyJ+90h53poOfsoOQOhk6Pydxuhand6tCuSqUylOyvBAAAAAAAAAAAAAAAAAAAAAAAAAAAAAAAAAAAAAAAAAAAAAAAAAAAAAAAAAAAAAAAAAAAAAAAAAAAAAAAAAAAAAAAAAAAAAAAAAAAAAAAAAAAAAAAAAAAAAAAAAAAAAAAAAAAAAAAAAAAAAAAAAAAAAAAAAAAAAAAAAAAAAAAAAAAAAAAAAAAAAAAAAAAAAAAAAAAAAAAAAAAAAAAAAAAAAAAAAAAAAAAAAAAAAAAAAAAAAAAAAAAAAAAAAAAAAAAAAAAAAAAAAAAAAAAAAAAAAAAAAAAAAAAAAAAAAAAAAAAAAAAAAAAAAAAAAAAAAAAAAAAAAAAAAAAAAAAAAAAAAAAAAAAAAAAAAAAAAAAAAAAAAAAAAAAAAAAAAAAAAAAAAAAAAAAAAAAAAAAAAAAAAAAAAAAAAAAAAAAAAAAAAAAAACAeeP/AhlAAB9BOz0EAAAAAElFTkSuQmCC;fontFamily=Garamond;" parent="1" vertex="1">
          <mxGeometry x="370" y="80.89" width="89.78" height="64.11" as="geometry" />
        </mxCell>
        <mxCell id="UAWAhfWOhrc3bymRP1m0-4" style="edgeStyle=orthogonalEdgeStyle;rounded=0;orthogonalLoop=1;jettySize=auto;html=1;exitX=0.5;exitY=1;exitDx=0;exitDy=0;entryX=0.5;entryY=0;entryDx=0;entryDy=0;fontFamily=Garamond;" parent="1" source="Ep8Fig-30uCxifs2r-Bo-34" target="UAWAhfWOhrc3bymRP1m0-3" edge="1">
          <mxGeometry relative="1" as="geometry" />
        </mxCell>
        <mxCell id="Ep8Fig-30uCxifs2r-Bo-34" value="&lt;font style=&quot;font-size: 16px;&quot;&gt;Path&amp;nbsp;&lt;/font&gt;&lt;font style=&quot;font-size: 16px;&quot;&gt;Refinement&lt;/font&gt;" style="rounded=1;whiteSpace=wrap;html=1;fontFamily=Garamond;" parent="1" vertex="1">
          <mxGeometry x="510" y="82.94" width="120" height="60" as="geometry" />
        </mxCell>
        <mxCell id="Ep8Fig-30uCxifs2r-Bo-41" value="" style="group;fontFamily=Garamond;" parent="1" vertex="1" connectable="0">
          <mxGeometry x="580" y="150" width="164.83870967741936" height="80" as="geometry" />
        </mxCell>
        <mxCell id="Ep8Fig-30uCxifs2r-Bo-37" value="Composition Pattern&amp;nbsp;&lt;font style=&quot;font-size: 11px;&quot;&gt;1&lt;/font&gt;" style="text;html=1;align=center;verticalAlign=middle;resizable=0;points=[];autosize=1;strokeColor=none;fillColor=none;fontSize=16;fontFamily=Garamond;" parent="Ep8Fig-30uCxifs2r-Bo-41" vertex="1">
          <mxGeometry x="-0.16129032258064502" y="12" width="160" height="30" as="geometry" />
        </mxCell>
        <mxCell id="Ep8Fig-30uCxifs2r-Bo-38" value=".&lt;br&gt;." style="text;html=1;align=center;verticalAlign=middle;resizable=0;points=[];autosize=1;strokeColor=none;fillColor=none;fontSize=11;fontFamily=Garamond;" parent="Ep8Fig-30uCxifs2r-Bo-41" vertex="1">
          <mxGeometry x="14.516129032258064" y="20" width="30" height="40" as="geometry" />
        </mxCell>
        <mxCell id="Ep8Fig-30uCxifs2r-Bo-40" value="Composition Pattern&amp;nbsp;&lt;span style=&quot;font-size: 11px;&quot;&gt;n&lt;/span&gt;" style="text;html=1;align=center;verticalAlign=middle;resizable=0;points=[];autosize=1;strokeColor=none;fillColor=none;fontSize=16;fontFamily=Garamond;" parent="Ep8Fig-30uCxifs2r-Bo-41" vertex="1">
          <mxGeometry x="-0.16129032258064502" y="42" width="160" height="30" as="geometry" />
        </mxCell>
        <mxCell id="mvj1vTtgmSBRF8dfWovp-3" style="edgeStyle=orthogonalEdgeStyle;rounded=0;orthogonalLoop=1;jettySize=auto;html=1;exitX=0;exitY=0.5;exitDx=0;exitDy=0;entryX=1;entryY=0.5;entryDx=0;entryDy=0;fontFamily=Garamond;" parent="1" source="Ep8Fig-30uCxifs2r-Bo-51" target="mvj1vTtgmSBRF8dfWovp-1" edge="1">
          <mxGeometry relative="1" as="geometry" />
        </mxCell>
        <mxCell id="Ep8Fig-30uCxifs2r-Bo-51" value="" style="html=1;overflow=block;blockSpacing=1;whiteSpace=wrap;shape=image;fontSize=13;spacing=0;strokeColor=none;strokeOpacity=100;strokeWidth=0;image=https://images.lucid.app/images/ce9dcb80-1f2d-4492-a988-f527a7a84aa9/content;imageAspect=0;lucidId=8Exwi~LeNtWX;container=1;collapsible=0;fontFamily=Garamond;" parent="1" vertex="1">
          <mxGeometry x="390" y="242" width="47" height="56" as="geometry" />
        </mxCell>
        <mxCell id="Ep8Fig-30uCxifs2r-Bo-52" value="&lt;font style=&quot;font-size: 14px;&quot;&gt;Compatibility Graph&lt;/font&gt;" style="text;html=1;align=center;verticalAlign=middle;resizable=0;points=[];autosize=1;strokeColor=none;fillColor=none;fontSize=16;fontFamily=Garamond;" parent="1" vertex="1">
          <mxGeometry x="340" y="310" width="140" height="30" as="geometry" />
        </mxCell>
        <mxCell id="UAWAhfWOhrc3bymRP1m0-5" style="edgeStyle=orthogonalEdgeStyle;rounded=0;orthogonalLoop=1;jettySize=auto;html=1;exitX=0;exitY=0.5;exitDx=0;exitDy=0;fontFamily=Garamond;" parent="1" source="UAWAhfWOhrc3bymRP1m0-3" edge="1">
          <mxGeometry relative="1" as="geometry">
            <mxPoint x="440" y="270" as="targetPoint" />
          </mxGeometry>
        </mxCell>
        <mxCell id="UAWAhfWOhrc3bymRP1m0-3" value="&lt;font&gt;&lt;span style=&quot;font-size: 16px;&quot;&gt;Candidates ranking&amp;nbsp;&lt;/span&gt;&lt;/font&gt;" style="rounded=1;whiteSpace=wrap;html=1;fontFamily=Garamond;" parent="1" vertex="1">
          <mxGeometry x="510" y="240" width="120" height="60" as="geometry" />
        </mxCell>
        <mxCell id="Ci30Uj7a5TZdjBIL7Ttv-1" style="edgeStyle=orthogonalEdgeStyle;rounded=0;orthogonalLoop=1;jettySize=auto;html=1;exitX=0;exitY=0.5;exitDx=0;exitDy=0;fontFamily=Garamond;" edge="1" parent="1" source="mvj1vTtgmSBRF8dfWovp-1">
          <mxGeometry relative="1" as="geometry">
            <mxPoint x="150" y="270" as="targetPoint" />
          </mxGeometry>
        </mxCell>
        <mxCell id="mvj1vTtgmSBRF8dfWovp-1" value="&lt;span style=&quot;font-size: medium; text-align: start;&quot;&gt;&lt;font style=&quot;&quot;&gt;Composition Model Instantiation&lt;/font&gt;&lt;/span&gt;&lt;span style=&quot;font-size: medium; text-align: start;&quot;&gt;&lt;/span&gt;" style="rounded=1;whiteSpace=wrap;html=1;fontFamily=Garamond;" parent="1" vertex="1">
          <mxGeometry x="210" y="240" width="120" height="60" as="geometry" />
        </mxCell>
        <mxCell id="Ci30Uj7a5TZdjBIL7Ttv-2" value="&lt;font style=&quot;font-size: 16px;&quot;&gt;Initial graph&lt;/font&gt;" style="text;html=1;align=center;verticalAlign=middle;resizable=0;points=[];autosize=1;strokeColor=none;fillColor=none;fontFamily=Garamond;" vertex="1" parent="1">
          <mxGeometry x="360" y="148" width="100" height="30" as="geometry" />
        </mxCell>
        <mxCell id="Ci30Uj7a5TZdjBIL7Ttv-3" value="" style="sketch=0;outlineConnect=0;fontColor=#232F3E;gradientColor=none;fillColor=#232F3D;strokeColor=none;dashed=0;verticalLabelPosition=bottom;verticalAlign=top;align=center;html=1;fontSize=12;fontStyle=0;aspect=fixed;pointerEvents=1;shape=mxgraph.aws4.json_script;strokeWidth=0;" vertex="1" parent="1">
          <mxGeometry x="108.31" y="242" width="42.38" height="58" as="geometry" />
        </mxCell>
        <mxCell id="Ci30Uj7a5TZdjBIL7Ttv-4" value="&lt;font style=&quot;font-size: 14px;&quot; face=&quot;Garamond&quot;&gt;Composition Model&amp;nbsp;&lt;/font&gt;" style="text;html=1;align=center;verticalAlign=middle;resizable=0;points=[];autosize=1;strokeColor=none;fillColor=none;" vertex="1" parent="1">
          <mxGeometry x="70" y="308" width="140" height="30" as="geometry" />
        </mxCell>
      </root>
    </mxGraphModel>
  </diagram>
</mxfile>
